SplineFontDB: 1.0
FontName: NimbusLGCUni-Regular
FullName: Nimbus LGC Unicode Regular
FamilyName: Nimbus LGC Uni
Weight: Regular
Copyright: Copyright (URW)++,Copyright 1999 by (URW)++ Design & Development; Cyrillic glyphs added by Valek Filippov (C) 2001; Numero, infinity and Omega made by Dmitry 40in (C) 2001; Greek glyphs Copyright The Omega Project 1996 v. 1997-02-08; Vulgar fractions taken from the FreeFont project v. 2003-12-05; Greek glyphs merged by Alexey Kryukov (C) 2005; Russian pre-1918 letters, various corrections in Cyrillic glyphs and old style numerals Alexey Kryukov (C) 2005
Version: 0.1
ItalicAngle: 0
UnderlinePosition: -100
UnderlineWidth: 50
Ascent: 800
Descent: 200
NeedsXUIDChange: 1
UniqueID: 4162059
FSType: 0
PfmFamily: 17
TTFWeight: 400
TTFWidth: 5
Panose: 2 2 6 3 5 4 5 2 3 4
LineGap: 90
VLineGap: 0
OS2WinAscent: 0
OS2WinAOffset: 1
OS2WinDescent: 0
OS2WinDOffset: 1
HheadAscent: 0
HheadAOffset: 1
HheadDescent: 0
HheadDOffset: 1
ScriptLang: 10
 3 cyrl 2 SRB  dflt grek 1 dflt latn 3 NLD  TRK  dflt 
 1 DFLT 1 dflt 
 1 grek 1 dflt 
 2 cyrl 2 SRB  dflt latn 3 NLD  TRK  dflt 
 1 latn 3 NLD  TRK  dflt 
 1 latn 2 NLD  dflt 
 1 latn 1 NLD  
 1 cyrl 1 SRB  
 1 latn 1 dflt 
 2 grek 1 dflt latn 3 NLD  TRK  dflt 
KernClass: 21 29 0 0
 9 afii10017
 9 afii10018
 9 afii10019
 29 afii10020 afii10052 afii10050
 29 afii10024 afii10028 afii10061
 9 afii10025
 47 afii10032 afii10147 afii10047 afii10048 uni04D8
 9 afii10034
 9 afii10036
 19 afii10037 afii10062
 9 afii10038
 9 afii10039
 39 afii10044 afii10046 afii10058 afii10059
 9 afii10148
 19 afii10053 afii10035
 9 afii10054
 19 afii10085 afii10110
 29 afii10021 afii10040 afii10043
 19 afii10072 afii10076
 49 afii10080 afii10082 afii10086 afii10095 afii10096
 9 afii10017
 9 afii10021
 9 afii10024
 9 afii10025
 19 afii10029 afii10058
 29 afii10032 afii10147 afii10053
 9 afii10035
 9 afii10036
 19 afii10037 afii10062
 9 afii10038
 9 afii10039
 9 afii10041
 9 afii10044
 9 afii10047
 9 afii10049
 9 afii10057

StartChar: Upsilonhooksymbol
Encoding: 460 978 0
Width: 620
Flags: W
HStem: 0 18<151 435> 631 41<451.5 541.5>
VStem: 241 104<52.5 118> 533 77<556 617.5>
AnchorPoint: "Bot" 304 0 basechar 0
Fore
610 575 m 0
 610 537 589 488 545 488 c 0
 519 488 497 515 497 540 c 0
 497 574 533 586 533 609 c 0
 533 626 505 631 492 631 c 0
 467 631 445 616 427 599 c 0
 352 530 344 395 344 299 c 0
 344 227 345 154 345 82 c 0
 345 24 388 18 435 18 c 1
 435 0 l 1
 151 0 l 1
 151 18 l 1
 199 18 241 23 241 82 c 0
 241 125 242 167 242 210 c 0
 242 296 240 437 203 515 c 0
 183 557 150 597 105 612 c 0
 90 617 -2 640 -2 653 c 0
 -2 671 40 670 52 670 c 0
 122 670 189 642 240 594 c 0
 285 551 302 483 318 425 c 1
 345 526 386 672 517 672 c 0
 566 672 610 623 610 575 c 0
EndSplineSet
EndChar
StartChar: exclam
Encoding: 1 33 2
Width: 333
Flags: MW
HStem: -9 107<168 198> 656 20G<166.5 200>
VStem: 130 107<28 58>
Fore
189 176 m 1
 176 176 l 1
 167 284 l 2
 165 309 159 362 150 422 c 0
 139 494 130 576 130 599 c 0
 130 646 150 676 183 676 c 0
 217 676 236 648 236 596 c 0
 236 582 235 571 234 559 c 1
 189 176 l 1
183 98 m 0
 213 98 237 73 237 43 c 0
 237 13 214 -9 182 -9 c 0
 152 -9 130 13 130 43 c 0
 130 74 153 98 183 98 c 0
EndSplineSet
EndChar
StartChar: quotedbl
Encoding: 2 34 3
Width: 408
Flags: W
HStem: 656 20G<108 131.5 277 300.5>
VStem: 77 85<621.5 647> 246 85<621.5 647>
Fore
299 431 m 1
 278 431 l 1
 261 521 246 619 246 635 c 0
 246 658 265 676 289 676 c 0
 312 676 331 658 331 636 c 0
 331 607 322 547 306 471 c 1
 299 431 l 1
130 431 m 1
 109 431 l 1
 92 521 77 619 77 635 c 0
 77 658 96 676 120 676 c 0
 143 676 162 658 162 636 c 0
 162 607 153 547 137 471 c 1
 130 431 l 1
EndSplineSet
EndChar
StartChar: numbersign
Encoding: 3 35 4
Width: 500
Flags: W
HStem: 0 21G<79 137 273 331> 216 55<5 121 170 313 362 471> 405 55<32 150 200 341 391 496> 642 20G<181 239 371 429>
Fore
471 271 m 1
 471 216 l 1
 362 216 l 1
 331 0 l 1
 273 0 l 1
 304 216 l 1
 170 216 l 1
 137 0 l 1
 79 0 l 1
 112 216 l 1
 5 216 l 1
 5 271 l 1
 121 271 l 1
 142 405 l 1
 32 405 l 1
 32 460 l 1
 150 460 l 1
 181 662 l 1
 239 662 l 1
 208 460 l 1
 341 460 l 1
 371 662 l 1
 429 662 l 1
 399 460 l 1
 496 460 l 1
 496 405 l 1
 391 405 l 1
 371 271 l 1
 471 271 l 1
333 405 m 1
 200 405 l 1
 179 271 l 1
 313 271 l 1
 333 405 l 1
EndSplineSet
EndChar
StartChar: dollar
Encoding: 4 36 5
Width: 500
Flags: W
VStem: 52 74<488.5 561.5> 229 35<391 637> 378 79<113 187>
Fore
425 500 m 1
 410 500 l 1
 393 585 348 627 264 637 c 1
 264 391 l 1
 385 321 412 301 437 260 c 0
 449 240 457 204 457 170 c 0
 457 122 438 81 405 53 c 0
 369 24 338 12 264 0 c 1
 264 -87 l 1
 230 -87 l 1
 230 0 l 1
 146 3 104 14 44 51 c 1
 44 181 l 1
 59 181 l 1
 83 76 136 29 230 28 c 1
 230 310 l 1
 159 350 137 365 108 393 c 0
 68 430 52 465 52 512 c 0
 52 555 72 595 106 622 c 0
 139 648 167 657 230 664 c 1
 230 727 l 1
 264 727 l 1
 264 664 l 1
 348 654 391 639 425 611 c 1
 425 500 l 1
229 407 m 1
 229 637 l 1
 160 623 126 589 126 534 c 0
 126 488 146 463 229 407 c 1
264 293 m 1
 264 28 l 1
 342 43 378 80 378 146 c 0
 378 208 357 235 264 293 c 1
EndSplineSet
EndChar
StartChar: percent
Encoding: 5 37 6
Width: 833
Flags: W
HStem: 0 30<533 604> 289 34<146.5 236.5> 339 32<612.5 701.5> 583 25<419 470> 632 30<225 297.5>
VStem: 61 76<366 479.5> 359 25<494.5 558> 449 76<75 191.5> 746 26<225 298>
Fore
669 371 m 0
 734 371 772 332 772 264 c 0
 772 186 739 105 686 51 c 0
 651 16 614 0 569 0 c 0
 497 0 449 51 449 129 c 0
 449 254 556 371 669 371 c 0
676 339 m 0
 645 339 617 321 590 281 c 0
 553 229 525 147 525 94 c 0
 525 56 550 30 586 30 c 0
 622 30 651 47 683 87 c 0
 721 134 746 202 746 259 c 0
 746 303 714 339 676 339 c 0
634 676 m 1
 249 -13 l 1
 201 -13 l 1
 552 613 l 1
 512 590 486 583 442 583 c 0
 413 583 395 586 377 593 c 1
 382 575 384 563 384 549 c 0
 384 476 352 397 300 344 c 0
 267 309 222 289 179 289 c 0
 114 289 61 346 61 416 c 0
 61 543 168 662 282 662 c 0
 313 662 326 657 352 635 c 0
 376 615 399 608 439 608 c 0
 501 608 541 625 595 676 c 1
 634 676 l 1
350 600 m 1
 321 608 309 613 295 626 c 0
 289 631 287 632 282 632 c 0
 251 632 213 598 184 544 c 0
 157 494 137 426 137 384 c 0
 137 348 161 323 196 323 c 0
 277 323 359 438 359 551 c 0
 359 565 356 580 350 600 c 1
EndSplineSet
Ligature: 0 0 'frac' zero fraction zero
Ligature: 0 0 'frac' zero slash zero
EndChar
StartChar: ampersand
Encoding: 6 38 7
Width: 778
Flags: W
HStem: -13 52<160 284> -13 71<570 663> 644 32<313 395.5>
VStem: 42 92<91.5 212> 202 79<503 586> 438 53<531 590.5>
Fore
711 426 m 1xbc
 711 405 l 1
 661 399 641 387 617 346 c 2
 591 300 l 2
 560 246 535 209 491 150 c 1
 537 89 589 58 645 58 c 0
 681 58 703 71 735 111 c 1
 750 100 l 1
 720 29 663 -13 599 -13 c 0x7c
 541 -13 492 13 429 78 c 1
 354 12 294 -13 213 -13 c 0
 107 -13 42 44 42 139 c 0
 42 223 93 294 199 355 c 2
 237 377 l 1
 210 452 202 484 202 522 c 0
 202 608 270 676 356 676 c 0
 435 676 491 626 491 555 c 0
 491 522 478 487 457 464 c 0
 429 433 404 416 336 384 c 1
 380 298 412 247 468 178 c 1
 532 263 559 317 559 360 c 0
 559 390 545 400 495 405 c 1
 495 426 l 1
 711 426 l 1xbc
321 416 m 1
 403 460 438 503 438 559 c 0
 438 608 404 644 358 644 c 0
 312 644 281 610 281 562 c 0
 281 517 291 479 321 416 c 1
252 343 m 1
 165 287 134 244 134 180 c 0
 134 103 193 39 263 39 c 0xbc
 305 39 345 57 404 104 c 1
 347 174 312 229 252 343 c 1
EndSplineSet
EndChar
StartChar: quoteright
Encoding: 912 8217 8
Width: 333
Flags: W
HStem: 656 20G<120.5 160.5>
VStem: 179 39<541.5 612>
Fore
106 433 m 1
 97 452 l 1
 151 489 179 525 179 558 c 0
 179 566 173 572 165 572 c 0
 164 572 164 572 157 570 c 0
 151 569 144 568 138 568 c 0
 102 568 79 587 79 619 c 0
 79 653 103 676 138 676 c 0
 183 676 218 637 218 587 c 0
 218 527 173 466 106 433 c 1
EndSplineSet
Substitution: 0 2 'locl' uni1FBF
EndChar
StartChar: parenleft
Encoding: 8 40 9
Width: 333
Flags: W
VStem: 48 86<188.5 310.5>
Fore
295 676 m 1
 304 660 l 1
 232 602 202 566 174 504 c 0
 147 442 134 360 134 255 c 0
 134 155 145 79 169 12 c 0
 196 -63 224 -98 304 -161 c 1
 292 -177 l 1
 240 -145 214 -123 173 -75 c 0
 85 27 48 125 48 252 c 0
 48 369 83 469 154 556 c 0
 191 602 221 628 295 676 c 1
EndSplineSet
EndChar
StartChar: parenright
Encoding: 9 41 10
Width: 333
Flags: W
VStem: 199 86<188.5 311>
Fore
38 -177 m 1
 29 -161 l 1
 101 -103 131 -67 159 -4 c 0
 186 57 199 140 199 244 c 0
 199 344 188 420 164 487 c 0
 136 562 109 597 29 660 c 1
 41 676 l 1
 93 644 119 622 160 574 c 0
 248 472 285 375 285 247 c 0
 285 130 250 30 179 -57 c 0
 142 -103 112 -129 38 -177 c 1
EndSplineSet
EndChar
StartChar: asterisk
Encoding: 10 42 11
Width: 500
Flags: W
HStem: 656 20G<241 261>
VStem: 214 74<292 308> 241 19<429.5 456 484 510>
Fore
241 449 m 1xa0
 241 456 l 1
 206 434 199 429 189 420 c 0
 181 413 176 408 147 375 c 0
 130 356 121 351 105 351 c 0
 83 351 69 364 69 386 c 0
 69 411 86 423 131 431 c 0
 177 440 193 446 234 471 c 1
 223 478 l 2
 204 491 174 501 137 508 c 0
 89 517 69 531 69 555 c 0
 69 575 84 591 103 591 c 0
 119 591 131 583 151 559 c 1
 184 523 203 507 241 486 c 1
 241 499 l 2
 241 526 236 557 226 590 c 0
 220 611 216 629 216 641 c 0
 216 661 231 676 251 676 c 0
 271 676 287 660 287 639 c 0
 287 628 283 612 277 593 c 0
 266 562 260 534 260 510 c 2
 260 484 l 1
 267 488 l 2
 289 500 314 522 339 552 c 0
 363 580 380 593 395 593 c 0
 416 593 431 577 431 554 c 0
 431 529 418 518 380 512 c 0
 336 505 317 498 268 470 c 1
 276 465 l 2
 302 449 334 437 373 431 c 0
 417 424 432 413 432 387 c 0
 432 365 418 350 397 350 c 0
 379 350 362 362 337 393 c 0
 310 426 289 444 267 453 c 2
 260 456 l 1
 260 449 l 2xa0
 260 410 267 372 280 337 c 0
 285 324 288 311 288 305 c 0
 288 284 270 265 249 265 c 0
 230 265 214 282 214 302 c 0xc0
 214 313 218 330 225 348 c 0
 238 382 244 411 242 432 c 1
 241 449 l 1xa0
EndSplineSet
EndChar
StartChar: plus
Encoding: 11 43 12
Width: 564
Flags: W
HStem: 0 21G<249 315> 220 66<30 249 315 534>
VStem: 249 66<0 220 286 506>
Fore
249 286 m 1
 249 506 l 1
 315 506 l 1
 315 286 l 1
 534 286 l 1
 534 220 l 1
 315 220 l 1
 315 0 l 1
 249 0 l 1
 249 220 l 1
 30 220 l 1
 30 286 l 1
 249 286 l 1
EndSplineSet
EndChar
StartChar: comma
Encoding: 12 44 13
Width: 250
Flags: W
HStem: -22 20G<141.5 146>
VStem: 156 39<-32 38>
Fore
83 -141 m 1
 74 -122 l 1
 128 -85 156 -48 156 -16 c 0
 156 -8 150 -2 142 -2 c 0
 141 -2 141 -2 134 -4 c 0
 128 -5 121 -6 115 -6 c 0
 79 -6 56 13 56 45 c 0
 56 79 80 102 115 102 c 0
 160 102 195 63 195 13 c 0
 195 -47 150 -108 83 -141 c 1
EndSplineSet
EndChar
StartChar: hyphen
Encoding: 13 45 14
Width: 333
Flags: W
HStem: 194 63<39 285>
Fore
39 257 m 1
 285 257 l 1
 285 194 l 1
 39 194 l 1
 39 257 l 1
EndSplineSet
EndChar
StartChar: period
Encoding: 14 46 15
Width: 250
Flags: MW
HStem: -11 111<110 139.5>
VStem: 70 111<28.5 58.5>
Fore
125 100 m 0
 155 100 181 74 181 43 c 0
 181 14 155 -11 124 -11 c 0
 95 -11 70 14 70 43 c 0
 70 74 95 100 125 100 c 0
EndSplineSet
EndChar
StartChar: slash
Encoding: 15 47 16
Width: 278
Flags: W
HStem: -14 21G<-9 59> 656 20G<220 287>
Fore
287 676 m 1
 59 -14 l 1
 -9 -14 l 1
 220 676 l 1
 287 676 l 1
EndSplineSet
EndChar
StartChar: zero
Encoding: 16 48 17
Width: 500
Flags: W
HStem: -14 26<158 342> 650 26<158 342>
VStem: 24 96<270.5 390> 380 96<270.5 390>
Fore
250 650 m 0
 122 650 120 399 120 331 c 0
 120 250 122 12 250 12 c 0
 378 12 380 252 380 331 c 0
 380 399 378 650 250 650 c 0
250 676 m 0
 434 676 476 449 476 331 c 0
 476 210 434 -14 250 -14 c 0
 66 -14 24 210 24 331 c 0
 24 449 66 676 250 676 c 0
EndSplineSet
Substitution: 0 0 'sups' uni2070
Substitution: 0 0 'subs' uni2080
Substitution: 0 0 'onum' zerooldstyle
EndChar
StartChar: one
Encoding: 17 49 18
Width: 500
Flags: W
HStem: 0 15<118 394>
VStem: 213 86<50 674>
Fore
118 0 m 1
 118 15 l 1
 176 17 213 19 213 93 c 2
 213 546 l 2
 213 567 213 593 179 593 c 0
 167 593 167 593 111 571 c 1
 111 585 l 1
 291 676 l 1
 299 674 l 1
 299 74 l 2
 299 26 319 15 394 15 c 1
 394 0 l 1
 118 0 l 1
EndSplineSet
Substitution: 0 0 'sups' onesuperior
Substitution: 0 0 'subs' uni2081
Substitution: 0 0 'onum' oneoldstyle
EndChar
StartChar: two
Encoding: 18 50 19
Width: 500
Flags: W
HStem: 0 76<30 420> 602 74<149.5 288.5>
VStem: 338 86<421.5 552>
Fore
475 137 m 1
 420 0 l 1
 30 0 l 1
 30 12 l 1
 208 201 l 2
 295 294 338 384 338 459 c 0
 338 510 313 602 195 602 c 0
 104 602 74 526 52 472 c 1
 31 477 l 1
 61 628 155 676 243 676 c 0
 334 676 424 608 424 496 c 0
 424 390 340 299 296 252 c 2
 128 76 l 1
 367 76 l 2
 404 76 423 79 462 142 c 1
 475 137 l 1
EndSplineSet
Substitution: 0 0 'sups' twosuperior
Substitution: 0 0 'subs' uni2082
Substitution: 0 0 'onum' twooldstyle
EndChar
StartChar: three
Encoding: 19 51 20
Width: 500
Flags: W
HStem: -14 36<142 271.5> 616 60<162.5 305.5>
VStem: 318 79<466 561.5> 359 72<138.5 282>
Fore
153 330 m 1xd0
 152 343 l 1
 243 372 318 420 318 512 c 0
 318 563 282 616 208 616 c 0
 117 616 75 538 60 510 c 1
 45 514 l 1
 85 645 174 676 241 676 c 0
 370 676 397 582 397 541 c 0xe0
 397 487 370 444 304 401 c 1
 346 383 431 348 431 216 c 0
 431 74 311 -14 154 -14 c 0
 130 -14 43 -9 43 43 c 0
 43 71 66 78 82 78 c 0
 128 78 166 22 225 22 c 0
 318 22 359 101 359 176 c 0
 359 201 347 275 283 308 c 0
 247 327 222 332 153 330 c 1xd0
EndSplineSet
Substitution: 0 0 'sups' threesuperior
Substitution: 0 0 'subs' uni2083
Substitution: 0 0 'onum' threeoldstyle
EndChar
StartChar: four
Encoding: 20 52 21
Width: 500
Flags: W
HStem: 0 21G<293 370> 167 64<12 293 370 472> 656 20G<326 370>
VStem: 292 78<231 676>
Fore
472 231 m 1
 472 167 l 1
 370 167 l 1
 370 0 l 1
 293 0 l 1
 293 167 l 1
 12 167 l 1
 12 231 l 1
 326 676 l 1
 370 676 l 1
 370 231 l 1
 472 231 l 1
292 231 m 1
 292 574 l 1
 52 231 l 1
 292 231 l 1
EndSplineSet
Substitution: 0 0 'sups' uni2074
Substitution: 0 0 'subs' uni2084
Substitution: 0 0 'onum' fouroldstyle
EndChar
StartChar: five
Encoding: 21 53 22
Width: 500
Flags: W
HStem: -14 37<118.5 249.5> 583 79<174 383>
VStem: 356 70<140 281>
Fore
181 583 m 1
 139 498 l 1
 219 484 313 467 372 395 c 0
 415 343 426 314 426 225 c 0
 426 92 316 -14 158 -14 c 0
 79 -14 32 10 32 46 c 0
 32 56 32 85 72 85 c 0
 136 85 163 23 217 23 c 0
 282 23 356 79 356 201 c 0
 356 361 179 408 71 412 c 0
 65 412 62 418 65 425 c 2
 174 662 l 1
 383 662 l 2
 409 662 418 673 429 688 c 1
 438 681 l 1
 400 592 l 2
 396 583 388 583 377 583 c 2
 181 583 l 1
EndSplineSet
Substitution: 0 0 'sups' uni2075
Substitution: 0 0 'subs' uni2085
Substitution: 0 0 'onum' fiveoldstyle
EndChar
StartChar: six
Encoding: 22 54 23
Width: 500
Flags: W
HStem: -14 28<195 343> 382 46<225 337>
VStem: 34 93<172 392.5> 378 90<122.5 285>
Fore
446 684 m 1
 448 668 l 1
 270 640 171 505 152 383 c 1
 207 416 228 428 284 428 c 0
 390 428 468 352 468 218 c 0
 468 145 432 -14 254 -14 c 0
 136 -14 34 81 34 291 c 0
 34 494 204 676 446 684 c 1
242 382 m 0
 208 382 172 374 147 350 c 0
 137 340 127 316 127 256 c 0
 127 88 194 14 269 14 c 0
 332 14 378 66 378 179 c 0
 378 282 348 382 242 382 c 0
EndSplineSet
Substitution: 0 0 'sups' uni2076
Substitution: 0 0 'subs' uni2086
Substitution: 0 0 'onum' sixoldstyle
EndChar
StartChar: seven
Encoding: 23 55 24
Width: 500
Flags: W
HStem: -8 21G<172 237> 588 74<79 449>
Fore
449 662 m 1
 449 646 l 1
 237 -8 l 1
 172 -8 l 1
 370 588 l 1
 153 588 l 2
 98 588 80 575 37 507 c 1
 20 515 l 1
 79 662 l 1
 449 662 l 1
EndSplineSet
Substitution: 0 0 'sups' uni2077
Substitution: 0 0 'subs' uni2087
Substitution: 0 0 'onum' sevenoldstyle
EndChar
StartChar: eight
Encoding: 24 56 25
Width: 500
Flags: W
HStem: -14 28<191.5 308> 648 28<197.5 302>
VStem: 56 76<102.5 191> 355 69<500 575> 369 76<91.5 193.5>
Fore
290 371 m 1xf0
 411 281 445 232 445 155 c 0xe8
 445 52 368 -14 248 -14 c 0
 135 -14 56 54 56 151 c 0
 56 219 78 250 186 332 c 1
 81 424 62 453 62 518 c 0
 62 609 143 676 252 676 c 0
 352 676 424 616 424 534 c 0
 424 466 389 424 290 371 c 1xf0
272 268 m 2
 212 312 l 1
 154 265 132 223 132 159 c 0
 132 72 183 14 259 14 c 0
 324 14 369 59 369 124 c 0
 369 180 345 216 272 268 c 2
261 389 m 1
 265 392 265 392 270 395 c 0
 327 433 355 478 355 535 c 0xf0
 355 604 312 648 244 648 c 0
 181 648 136 607 136 549 c 0
 136 493 172 447 261 389 c 1
EndSplineSet
Substitution: 0 0 'sups' uni2078
Substitution: 0 0 'subs' uni2088
Substitution: 0 0 'onum' eightoldstyle
EndChar
StartChar: nine
Encoding: 25 57 26
Width: 500
Flags: W
HStem: 237 43<143 266.5> 648 28<175 301.5>
VStem: 30 92<394 514> 362 97<290 479.5>
Fore
59 -22 m 1
 56 -2 l 1
 298 38 353 265 359 290 c 1
 357 292 l 1
 313 255 260 237 210 237 c 0
 76 237 30 353 30 435 c 0
 30 568 110 676 240 676 c 0
 363 676 459 563 459 396 c 0
 459 184 313 -6 59 -22 c 1
362 355 m 2
 362 394 l 2
 362 453 362 648 229 648 c 0
 145 648 122 555 122 473 c 0
 122 397 144 280 250 280 c 0
 283 280 325 298 346 315 c 0
 359 325 362 337 362 355 c 2
EndSplineSet
Substitution: 0 0 'sups' uni2079
Substitution: 0 0 'subs' uni2089
Substitution: 0 0 'onum' nineoldstyle
EndChar
StartChar: semicolon
Encoding: 27 59 28
Width: 278
Flags: MW
HStem: -22 20G<165.5 170> 348 111<121 150.5>
VStem: 81 111<387.5 417.5> 180 39<-32 38>
Fore
136 459 m 0
 166 459 192 433 192 402 c 0x20
 192 373 166 348 135 348 c 0
 106 348 81 373 81 402 c 0
 81 433 106 459 136 459 c 0
107 -141 m 1
 98 -122 l 1
 152 -85 180 -48 180 -16 c 0x10
 180 -8 174 -2 166 -2 c 0
 165 -2 165 -2 158 -4 c 0
 152 -5 145 -6 139 -6 c 0
 102 -6 80 13 80 46 c 0
 80 80 104 102 139 102 c 0
 184 102 219 63 219 13 c 0
 219 -47 176 -107 107 -141 c 1
EndSplineSet
EndChar
StartChar: less
Encoding: 28 60 29
Width: 564
Flags: W
Fore
536 -10 m 1
 28 220 l 1
 28 286 l 1
 536 516 l 1
 536 444 l 1
 116 253 l 1
 536 62 l 1
 536 -10 l 1
EndSplineSet
EndChar
StartChar: equal
Encoding: 29 61 30
Width: 564
Flags: W
HStem: 120 66<30 534> 320 66<30 534>
Fore
534 386 m 1
 534 320 l 1
 30 320 l 1
 30 386 l 1
 534 386 l 1
534 186 m 1
 534 120 l 1
 30 120 l 1
 30 186 l 1
 534 186 l 1
EndSplineSet
EndChar
StartChar: greater
Encoding: 30 62 31
Width: 564
Flags: W
Fore
28 -10 m 1
 28 62 l 1
 448 253 l 1
 28 444 l 1
 28 516 l 1
 536 286 l 1
 536 220 l 1
 28 -10 l 1
EndSplineSet
EndChar
StartChar: question
Encoding: 31 63 32
Width: 444
Flags: MW
HStem: -8 107<222 251.5> 469 21G<100.5 128> 646 30<184 257>
VStem: 68 89<498 572.5> 184 107<29 59> 322 92<500.5 559.5>
Fore
244 164 m 1
 227 164 l 1
 228 208 238 257 257 306 c 1
 285 370 l 2
 309 425 322 480 322 526 c 0
 322 593 274 646 214 646 c 0
 165 646 119 616 119 584 c 0
 119 576 124 567 136 553 c 0
 151 536 157 524 157 510 c 0
 157 486 140 469 116 469 c 0
 85 469 68 491 68 531 c 0
 68 614 138 676 230 676 c 0
 284 676 343 653 378 618 c 0
 401 595 414 559 414 521 c 0
 414 480 401 444 369 395 c 0
 355 374 355 374 309 318 c 0
 272 271 255 231 244 164 c 1
237 99 m 0
 266 99 291 74 291 44 c 0
 291 14 268 -8 236 -8 c 0
 206 -8 184 14 184 43 c 0
 184 75 207 99 237 99 c 0
EndSplineSet
EndChar
StartChar: at
Encoding: 32 64 33
Width: 921
Flags: W
HStem: -14 39<379.5 525.5> 143 33<601 674.5> 144 43<384.5 465.5> 645 31<379.5 573.5>
VStem: 116 84<230 423.5> 321 71<224.5 299> 769 40<318.5 465.5>
Fore
688 73 m 1xde
 700 43 l 1
 603 -1 553 -14 483 -14 c 0
 276 -14 116 134 116 326 c 0
 116 521 278 676 481 676 c 0
 666 676 809 548 809 383 c 0
 809 254 724 143 625 143 c 0xde
 577 143 540 172 534 216 c 1
 500 171 453 144 409 144 c 0xbe
 360 144 321 193 321 256 c 0
 321 329 352 405 405 458 c 0
 439 492 474 508 517 508 c 0
 552 508 567 497 589 456 c 1
 599 494 l 1
 668 494 l 1
 603 240 l 1
 602 234 601 229 601 222 c 0
 601 191 614 176 640 176 c 0
 706 176 769 273 769 373 c 0
 769 522 639 645 482 645 c 0
 409 645 342 618 293 569 c 0
 236 510 200 416 200 323 c 0
 200 149 322 25 492 25 c 0
 559 25 610 38 688 73 c 1xde
531 464 m 0
 507 466 472 446 444 414 c 0
 410 376 392 326 392 272 c 0
 392 220 415 187 452 187 c 0xbe
 479 187 508 209 527 245 c 0
 553 292 570 351 572 399 c 0
 574 438 559 462 531 464 c 0
EndSplineSet
EndChar
StartChar: A
Encoding: 33 65 34
Width: 722
Flags: W
HStem: 0 19<15 213> 216 41<199 461> 654 20G<347 367>
AnchorPoint: "Ogonek" 637 0 basechar 0
AnchorPoint: "Bot" 360 0 basechar 0
AnchorPoint: "Top" 360 712 basechar 0
Fore
706 19 m 1
 706 0 l 1
 451 0 l 1
 451 19 l 1
 504 20 521 28 521 53 c 0
 521 67 514 93 502 120 c 2
 461 216 l 1
 199 216 l 1
 153 99 l 2
 148 86 145 72 145 60 c 0
 145 32 165 19 213 19 c 1
 213 0 l 1
 15 0 l 1
 15 19 l 1
 63 21 76.8184 36.2158 139 183 c 2
 347 674 l 1
 367 674 l 1
 616 106 l 2
 648.866 31.0283 661 22 706 19 c 1
216 257 m 1
 447 257 l 1
 331 532 l 1
 216 257 l 1
EndSplineSet
EndChar
StartChar: B
Encoding: 34 66 35
Width: 662
Flags: MW
HStem: 0 37<268.5 401.5> 326 39<210 263> 625 37<262.5 348.5>
VStem: 108 102<109 326 365 553 553 592> 452 102<417.5 564.5> 473 115<110.5 253.5>
Fore
588 176 m 0
 588 45 457 0 346 0 c 2
 12 0 l 1
 12 19 l 1
 88 20 108 32 108 109 c 6
 108 553 l 2
 108 631 88 640 12 643 c 1
 12 662 l 1
 292 662 l 2
 405 662 554 636 554 493 c 0
 554 403 500 368 421 349 c 1
 421 347 l 1
 512 328 588 278 588 176 c 0
452 487 m 0
 452 593 369 625 277 625 c 0
 248 625 210 634 210 595 c 2
 210 365 l 1
 304 366 452 348 452 487 c 0
473 180 m 0
 473 327 316 326 210 326 c 1
 210 78 l 6
 210 32 251 37 286 37 c 0
 384 37 473 64 473 180 c 0
EndSplineSet
EndChar
StartChar: C
Encoding: 35 67 36
Width: 667
Flags: W
HStem: -14 44<258.5 435.5> 451 21G<597 620> 636 7<348.5 555.5> 636 40<268.5 590>
VStem: 28 116<228.5 430>
AnchorPoint: "Bot" 370 0 basechar 0
AnchorPoint: "Top" 370 712 basechar 0
Fore
368 676 m 0xd8
 465.35 676 509.625 643 544 643 c 0xe8
 567 643 583 653 590 676 c 1
 611 676 l 1xd8
 620 451 l 1
 597 451 l 1
 571 562 494 636 377 636 c 0xe8
 320 636 268 613 227 575 c 0
 160 513 144 416 144 329 c 0
 144 174 217 30 389 30 c 0
 482 30 551 68 615 131 c 1
 633 113 l 1
 577 30 458 -14 362 -14 c 0
 155 -14 28 126 28 331 c 0
 28 529 169 676 368 676 c 0xd8
EndSplineSet
EndChar
StartChar: D
Encoding: 36 68 37
Width: 718
Flags: MW
HStem: 0 37<248.5 404> 625 37<236.5 395>
VStem: 104 102<109 553 553 586> 576 109<217 449.5>
AnchorPoint: "Bot" 260 0 basechar 0
AnchorPoint: "Top" 260 712 basechar 0
Fore
685 329 m 0
 685 105 508 0 300 0 c 2
 16 0 l 1
 16 19 l 1
 88 21 104 38 104 109 c 6
 104 553 l 2
 104 627 90 639 16 643 c 1
 16 662 l 1
 286 662 l 2
 504 662 685 570 685 329 c 0
576 328 m 0
 576 417 550 494 483 555 c 0
 417 615 339 625 253 625 c 0
 220 625 206 619 206 586 c 2
 206 78 l 6
 206 36 231 37 266 37 c 0
 456 37 576 123 576 328 c 0
EndSplineSet
EndChar
StartChar: E
Encoding: 37 69 38
Width: 611
Flags: MW
HStem: 0 41<12 552> 327 41<201 355> 443 20G<465 488> 621 41<12 543>
VStem: 99 102<109 327 368 553 553 587>
AnchorPoint: "Ogonek" 509 0 basechar 0
AnchorPoint: "Bot" 304 0 basechar 0
AnchorPoint: "Top" 304 712 basechar 0
Fore
355 368 m 2
 448.5 368 453.763 397.184 465 463 c 1
 488 463 l 1
 488 231 l 1
 465 231 l 1
 452 314 437 327 355 327 c 2
 201 327 l 1
 201 84 l 2
 201 46.375 200 41 256 41 c 2
 333 41 l 2
 476 41 519 61 569 169 c 1
 597 169 l 1
 552 0 l 1
 12 0 l 1
 12 19 l 1
 85 24 99 39 99 109 c 2
 99 553 l 2
 99 623 86 637 12 643 c 1
 12 662 l 1
 543 662 l 1
 546 516 l 1
 521 516 l 1
 504 606 482 621 369 621 c 2
 234 621 l 2
 207 621 201 615 201 587 c 2
 201 368 l 1
 355 368 l 2
EndSplineSet
EndChar
StartChar: F
Encoding: 38 70 39
Width: 556
Flags: W
HStem: 0 21G<12 292> 327 41<201 386.5> 443 20G<456 479> 621 41<12 543>
VStem: 99 102<78.5 601>
AnchorPoint: "Bot" 156 0 basechar 0
AnchorPoint: "Top" 279 712 basechar 0
Fore
479 231 m 1
 456 231 l 1
 444 312 427 327 346 327 c 2
 201 327 l 1
 201 109 l 2
 201 37 215 23 292 19 c 1
 292 0 l 1
 12 0 l 1
 12 19 l 1
 88 24 99 37 99 120 c 2
 99 553 l 2
 99 623 86 637 12 643 c 1
 12 662 l 1
 543 662 l 1
 546 516 l 1
 521 516 l 1
 504 606 482 621 369 621 c 2
 233 621 l 2
 206 621 201 615 201 587 c 2
 201 368 l 1
 346 368 l 2
 426 368 444 383 456 463 c 1
 479 463 l 1
 479 231 l 1
EndSplineSet
EndChar
StartChar: G
Encoding: 39 71 40
Width: 722
Flags: W
HStem: -14 40<327.5 445> 465 21G<607 630> 636 40<275 424.781>
VStem: 32 114<233 427> 542 97<56 288.5>
AnchorPoint: "Bot" 370 0 basechar 0
AnchorPoint: "Top" 370 712 basechar 0
Fore
542 247 m 2
 542 323.763 527.245 330.89 454 336 c 1
 454 354 l 1
 709 354 l 1
 709 336 l 1
 651 331 639 318 639 259 c 2
 639 56 l 1
 599 21 474 -14 388 -14 c 0
 278 -14 182 24 115 93 c 0
 59 152 32 227 32 325 c 0
 32 529 175 676 375 676 c 0
 474.562 676 519.562 643 555 643 c 0
 576 643 594 657 600 676 c 1
 622 676 l 1
 630 465 l 1
 607 465 l 1
 582 526 566 553 536 581 c 0
 497 617 448 636 392 636 c 0
 324 636 262 609 218 560 c 0
 174 511 146 420 146 326 c 0
 146 140 246 26 409 26 c 0
 481 26 542 53 542 85 c 2
 542 247 l 2
EndSplineSet
EndChar
StartChar: H
Encoding: 40 72 41
Width: 715
Flags: MW
HStem: 0 21G<12 290 417 695> 318 41<202 505> 642 20G<12 290 417 695>
VStem: 100 102<120 318 359 553> 505 102<78 318 109 589>
AnchorPoint: "Bot" 354 0 basechar 0
AnchorPoint: "Top" 354 712 basechar 0
Fore
202 359 m 1
 505 359 l 1
 505 553 l 2
 505 625 494 636 417 643 c 1
 417 662 l 1
 695 662 l 5
 695 643 l 1
 618 636 607 625 607 553 c 2
 607 109 l 2
 607 38 620 25 695 19 c 1
 695 0 l 1
 417 0 l 1
 417 19 l 1
 495 24 505 36 505 120 c 2
 505 318 l 1
 202 318 l 1
 202 109 l 2
 202 38 215 25 290 19 c 1
 290 0 l 1
 12 0 l 1
 12 19 l 1
 90 24 100 36 100 120 c 2
 100 553 l 2
 100 625 89 636 12 643 c 1
 12 662 l 1
 290 662 l 1
 290 643 l 1
 213 636 202 625 202 553 c 2
 202 359 l 1
EndSplineSet
EndChar
StartChar: I
Encoding: 41 73 42
Width: 329
Flags: MW
HStem: 0 21G<12 309> 642 20G<12 309>
VStem: 109 102<109 553>
AnchorPoint: "Ogonek" 264 0 basechar 0
AnchorPoint: "Bot" 160 0 basechar 0
AnchorPoint: "Top" 160 712 basechar 0
Fore
109 109 m 2
 109 553 l 2
 109 627 97 638 12 643 c 1
 12 662 l 1
 309 662 l 1
 309 643 l 1
 225 639 211 626 211 553 c 2
 211 109 l 2
 211 36 227 22 309 19 c 1
 309 0 l 1
 12 0 l 1
 12 19 l 1
 96 22 109 34 109 109 c 2
EndSplineSet
EndChar
StartChar: J
Encoding: 42 74 43
Width: 389
Flags: MW
HStem: -14 122<45.5 163> 642 20G<83 370>
VStem: 176 102<120.5 183 183 553>
AnchorPoint: "Bot" 154 -14 basechar 0
AnchorPoint: "Top" 226 712 basechar 0
Fore
278 553 m 2
 278 183 l 2
 278 58 217 -14 109 -14 c 0
 51 -14 10 16 10 58 c 0
 10 85 32 108 59 108 c 0
 85 108 101 92 111 57 c 0
 118 32 124 24 138 24 c 0
 164 24 176 45 176 90 c 2
 176 553 l 2
 176 626 165 637 83 643 c 1
 83 662 l 1
 370 662 l 1
 370 643 l 1
 289 637 278 626 278 553 c 2
EndSplineSet
EndChar
StartChar: K
Encoding: 43 75 44
Width: 700
Flags: W
HStem: 0 20<396 424> 642 20<391 417>
VStem: 102 102<78.5 589.5>
AnchorPoint: "Bot" 356 0 basechar 0
AnchorPoint: "Top" 356 712 basechar 0
Fore
391 643 m 1
 391 662 l 1
 653 662 l 1
 653 643 l 1
 585 638 567.868 631.164 501 565 c 2
 311 377 l 1
 544 127 l 2
 635 30 649 20 701 19 c 1
 701 0 l 1
 396 0 l 1
 396 19 l 1
 408 20 419 20 424 20 c 0
 452 21 466 28 466 42 c 0
 466 66 412 137 336 212 c 2
 230 317 l 1
 204 296 l 1
 204 109 l 2
 204 36 216 24 294 19 c 1
 294 0 l 1
 12 0 l 1
 12 19 l 1
 91 24 102 37 102 120 c 2
 102 553 l 2
 102 624 90 637 12 643 c 1
 12 662 l 1
 296 662 l 1
 296 643 l 1
 215 637 204 626 204 553 c 2
 204 348 l 1
 381 509 l 2
 436 560 459 590 459 612 c 0
 459 632 447 640 417 642 c 0
 413 642 403 642 391 643 c 1
EndSplineSet
EndChar
StartChar: L
Encoding: 44 76 45
Width: 611
Flags: MW
HStem: 0 39<250.5 550> 642 20G<12 294>
VStem: 99 102<109 553>
AnchorPoint: "Bot" 305 0 basechar 0
AnchorPoint: "Top" 150 712 basechar 0
Fore
573 174 m 1
 598 174 l 1
 550 0 l 1
 12 0 l 1
 12 19 l 1
 85 24 99 39 99 109 c 2
 99 553 l 2
 99 623 86 637 12 643 c 1
 12 662 l 1
 294 662 l 1
 294 643 l 1
 215 638 201 624 201 553 c 2
 201 80 l 2
 201 45 214 39 287 39 c 2
 354 39 l 2
 437 39 492 57 527 96 c 0
 542 113 556 136 573 174 c 1
EndSplineSet
EndChar
StartChar: M
Encoding: 45 77 46
Width: 883
Flags: MW
HStem: 0 21G<12 247 404 418 583 863> 642 20G<14 212 664 863>
VStem: 109 44<147 589.5> 674 102<120 553>
AnchorPoint: "Bot" 438 0 basechar 0
AnchorPoint: "Top" 438 712 basechar 0
Fore
674 573 m 1
 418 0 l 1
 404 0 l 1
 153 550 l 1
 153 147 l 2
 153 46 170 23 247 19 c 1
 247 0 l 1
 12 0 l 1
 12 19 l 1
 95 25 109 44 109 147 c 2
 109 553 l 2
 109 626 96 638 14 643 c 1
 14 662 l 1
 212 662 l 1
 443 157 l 1
 664 662 l 1
 863 662 l 1
 863 643 l 1
 789 637 776 624 776 553 c 2
 776 109 l 2
 776 38 790 24 863 19 c 1
 863 0 l 1
 583 0 l 1
 583 19 l 1
 662 24 674 37 674 120 c 2
 674 573 l 1
EndSplineSet
EndChar
StartChar: N
Encoding: 46 78 47
Width: 722
Flags: MW
HStem: 0 19<12 12 247 247> 643 19<12 183>
VStem: 109 44<147 588> 568 44<-11 515>
AnchorPoint: "Bot" 360 0 basechar 0
AnchorPoint: "Top" 360 712 basechar 0
Fore
612 -11 m 1
 595 -11 l 1
 153 539 l 1
 153 147 l 2
 153 46 170 23 247 19 c 1
 247 0 l 1
 12 0 l 1
 12 19 l 1
 95 25 109 44 109 147 c 2
 109 588 l 1
 69 635 55 643 12 643 c 1
 12 662 l 1
 183 662 l 1
 568 178 l 1
 568 515 l 2
 568 577 559 613 539 627 c 0
 524 636 510 640 472 643 c 1
 472 662 l 1
 707 662 l 1
 707 643 l 1
 669 639 655 635 641 625 c 0
 622 612 612 575 612 515 c 2
 612 -11 l 1
EndSplineSet
EndChar
StartChar: O
Encoding: 47 79 48
Width: 722
Flags: W
HStem: -14 36<261.5 460.5> 640 36<261.5 460.5>
VStem: 34 114<233 427> 574 114<233 427>
AnchorPoint: "VietHorn" 532 620 basechar 0
AnchorPoint: "Ogonek" 426 0 basechar 0
AnchorPoint: "Bot" 361 0 basechar 0
AnchorPoint: "Top" 361 712 basechar 0
Fore
688 330 m 0
 688 136 560 -14 361 -14 c 0
 162 -14 34 136 34 330 c 0
 34 524 162 676 361 676 c 0
 560 676 688 524 688 330 c 0
574 331 m 0
 574 465 525 640 361 640 c 0
 197 640 148 465 148 331 c 0
 148 195 195 22 361 22 c 0
 527 22 574 195 574 331 c 0
EndSplineSet
EndChar
StartChar: P
Encoding: 48 80 49
Width: 552
Flags: W
HStem: 0 21G<12 292> 288 40<245 342.5> 625 37<218.5 323>
VStem: 96 102<78 604.5> 429 109<413.5 555.5>
AnchorPoint: "Bot" 150 0 basechar 0
AnchorPoint: "Top" 275 712 basechar 0
Fore
267 288 m 0
 241 288 224 289 198 291 c 1
 198 109 l 2
 198 36 213 22 292 19 c 1
 292 0 l 1
 12 0 l 1
 12 19 l 1
 88 26 96 36 96 120 c 2
 96 553 l 2
 96 625 86 635 12 643 c 1
 12 662 l 1
 276 662 l 2
 370 662 538 630 538 481 c 0
 538 346 418 288 267 288 c 0
198 591 m 2
 198 331 l 1
 221 329 235 328 255 328 c 0
 370 328 429 378 429 475 c 0
 429 578 367 625 232 625 c 0
 205 625 198 618 198 591 c 2
EndSplineSet
EndChar
StartChar: Q
Encoding: 49 81 50
Width: 722
Flags: W
HStem: -178 19<593 701> 640 36<261.5 460.5>
VStem: 34 114<254.5 426.5> 574 114<251.5 427>
AnchorPoint: "Bot" 368 -178 basechar 0
AnchorPoint: "Top" 368 712 basechar 0
Fore
701 -177 m 1
 685 -178 670 -178 654 -178 c 0
 532 -178 396 -152 312 -56 c 0
 296 -38 281 -19 265 -1 c 1
 113 40 34 179 34 330 c 0
 34 523 162 676 361 676 c 0
 560 676 688 524 688 330 c 0
 688 173 592 13 426 -7 c 1
 442 -32 482 -71 505 -90 c 0
 562 -137 627 -157 701 -159 c 1
 701 -177 l 1
574 330 m 0
 574 465 525 640 361 640 c 0
 197 640 148 465 148 330 c 0
 148 194 196 22 361 22 c 0
 526 22 574 194 574 330 c 0
EndSplineSet
EndChar
StartChar: R
Encoding: 50 82 51
Width: 662
Flags: W
HStem: 0 21G<12 289 493 654> 625 37<230 335>
VStem: 97 102<78.5 603> 433 109<417 562>
AnchorPoint: "Bot" 333 0 basechar 0
AnchorPoint: "Top" 275 712 basechar 0
Fore
361 319 m 1
 567 66 l 2
 596 32 616 22 654 19 c 1
 654 0 l 1
 493 0 l 1
 255 308 l 1
 199 306 l 1
 199 109 l 2
 199 37 212 24 289 19 c 1
 289 0 l 1
 12 0 l 1
 12 19 l 1
 87 25 97 37 97 120 c 2
 97 553 l 2
 97 624 87 635 12 643 c 1
 12 662 l 1
 288 662 l 2
 382 662 542 638 542 486 c 0
 542 362 428 332 361 319 c 1
433 488 m 0
 433 582 375 625 250 625 c 0
 210 625 199 617 199 589 c 2
 199 343 l 1
 295 345 433 346 433 488 c 0
EndSplineSet
EndChar
StartChar: S
Encoding: 51 83 52
Width: 556
Flags: MW
HStem: -14 36<247.5 302.5> 635 41<230.5 279>
VStem: 71 86<402.5 571> 390 101<99 269.5>
AnchorPoint: "Bot" 266 0 basechar 0
AnchorPoint: "Top" 266 712 basechar 0
Fore
491 167 m 0
 491 51 387 -14 280 -14 c 0
 215 -14 159 20 125 20 c 0
 106 20 93 5 94 -13 c 1
 72 -13 l 1
 42 199 l 1
 65 199 l 1
 102 107 159 22 270 22 c 0
 335 22 390 65 390 133 c 0
 390 307 71 299 71 506 c 0
 71 611 151 676 252 676 c 0
 306 676 358 642 391 642 c 0
 411 642 425 657 426 676 c 1
 447 676 l 1
 469 463 l 1
 444 463 l 1
 425 554 356 635 258 635 c 0
 203 635 157 600 157 542 c 0
 157 391 491 372 491 167 c 0
EndSplineSet
EndChar
StartChar: T
Encoding: 52 84 53
Width: 611
Flags: MW
HStem: 0 21G<160 452> 620 42<144 200 200 254 356 356 356 410>
VStem: 254 102<120 620>
AnchorPoint: "Bot" 305 0 basechar 0
AnchorPoint: "Top" 305 712 basechar 0
Fore
254 620 m 1
 200 620 l 2
 88 620 65 601 41 492 c 1
 17 492 l 1
 23 662 l 1
 587 662 l 1
 593 492 l 1
 569 492 l 1
 546 602 524 620 410 620 c 2
 356 620 l 1
 356 109 l 2
 356 36 370 23 452 19 c 1
 452 0 l 1
 160 0 l 1
 160 19 l 1
 243 24 254 35 254 120 c 2
 254 620 l 1
EndSplineSet
EndChar
StartChar: U
Encoding: 53 85 54
Width: 722
Flags: MW
HStem: -14 44<270 415.5> 642 20G<14 297 473 705>
VStem: 104 102<241 553> 567 44<245 566>
AnchorPoint: "VietHorn" 640 624 basechar 0
AnchorPoint: "Ogonek" 463 0 basechar 0
AnchorPoint: "Bot" 360 0 basechar 0
AnchorPoint: "Top" 360 712 basechar 0
Fore
611 515 m 2
 611 254 l 2
 611 177 602 131 578 89 c 0
 539 21 464 -14 355 -14 c 0
 185 -14 104 68 104 241 c 2
 104 553 l 2
 104 626 93 637 14 643 c 1
 14 662 l 1
 297 662 l 1
 297 643 l 1
 217 636 206 625 206 553 c 2
 206 233 l 2
 206 170 213 133 231 101 c 0
 258 54 307 30 378 30 c 0
 453 30 517 61 544 109 c 0
 560 139 567 177 567 245 c 2
 567 515 l 2
 567 615 551 637 473 643 c 1
 473 662 l 1
 705 662 l 1
 705 643 l 1
 623 633 611 617 611 515 c 2
EndSplineSet
EndChar
StartChar: V
Encoding: 54 86 55
Width: 722
Flags: W
HStem: -11 21G<368 383> 641 21<253 282>
AnchorPoint: "Bot" 356 0 basechar 0
AnchorPoint: "Top" 356 712 basechar 0
Fore
697 662 m 1
 697 643 l 1
 649 640 636.503 629.608 605 550 c 2
 383 -11 l 1
 368 -11 l 1
 122 538 l 2
 81.582 628.202 65 641 16 643 c 1
 16 662 l 1
 282 662 l 1
 282 643 l 1
 268 642 257 641 253 641 c 0
 221 639 207 629 207 610 c 0
 207 595 215 572 248 499 c 2
 399 161 l 1
 546 528 l 2
 558 558 565 585 565 601 c 0
 565 629 547 640 492 643 c 1
 492 662 l 1
 697 662 l 1
EndSplineSet
EndChar
StartChar: W
Encoding: 55 87 56
Width: 944
Flags: W
HStem: -11 21G<301 316 630 645> 643 19<313 580>
AnchorPoint: "Bot" 468 0 basechar 0
AnchorPoint: "Top" 468 712 basechar 0
Fore
932 643 m 1
 887 636 870 624 853 582 c 0
 777 388 706 188 645 -11 c 1
 630 -11 l 1
 582 132 525 272 470 412 c 1
 316 -11 l 1
 301 -11 l 1
 241 169 176 349 108 526 c 0
 87 581 73 638 5 643 c 1
 5 662 l 1
 250 662 l 1
 250 643 l 1
 226 642 185 642 185 609 c 0
 185 594 191 579 196 565 c 2
 340 189 l 1
 447 471 l 1
 414 553 l 2
 390 612 381 643 313 643 c 1
 313 662 l 1
 580 662 l 1
 580 643 l 1
 554 643 503 642 503 605 c 0
 503 586 523 545 530 527 c 2
 662 186 l 1
 787 525 l 2
 795 547 803 574 803 597 c 0
 803 637 765 641 734 643 c 1
 734 662 l 1
 932 662 l 1
 932 643 l 1
EndSplineSet
EndChar
StartChar: X
Encoding: 56 88 57
Width: 722
Flags: W
HStem: 0 21<407 434> 642 20<296 324>
AnchorPoint: "Bot" 357 0 basechar 0
AnchorPoint: "Top" 357 712 basechar 0
Fore
696 662 m 5
 696 643 l 1
 632 639 610.533 628.199 547 549 c 2
 401 367 l 1
 593 93 l 2
 634.434 33.8711 651 25 704 19 c 1
 704 0 l 1
 407 0 l 1
 407 19 l 1
 419 20 430 21 434 21 c 0
 468 22 484 32 484 50 c 0
 484 65 466 99 433 148 c 2
 338 288 l 1
 219 140 l 2
 182 94 167 69 167 54 c 0
 167 31 185 23 243 19 c 1
 243 0 l 1
 10 0 l 1
 10 19 l 1
 61 23 67.6572 25.6299 155 133 c 2
 312 326 l 1
 203 486 l 2
 107.246 626.557 87 640 22 643 c 1
 22 662 l 1
 324 662 l 1
 324 643 l 1
 296 642 l 2
 263 641 248 633 248 613 c 0
 248 591 272 548 333 463 c 2
 375 404 l 1
 488 542 l 2
 517 578 528 596 528 611 c 0
 528 634 512 641 458 643 c 1
 458 662 l 1
 696 662 l 5
EndSplineSet
EndChar
StartChar: Y
Encoding: 57 89 58
Width: 722
Flags: W
HStem: 0 21G<214 520> 642 20<277 302>
AnchorPoint: "Bot" 362 0 basechar 0
AnchorPoint: "Top" 362 712 basechar 0
Fore
703 662 m 1
 703 643 l 1
 652 639 623.66 618.576 565 529 c 2
 417 303 l 1
 417 109 l 2
 417 33 431 21 520 19 c 1
 520 0 l 1
 214 0 l 1
 214 19 l 1
 305 23 315 33 315 120 c 2
 315 294 l 1
 184 486 l 2
 86.5752 628.791 70 641 22 643 c 1
 22 662 l 1
 302 662 l 1
 302 643 l 1
 291 642 281 642 277 642 c 0
 245 640 231 631 231 613 c 0
 231 602 237 585 248 569 c 2
 396 347 l 1
 539 573 l 2
 548 588 553 600 553 610 c 0
 553 634 536 642 484 643 c 1
 484 662 l 1
 703 662 l 1
EndSplineSet
EndChar
StartChar: Z
Encoding: 58 90 59
Width: 611
Flags: W
HStem: 0 38<9 573> 624 38<51 577>
AnchorPoint: "Bot" 303 0 basechar 0
AnchorPoint: "Top" 303 712 basechar 0
Fore
402 38 m 2
 537.45 38 553.843 109.6 574 176 c 1
 597 176 l 1
 573 0 l 1
 9 0 l 1
 9 15 l 1
 446 624 l 1
 225 624 l 2
 83.25 624 69.4644 558.862 57 491 c 1
 31 491 l 1
 51 662 l 1
 577 662 l 1
 577 647 l 1
 145 38 l 1
 402 38 l 2
EndSplineSet
EndChar
StartChar: bracketleft
Encoding: 59 91 60
Width: 333
Flags: W
HStem: -156 25<213 299> 637 25<88 299>
VStem: 88 76<-156 662>
Fore
299 -131 m 1
 299 -156 l 1
 88 -156 l 1
 88 662 l 1
 299 662 l 1
 299 637 l 1
 209 637 l 2
 177 637 164 624 164 593 c 2
 164 -79 l 2
 164 -114 180 -131 213 -131 c 2
 299 -131 l 1
EndSplineSet
EndChar
StartChar: backslash
Encoding: 60 92 61
Width: 278
Flags: W
HStem: -14 21G<219 287> 656 20G<-9 58>
Fore
-9 676 m 1
 58 676 l 1
 287 -14 l 1
 219 -14 l 1
 -9 676 l 1
EndSplineSet
EndChar
StartChar: bracketright
Encoding: 61 93 62
Width: 333
Flags: W
HStem: -156 25<34 245> 637 25<34 136.5>
VStem: 169 76<-156 662>
Fore
34 -131 m 1
 124 -131 l 2
 155 -131 169 -118 169 -87 c 2
 169 585 l 2
 169 620 153 637 120 637 c 2
 34 637 l 1
 34 662 l 1
 245 662 l 1
 245 -156 l 1
 34 -156 l 1
 34 -131 l 1
EndSplineSet
EndChar
StartChar: underscore
Encoding: 63 95 64
Width: 500
Flags: W
HStem: -125 50<0 500>
Fore
500 -125 m 1
 0 -125 l 1
 0 -75 l 1
 500 -75 l 1
 500 -125 l 1
EndSplineSet
EndChar
StartChar: sigma
Encoding: 446 963 65
Width: 534
Flags: W
HStem: -10 29<198 327.5> 396 53<427.5 491.5> 432 29<200.5 305.5>
VStem: 41 92<157.5 297.5> 385 92<146 255>
AnchorPoint: "Bot" 283 0 basechar 0
Fore
525 479 m 1xd8
 523 442 515 396 468 396 c 0xd8
 441 396 414 397 387 401 c 1
 385 399 l 1
 441 357 477 290 477 220 c 0
 477 98 391 -10 264 -10 c 0
 132 -10 41 93 41 222 c 0
 41 359 131 461 271 461 c 0xb8
 334 461 396 449 459 449 c 0
 480 449 509 452 512 479 c 1
 525 479 l 1xd8
385 188 m 0
 385 278 365 432 246 432 c 0xb8
 155 432 133 334 133 261 c 0
 133 173 144 19 264 19 c 0
 365 19 385 104 385 188 c 0
EndSplineSet
Substitution: 0 0 'ss01' sigmalunatesymbolgreek
Substitution: 0 0 'salt' sigmalunatesymbolgreek
EndChar
StartChar: a
Encoding: 65 97 66
Width: 444
Flags: W
HStem: -10 57<330 406> 436 24<188 277.5>
VStem: 37 88<63.5 167.5> 56 88<336 387.5> 287 81<105 353>
AnchorPoint: "Ogonek" 373 0 basechar 0
AnchorPoint: "Bot" 240 0 basechar 0
AnchorPoint: "Top" 240 500 basechar 0
Fore
442 40 m 1xd8
 418 12 391 -10 353 -10 c 0
 307 -10 291 19 288 63 c 1
 249 28 198 -10 143 -10 c 0
 83 -10 37 33 37 94 c 0xe8
 37 214 197 257 287 292 c 1
 287 353 l 2
 287 404 262 436 210 436 c 0
 182 436 139 421 139 387 c 0
 139 374 144 361 144 348 c 0
 144 324 122 305 99 305 c 0
 75 305 56 325 56 349 c 0
 56 426 157 460 219 460 c 0
 336 460 368 406 368 300 c 2
 368 105 l 2
 368 83 366 47 397 47 c 0
 415 47 429 55 442 66 c 1
 442 40 l 1xd8
287 123 m 2
 287 268 l 1
 221 246 125 209 125 126 c 0
 125 87 148 48 191 48 c 0
 209 48 237 58 253 66 c 0
 282 81 287 91 287 123 c 2
EndSplineSet
EndChar
StartChar: b
Encoding: 66 98 67
Width: 500
Flags: W
HStem: -10 32<194 300> 397 63<226 342>
VStem: 69 84<54 681> 380 88<141.5 304.5>
AnchorPoint: "Bot" 236 0 basechar 0
AnchorPoint: "Top" 119 733 basechar 0
Fore
153 681 m 1
 153 375 l 1
 173 424 231 460 292 460 c 0
 392 460 468 366 468 243 c 0
 468 100 366 -10 234 -10 c 0
 154 -10 69 23 69 54 c 2
 69 573 l 2
 69 615 60 624 20 624 c 0
 13 624 9 624 3 623 c 1
 3 639 l 1
 32 647 l 2
 79 660 106 668 148 683 c 1
 153 681 l 1
153 322 m 2
 153 70 l 2
 153 45 198 22 250 22 c 0
 332 22 380 86 380 197 c 0
 380 319 330 397 252 397 c 0
 200 397 153 361 153 322 c 2
EndSplineSet
EndChar
StartChar: c
Encoding: 67 99 68
Width: 444
Flags: W
HStem: -10 72<159.5 285.5> 431 29<188.566 286>
VStem: 25 77<148 308.5>
AnchorPoint: "Bot" 240 0 basechar 0
AnchorPoint: "Top" 240 500 basechar 0
Fore
398 156 m 1
 412 147 l 1
 391.22 106.132 338 -10 215 -10 c 0
 104 -10 25 83 25 213 c 0
 25 366.989 133.131 460 244 460 c 0
 328 460 398 413 398 357 c 0
 398 334 376 315 350 315 c 0
 329 315 311 333 303 361 c 2
 297 383 l 2
 287 420 274 431 238 431 c 0
 157 431 102 360 102 257 c 0
 102 142 166 62 257 62 c 0
 314 62 350 86 398 156 c 1
EndSplineSet
EndChar
StartChar: d
Encoding: 68 100 69
Width: 500
Flags: W
HStem: -10 52<157 265.5> 432 28<177.5 264.5>
VStem: 27 86<141 301.5> 340 84<91 681 98.5 332 114 681>
AnchorPoint: "Bot" 259 0 basechar 0
AnchorPoint: "Top" 375 733 basechar 0
Fore
344 -10 m 1
 340 -7 l 1
 340 57 l 1
 306 10 268 -10 212 -10 c 0
 102 -10 27 77 27 205 c 0
 27 347 120 460 235 460 c 0
 275 460 302 449 340 417 c 1
 340 573 l 2
 340 614 331 624 294 624 c 0
 286 624 280 624 272 623 c 1
 272 639 l 1
 336 656 371 666 419 683 c 1
 424 681 l 1
 424 114 l 2
 424 68 432 57 468 57 c 0
 471 57 473 57 491 58 c 1
 491 42 l 1
 344 -10 l 1
340 102 m 2
 340 332 l 2
 340 385 291 432 238 432 c 0
 162 432 113 358 113 245 c 0
 113 122 168 42 251 42 c 0
 280 42 305 52 323 72 c 0
 333 83 340 95 340 102 c 2
EndSplineSet
EndChar
StartChar: e
Encoding: 69 101 70
Width: 444
Flags: W
HStem: -10 69<154.5 285> 277 32<97 405> 424 36<173.259 260>
VStem: 25 72<145 288.377>
AnchorPoint: "Ogonek" 304 0 basechar 0
AnchorPoint: "Bot" 224 0 basechar 0
AnchorPoint: "Top" 224 500 basechar 0
Fore
25 214 m 0
 25 362.753 112.519 460 234 460 c 0
 286 460 332 439 362 403 c 0
 387 371 397 342 405 277 c 1
 97 277 l 1
 99 216 106 183 124 145 c 0
 153 88 196 59 253 59 c 0
 317 59 360 88 408 164 c 1
 424 157 l 1
 382 49 307 -10 212 -10 c 0
 97 -10 25 76 25 214 c 0
99 309 m 1
 303 309 l 1
 290 396 266 424 205 424 c 0
 144 424 110 387 99 309 c 1
EndSplineSet
EndChar
StartChar: f
Encoding: 70 102 71
Width: 333
Flags: W
HStem: 0 21G<20 280> 418 32<21 103 186 309> 655 28<224 309>
VStem: 103 83<450 595>
AnchorPoint: "Bot" 147 0 basechar 0
AnchorPoint: "Top" 274 733 basechar 0
Fore
309 450 m 1
 309 418 l 1
 187 418 l 1
 187 104 l 2
 187 29 198 18 280 15 c 1
 280 0 l 1
 20 0 l 1
 20 15 l 1
 92 19 103 31 103 104 c 2
 103 418 l 1
 21 418 l 1
 21 450 l 1
 103 450 l 1
 104 530 112 566 138 610 c 0
 164 656 217 683 279 683 c 0
 339 683 383 657 383 621 c 0
 383 598 364 580 341 580 c 0
 324 580 312 590 296 616 c 0
 278 645 264 655 243 655 c 0
 205 655 186 624 186 566 c 2
 186 450 l 1
 309 450 l 1
EndSplineSet
EndChar
StartChar: g
Encoding: 71 103 72
Width: 500
Flags: W
HStem: -218 57<177.5 300.5> -15 73<284.5 354.5> 149 25<214 288.5> 388 39<387 470> 432 28<192 263.5>
VStem: 28 70<-158.5 -76.5> 69 83<262 366> 73 60<39.5 100.5> 329 77<246.5 314.5> 433 28<-105 -14>
AnchorPoint: "Bot" 249 -218 basechar 0
AnchorPoint: "Top" 249 500 basechar 0
Fore
470 388 m 1xfac0
 387 388 l 1
 402 354 406 333 406 296 c 0
 406 209 330 149 247 149 c 0
 229 149 211 154 193 154 c 0
 174 154 133 110 133 91 c 0xf9c0
 133 66 194 65 211 64 c 2
 340 58 l 2
 404 55 461 21 461 -49 c 0
 461 -161 297 -218 205 -218 c 0
 150 -218 28 -196 28 -121 c 0xfcc0
 28 -70 89 -25 126 1 c 1
 104 12 73 25 73 54 c 0xf9c0
 73 91 138 142 162 163 c 1
 108 187 69 231 69 293 c 0
 69 393 143 460 241 460 c 0
 279 460 303 449 338 437 c 0
 380 422 426 427 470 427 c 1
 470 388 l 1xfac0
329 270 m 0
 329 329 300 432 227 432 c 0
 175 432 152 390 152 342 c 0xfac0
 152 276 172 174 256 174 c 0
 311 174 329 223 329 270 c 0
147 -2 m 1
 105 -52 98 -65 98 -88 c 0xfcc0
 98 -132 156 -161 244 -161 c 0
 357 -161 433 -122 433 -64 c 0
 433 -28 400 -15 309 -15 c 0
 260 -15 180 -9 147 -2 c 1
EndSplineSet
EndChar
StartChar: h
Encoding: 72 104 73
Width: 500
Flags: W
HStem: 0 21G<9 225 275 487> 406 54<248.5 344.5>
VStem: 73 84<102 680> 343 84<102 353.5>
AnchorPoint: "Bot" 248 0 basechar 0
AnchorPoint: "Top" 200 733 basechar 0
Fore
157 343 m 1
 157 102 l 2
 157 33 167 21 225 15 c 1
 225 0 l 1
 9 0 l 1
 9 15 l 1
 67 23 73 32 73 102 c 2
 73 573 l 2
 73 616 65 624 22 624 c 0
 17 624 14 624 10 623 c 1
 10 639 l 1
 37 647 l 2
 93 663 118 671 152 683 c 1
 157 680 l 1
 157 376 l 1
 203 436 245 460 304 460 c 0
 385 460 427 406 427 301 c 2
 427 102 l 2
 427 33 433 25 487 15 c 1
 487 0 l 1
 275 0 l 1
 275 15 l 1
 333 21 343 34 343 102 c 2
 343 300 l 2
 343 370 318 406 268 406 c 0
 229 406 199 389 157 343 c 1
EndSplineSet
EndChar
StartChar: k
Encoding: 75 107 76
Width: 500
Flags: W
HStem: 0 16<221 241> 435 15<276 480>
VStem: 82 84<56 681>
AnchorPoint: "Bot" 256 0 basechar 0
AnchorPoint: "Top" 132 733 basechar 0
Fore
7 623 m 1
 7 639 l 1
 37 647 l 2
 95 663 124 671 162 683 c 1
 166 681 l 1
 166 261 l 1
 303 383 l 2
 317 395 326 409 326 417 c 0
 326 431 315 435 276 436 c 1
 276 450 l 1
 480 450 l 1
 480 435 l 1
 472 435 l 2
 455 435 441 433 426 429 c 0
 397 421 335 375 264 309 c 2
 235 282 l 1
 388 88 l 1
 430 37 461 18 505 15 c 1
 505 0 l 1
 287 0 l 1
 287 15 l 1
 306 15 l 2
 318 15 327 21 327 30 c 0
 327 40.2 314.308 51.539 306 64 c 2
 166 251 l 1
 166 67 l 2
 166 32 181 18 221 16 c 2
 241 15 l 1
 241 0 l 1
 7 0 l 1
 7 15 l 1
 79 27 82 30 82 82 c 2
 82 564 l 2
 82 612 72 625 39 625 c 0
 29 625 20 624 7 623 c 1
EndSplineSet
EndChar
StartChar: l
Encoding: 76 108 77
Width: 278
Flags: W
HStem: 0 21G<21 257>
VStem: 98 84<56.5 681>
AnchorPoint: "Bot" 138 0 basechar 0
AnchorPoint: "Top" 138 733 basechar 0
Fore
19 623 m 1
 19 639 l 1
 88 656 126 666 178 683 c 1
 182 681 l 1
 182 84 l 2
 182 29 194 19 257 15 c 1
 257 0 l 1
 21 0 l 1
 21 15 l 1
 84 20 98 33 98 87 c 2
 98 564 l 2
 98 611 88 625 56 625 c 0
 48 625 36 624 25 623 c 2
 19 623 l 1
EndSplineSet
EndChar
StartChar: m
Encoding: 77 109 78
Width: 778
Flags: W
HStem: 0 21G<16 238 286 510 556 775> 408 52<270.5 348 524 628.5>
VStem: 86 84<67 362> 354 84<86 347> 622 84<76 341>
CounterMasks: 1 00
AnchorPoint: "Bot" 396 0 basechar 0
AnchorPoint: "Top" 396 500 basechar 0
Fore
19 398 m 1
 19 415 l 1
 74 430 108 441 159 460 c 1
 166 458 l 1
 166 383 l 1
 249 446 277 460 321 460 c 0
 375 460 409 433 427 376 c 1
 481 434 532 460 590 460 c 0
 667 460 706 400 706 282 c 2
 706 76 l 2
 706 37 719 19 749 17 c 2
 775 15 l 1
 775 0 l 1
 556 0 l 1
 556 15 l 1
 614 22 622 30 622 87 c 2
 622 298 l 2
 622 381 604 408 547 408 c 0
 501 408 468 390 438 347 c 1
 438 95 l 2
 438 33 453 16 510 15 c 1
 510 0 l 1
 286 0 l 1
 286 15 l 1
 343 19 354 30 354 86 c 2
 354 303 l 2
 354 373 332 408 288 408 c 0
 253 408 210 391 185 368 c 0
 178 361 170 351 170 349 c 2
 170 67 l 2
 170 28 185 17 238 15 c 1
 238 0 l 1
 16 0 l 1
 16 15 l 1
 72 16 86 31 86 85 c 2
 86 338 l 2
 86 386 77 402 51 402 c 0
 40 402 32 401 19 398 c 1
EndSplineSet
EndChar
StartChar: n
Encoding: 78 110 79
Width: 500
Flags: W
HStem: 0 21G<18 230 277 485> 405 55<250.5 343>
VStem: 80 84<67 362.5> 340 84<81 357>
AnchorPoint: "Bot" 250 0 basechar 0
AnchorPoint: "Top" 250 500 basechar 0
Fore
16 398 m 1
 16 415 l 1
 71 431 105 442 154 460 c 1
 161 458 l 1
 161 379 l 1
 229 443 260 460 306 460 c 0
 380 460 424 404 424 310 c 2
 424 81 l 2
 424 32 436 20 485 15 c 1
 485 0 l 5
 277 0 l 1
 277 15 l 1
 327 19 340 36 340 99 c 2
 340 308 l 2
 340 374 316 405 267 405 c 0
 234 405 212 393 164 348 c 1
 164 67 l 2
 164 31 179 19 230 15 c 1
 230 0 l 1
 18 0 l 1
 18 15 l 1
 69 19 80 33 80 90 c 2
 80 338 l 2
 80 387 71 402 43 402 c 0
 32 402 22 401 16 398 c 1
EndSplineSet
EndChar
StartChar: o
Encoding: 79 111 80
Width: 500
Flags: W
HStem: -10 28<180.5 313> 432 28<179.5 314.5>
VStem: 29 90<163.5 312.5> 380 90<161.5 296.5>
AnchorPoint: "VietHorn" 382 410 basechar 0
AnchorPoint: "Ogonek" 294 0 basechar 0
AnchorPoint: "Bot" 250 0 basechar 0
AnchorPoint: "Top" 250 500 basechar 0
Fore
470 228 m 0
 470 103 378 -10 248 -10 c 0
 113 -10 29 99 29 228 c 0
 29 354 114 460 245 460 c 0
 384 460 470 365 470 228 c 0
380 199 m 0
 380 285 348 432 237 432 c 0
 152 432 119 349 119 276 c 0
 119 188 147 18 262 18 c 0
 356 18 380 124 380 199 c 0
EndSplineSet
EndChar
StartChar: p
Encoding: 80 112 81
Width: 500
Flags: W
HStem: -217 21G<5 247> -10 32<239 319> 400 60<238 351.5>
VStem: 75 84<-157 360.5 -131 381> 384 86<152.5 309>
AnchorPoint: "Bot" 121 -217 basechar 0
AnchorPoint: "Top" 238 500 basechar 0
Fore
9 393 m 1
 9 409 l 1
 64 426 99 439 153 460 c 1
 159 458 l 1
 159 381 l 1
 203 435 247 460 303 460 c 0
 400 460 470 371 470 247 c 0
 470 102 378 -10 260 -10 c 0
 218 -10 194 0 159 33 c 1
 159 -124 l 2
 159 -187 172 -198 247 -199 c 1
 247 -217 l 1
 5 -217 l 1
 5 -200 l 1
 64 -194 75 -183 75 -131 c 2
 75 337 l 2
 75 384 68 394 34 394 c 0
 25 394 18 394 9 393 c 1
159 334 m 2
 159 88 l 2
 159 58 216 22 263 22 c 0
 335 22 384 97 384 208 c 0
 384 324 335 400 261 400 c 0
 215 400 159 364 159 334 c 2
EndSplineSet
EndChar
StartChar: q
Encoding: 81 113 82
Width: 500
Flags: W
HStem: -217 21G<252 488> -10 61<127 246.5> 432 28<180 279>
VStem: 24 86<160 280.5> 341 84<-165 456>
AnchorPoint: "Bot" 372 -217 basechar 0
AnchorPoint: "Top" 256 500 basechar 0
Fore
488 -217 m 1
 252 -217 l 1
 252 -200 l 1
 311 -198 341 -187 341 -124 c 2
 341 62 l 1
 336 62 l 1
 312 21 233 -10 188 -10 c 0
 66 -10 24 108 24 212 c 0
 24 339 113 460 247 460 c 0
 295 460 320 448 360 425 c 1
 377 435 403 455 421 460 c 1
 425 456 l 1
 425 -141 l 2
 425 -189 445 -194 488 -203 c 1
 488 -217 l 1
341 127 m 2
 341 333 l 2
 341 397 313 432 245 432 c 0
 142 432 110 323 110 238 c 0
 110 159 142 51 238 51 c 0
 255 51 272 54 288 60 c 0
 328 75 341 84 341 127 c 2
EndSplineSet
EndChar
StartChar: r
Encoding: 82 114 83
Width: 344
Flags: W
HStem: 0 21G<16 256> 362 98<270 319>
VStem: 87 84<84 366>
AnchorPoint: "Bot" 129 0 basechar 0
AnchorPoint: "Top" 181 500 basechar 0
Fore
18 390 m 1
 18 406 l 1
 77 425 113 438 166 460 c 1
 171 458 l 1
 171 366 l 1
 220 437 249 460 291 460 c 0
 325 460 346 440 346 407 c 0
 346 379 331 362 307 362 c 0
 294 362 283 368 267 382 c 0
 256 392 247 397 241 397 c 0
 214 397 171 347 171 315 c 2
 171 90 l 2
 171 33 188 18 256 15 c 1
 256 0 l 1
 16 0 l 1
 16 15 l 1
 80 27 87 34 87 84 c 2
 87 334 l 2
 87 378 78 394 53 394 c 0
 41 394 32 393 18 390 c 1
EndSplineSet
EndChar
StartChar: s
Encoding: 83 115 84
Width: 389
Flags: W
HStem: 8 4<82 220.5> 437 22<147.5 218.5>
VStem: 51 62<308 389> 278 70<62 143>
AnchorPoint: "Bot" 200 0 basechar 0
AnchorPoint: "Top" 200 500 basechar 0
Fore
284 440 m 0
 290.2 440 294.264 445.538 300 450 c 1
 311 450 l 1
 315 314 l 1
 300 314 l 1
 277 403 247 437 190 437 c 0
 144 437 113 409 113 369 c 0
 113 342 128 317 156 301 c 2
 264 237 l 2
 324 201 348 168 348 118 c 0
 348 48 284 -10 207 -10 c 0
 161.631 -10 112.916 8 88 8 c 0
 76 8 72 6 65 -4 c 1
 52 -4 l 1
 52 152 l 1
 68 152 l 1
 77.1576 111.847 93.4 12 195 12 c 0
 246 12 278 40 278 84 c 0
 278 115 261 139 226 159 c 2
 168 192 l 2
 83 240 51 280 51 336 c 0
 51 408 108 459 187 459 c 0
 245.427 459 262.478 440 284 440 c 0
EndSplineSet
EndChar
StartChar: t
Encoding: 84 116 85
Width: 278
Flags: W
HStem: -10 52<129.5 217> 418 32<154 255>
VStem: 70 84<117 418>
AnchorPoint: "Bot" 146 0 basechar 0
AnchorPoint: "Top" 146 629 basechar 0
Fore
255 450 m 1
 255 418 l 1
 154 418 l 1
 154 132 l 2
 154 69 169 42 206 42 c 0
 228 42 245 52 266 77 c 1
 279 66 l 1
 246 14 208 -10 159 -10 c 0
 100 -10 70 33 70 117 c 2
 70 418 l 1
 17 418 l 1
 14 420 13 422 13 425 c 0
 13 430 19 437 30 444 c 1
 59.2632 451.316 127.833 554.357 147 579 c 1
 153 579 154 576 154 566 c 2
 154 450 l 1
 255 450 l 1
EndSplineSet
EndChar
StartChar: u
Encoding: 85 117 86
Width: 500
Flags: W
HStem: -10 58<155.5 241> 430 20G<9 155 259 417>
VStem: 71 84<80.5 450> 333 84<84 450>
AnchorPoint: "VietHorn" 402 414 basechar 0
AnchorPoint: "Ogonek" 244 0 basechar 0
AnchorPoint: "Bot" 244 0 basechar 0
AnchorPoint: "Top" 244 500 basechar 0
Fore
479 50 m 1
 479 36 l 1
 428 22 392 11 342 -9 c 1
 338 -7 l 1
 338 76 l 1
 295 33 l 2
 268 6 229 -10 192 -10 c 0
 119 -10 71 41 71 120 c 2
 71 372 l 2
 71 418 57 433 9 436 c 1
 9 450 l 1
 155 450 l 1
 155 124 l 2
 155 82 187 48 226 48 c 0
 256 48 287 60 314 82 c 0
 328 93 333 107 333 135 c 2
 333 370 l 2
 333 420 321 430 259 433 c 1
 259 450 l 1
 417 450 l 1
 417 107 l 2
 417 61 428 50 474 50 c 2
 479 50 l 1
EndSplineSet
EndChar
StartChar: v
Encoding: 86 118 87
Width: 500
Flags: W
HStem: -14 21G<250 261.5> 430 20G<19 215 338 477>
AnchorPoint: "Bot" 248 0 basechar 0
AnchorPoint: "Top" 248 500 basechar 0
Fore
477 435 m 1
 435 432 425 391 412 357 c 2
 284 36 l 2
 281 29 266 -14 257 -14 c 0
 243 -14 234 24 230 33 c 0
 200 110 168 186 135 262 c 0
 116 307 97 355 74 398 c 0
 61 422 47 434 19 435 c 1
 19 450 l 1
 215 450 l 1
 215 435 l 1
 195 434 169 431 169 405 c 0
 169 375 264 154 280 114 c 1
 298 165 385 365 385 402 c 0
 385 427 358 434 338 435 c 1
 338 450 l 1
 477 450 l 1
 477 435 l 1
EndSplineSet
EndChar
StartChar: w
Encoding: 87 119 88
Width: 722
Flags: W
HStem: -14 21G<232 237.5 484 490.5> 430 20G<21 201 262 465 571 694>
AnchorPoint: "Bot" 358 0 basechar 0
AnchorPoint: "Top" 358 500 basechar 0
Fore
571 450 m 1
 694 450 l 1
 694 435 l 1
 674 428 671 423 653 381 c 2
 515 35 l 2
 499 -5 494 -14 487 -14 c 0
 481 -14 477 -8 463 29 c 2
 372 265 l 1
 260 25 l 2
 248 -1 240 -14 235 -14 c 0
 229 -14 221 0 209 30 c 2
 74 372 l 2
 53.6064 423.663 44 433 21 435 c 1
 21 450 l 1
 201 450 l 1
 201 435 l 1
 167 431 155 423 155 402 c 0
 155 392 157 382 161 372 c 2
 260 111 l 1
 351 310 l 1
 345 328 338 347 331 366 c 0
 311 420 299 431 262 435 c 1
 262 450 l 1
 465 450 l 1
 465 435 l 1
 418 428 407 421 407 399 c 0
 407 386 407 386 424 340 c 2
 508 116 l 1
 598 338 l 2
 609 365 615 389 615 404 c 0
 615 421 605 428 571 435 c 1
 571 450 l 1
EndSplineSet
EndChar
StartChar: x
Encoding: 88 120 89
Width: 500
Flags: W
HStem: 0 15<17 162> 435 15<24 231>
AnchorPoint: "Bot" 248 0 basechar 0
AnchorPoint: "Top" 248 500 basechar 0
Fore
479 0 m 1
 278 0 l 1
 278 15 l 1
 299 16 318 15 318 41 c 0
 318 60 230 183 221 197 c 1
 216 190 122 53 122 33 c 0
 122 15 150 15 162 15 c 1
 162 0 l 1
 17 0 l 1
 17 15 l 1
 56 19 68 34 90 66 c 2
 204 231 l 1
 110 375 l 2
 84 414 73 437 24 435 c 1
 24 450 l 1
 231 450 l 1
 231 435 l 1
 215 435 188 434 188 412 c 0
 188 392 235 323 248 304 c 1
 258 318 315 395 315 412 c 0
 315 433 291 434 275 435 c 1
 275 450 l 1
 433 450 l 1
 433 435 l 1
 402 434 370 416 352 391 c 2
 269 271 l 1
 397 75 l 2
 418 43 440 17 479 15 c 1
 479 0 l 1
EndSplineSet
EndChar
StartChar: y
Encoding: 89 121 90
Width: 500
Flags: W
HStem: -218 102<61.5 137.5> 435 15<340 475>
AnchorPoint: "Bot" 383 0 basechar 0
AnchorPoint: "Top" 244 500 basechar 0
Fore
65 404 m 2
 57.1885 421.088 40 432 14 436 c 1
 14 450 l 1
 220 450 l 1
 220 435 l 1
 177 433 162 426 162 408 c 0
 162 397 166 384 172 370 c 2
 287 117 l 1
 384 393 l 2
 387 400 388 406 388 410 c 0
 388 426 372 435 340 435 c 1
 340 450 l 1
 475 450 l 1
 475 435 l 1
 451 432 440 422 427 390 c 2
 273 -18 l 2
 219 -162 171 -218 104 -218 c 0
 62 -218 30 -193 30 -160 c 0
 30 -136 50 -116 73 -116 c 0
 110.537 -116 134.303 -134 151 -134 c 0
 165 -134 187 -115 201 -89 c 0
 218 -59 235.206 -12.8658 241 19 c 0
 243 30 232.429 49.2588 225 65 c 2
 65 404 l 2
EndSplineSet
EndChar
StartChar: z
Encoding: 90 122 91
Width: 444
Flags: W
HStem: 0 30<27 404> 420 30<56 403>
AnchorPoint: "Bot" 222 0 basechar 0
AnchorPoint: "Top" 222 500 basechar 0
Fore
418 135 m 1
 404 0 l 1
 27 0 l 1
 27 15 l 1
 293 420 l 1
 155 420 l 2
 95 420 80 405 71 332 c 1
 53 332 l 1
 56 450 l 1
 403 450 l 1
 403 435 l 1
 134 30 l 1
 272 30 l 2
 323 30 357 39 371 56 c 0
 384 73 390 89 400 139 c 1
 418 135 l 1
EndSplineSet
EndChar
StartChar: braceleft
Encoding: 91 123 92
Width: 480
Flags: W
VStem: 185 74<-84.5 136 328 546>
Fore
350 -170 m 1
 350 -181 l 1
 284 -180 257 -174 229 -156 c 0
 201 -138 185 -97 185 -41 c 2
 185 136 l 2
 185 205 167 229 100 250 c 1
 167 270 185 293 185 363 c 2
 185 541 l 2
 185 598 200 637 229 655 c 0
 258 673 284 679 350 680 c 1
 350 669 l 1
 281 651 259 621 259 546 c 2
 259 378 l 2
 259 295 240 269 165 249 c 1
 240 230 259 204 259 121 c 2
 259 -47 l 2
 259 -122 281 -152 350 -170 c 1
EndSplineSet
EndChar
StartChar: bar
Encoding: 92 124 93
Width: 200
Flags: W
HStem: -14 21G<67 133> 656 20G<67 133>
VStem: 67 66<-14 676>
Fore
67 -14 m 1
 67 676 l 1
 133 676 l 1
 133 -14 l 1
 67 -14 l 1
EndSplineSet
EndChar
StartChar: braceright
Encoding: 93 125 94
Width: 480
Flags: W
VStem: 221 74<-47 171 363 583.5>
Fore
130 669 m 1
 130 680 l 1
 197 679 223 673 251 655 c 0
 279 637 295 596 295 540 c 2
 295 363 l 2
 295 293 313 270 380 250 c 1
 313 229 295 206 295 136 c 2
 295 -42 l 2
 295 -99 280 -138 251 -156 c 0
 222 -174 196 -180 130 -181 c 1
 130 -170 l 1
 199 -152 221 -122 221 -47 c 2
 221 121 l 2
 221 204 240 230 315 250 c 1
 240 269 221 294 221 378 c 2
 221 546 l 2
 221 621 199 651 130 669 c 1
EndSplineSet
EndChar
StartChar: asciitilde
Encoding: 94 126 95
Width: 541
Flags: W
HStem: 186 66<356.5 402> 254 66<140 185.5>
Fore
448 303 m 1
 502 271 l 1
 456 207 425 186 379 186 c 0
 334 186 316 193 227 240 c 0
 210 249 189 254 168 254 c 0
 137 254 120 242 94 203 c 1
 40 235 l 1
 86 299 117 320 163 320 c 0
 208 320 226 313 315 266 c 0
 332 257 353 252 374 252 c 0
 405 252 422 264 448 303 c 1
EndSplineSet
EndChar
StartChar: exclamdown
Encoding: 95 161 96
Width: 333
Flags: W
HStem: -218 21G<133 166.5> 449 20G<135 165.5>
Fore
144 282 m 1
 157 282 l 1
 166 174 l 2
 170 127 176 81 183 36 c 0
 195 -35 203 -106 203 -140 c 0
 203 -188 183 -218 150 -218 c 0
 116 -218 97 -190 97 -138 c 0
 97 -126 98 -113 99 -101 c 1
 144 282 l 1
151 469 m 0
 180 469 204 446 204 417 c 0
 204 387 180 362 150 362 c 0
 120 362 97 386 97 418 c 0
 97 448 119 469 151 469 c 0
EndSplineSet
EndChar
StartChar: cent
Encoding: 96 162 97
Width: 500
Flags: W
HStem: -9 73<248.5 317.5> 430 30<211 280>
VStem: 53 77<192 311>
Fore
403 579 m 1
 356 444 l 1
 404 425 431 395 431 360 c 0
 431 334 413 315 388 315 c 0
 363 315 348 328 330 367 c 1
 229 76 l 1
 253 67 268 64 288 64 c 0
 347 64 383 89 435 164 c 1
 448 156 l 1
 414 86 395 59 360 29 c 0
 332 5 295 -9 257 -9 c 0
 240 -9 225 -7 201 0 c 1
 152 -138 l 1
 118 -138 l 1
 169 12 l 1
 132 33 117 46 99 71 c 0
 70 111 53 165 53 219 c 0
 53 354 149 460 273 460 c 0
 287 460 300 459 324 455 c 1
 368 579 l 1
 403 579 l 1
198 98 m 1
 313 421 l 1
 295 428 283 430 266 430 c 0
 184 430 130 362 130 260 c 0
 130 188 149 143 198 98 c 1
EndSplineSet
EndChar
StartChar: sterling
Encoding: 97 163 98
Width: 500
Flags: W
HStem: -8 28<59.5 97.5> -7 83<300.5 371> 94 36<72.5 110.5> 328 45<23 131 219 344> 649 27<258.5 355>
VStem: 12 26<35 77> 123 85<430 554> 153 71<142.5 273> 359 89<567.5 609.5>
Fore
344 373 m 1xbe80
 344 328 l 1
 223 328 l 1
 223 301 l 1
 224 273 l 1
 224 238 223 233 199 111 c 1
 264 84 299 76 348 76 c 0
 394 76 429 91 461 125 c 0
 471 136 479 141 484 141 c 0
 488 141 490 139 490 136 c 0
 490 119 468 75 447 51 c 0
 415 14 370 -7 322 -7 c 0x7d80
 279 -7 246 7 178 54 c 1
 138 7 115 -8 80 -8 c 0
 39 -8 12 16 12 54 c 0
 12 100 49 130 103 130 c 0
 118 130 130 129 149 125 c 1
 152 133 153 139 153 146 c 0xbd80
 153 164 151 181 131 328 c 1
 23 328 l 1
 23 373 l 1
 130 373 l 1
 125 399 123 418 123 442 c 0
 123 585 199 676 318 676 c 0
 392 676 448 636 448 583 c 0
 448 552 427 530 398 530 c 0
 368 530 360 544 359 597 c 0
 358 632 340 649 303 649 c 0
 243 649 208 598 208 510 c 0
 208 474 211 441 219 373 c 1
 344 373 l 1xbe80
89 94 m 0
 56 94 38 81 38 57 c 0
 38 35 55 20 79 20 c 0xbc80
 99 20 111 26 125 43 c 0
 136 56 142 68 142 76 c 0
 142 84 113 94 89 94 c 0
EndSplineSet
EndChar
StartChar: yen
Encoding: 99 165 100
Width: 500
Flags: W
HStem: 0 21G<111 355> 182 40<16 190 275 448> 312 40<16 183 282 448> 643 19<317 512>
VStem: 190 85<109 182 222 298>
Fore
190 182 m 1
 16 182 l 1
 16 222 l 1
 190 222 l 1
 190 298 l 1
 183 312 l 1
 16 312 l 1
 16 352 l 1
 160 352 l 1
 65 525 l 2
 10 624 -7 640 -53 643 c 1
 -53 662 l 1
 190 662 l 1
 190 643 l 1
 143 642 125 634 125 614 c 0
 125 601 130 585 138 569 c 2
 256 348 l 1
 368 568 l 2
 377 585 382 602 382 612 c 0
 382 631 361 643 331 643 c 2
 317 643 l 1
 317 662 l 1
 512 662 l 1
 512 643 l 1
 461 632 431 605 394 536 c 1
 302 352 l 1
 448 352 l 1
 448 312 l 1
 282 312 l 1
 275 298 l 1
 275 222 l 1
 448 222 l 1
 448 182 l 1
 275 182 l 1
 275 109 l 2
 275 39 291 21 355 19 c 1
 355 0 l 1
 111 0 l 1
 111 19 l 1
 178 22 190 37 190 120 c 2
 190 182 l 1
EndSplineSet
EndChar
StartChar: florin
Encoding: 318 402 101
Width: 500
Flags: W
HStem: -189 24<63.5 117.5> 376 31<116 223 306 422> 647 29<384 428.5>
VStem: 7 82<-140 -100> 406 84<588 627>
Fore
432 407 m 1
 422 376 l 1
 302 376 l 1
 295 321 287 264 286 251 c 0
 262 66 245 -14 214 -84 c 0
 181 -156 142 -189 87 -189 c 0
 40 -189 7 -160 7 -120 c 0
 7 -94 26 -75 53 -75 c 0
 75 -75 89 -89 89 -111 c 0
 89 -120 86 -127 80 -138 c 0
 76 -145 74 -149 74 -152 c 0
 74 -159 83 -165 95 -165 c 0
 140 -165 167 -107 177 9 c 2
 192 181 l 1
 197 234 203 290 204 294 c 1
 215 361 l 1
 217 376 l 1
 106 376 l 1
 116 407 l 1
 223 407 l 1
 239 511 256 559 294 615 c 0
 320 653 363 676 405 676 c 0
 452 676 490 646 490 608 c 0
 490 583 469 563 444 563 c 0
 424 563 406 579 406 597 c 0
 406 603 409 612 414 621 c 0
 417 627 419 632 419 635 c 0
 419 642 411 647 399 647 c 0
 383 647 369 641 358 630 c 0
 339 610 320 546 314 483 c 0
 313 472 310 441 306 407 c 1
 432 407 l 1
EndSplineSet
EndChar
StartChar: section
Encoding: 101 167 102
Width: 500
Flags: W
HStem: -148 21<203 285.5> 125 21<286 344> 383 22<152 206.5> 655 21<207.5 285.5>
VStem: 70 53<249.5 335.5> 104 68<-101 -32.5> 279 98<555.5 606> 330 56<-73.5 4.5> 374 52<194.5 271.5>
Fore
310 125 m 2xf080
 292 125 l 1
 367 60 386 30 386 -21 c 0
 386 -97 329 -148 242 -148 c 0
 164 -148 104 -104 104 -48 c 0
 104 -17 127 6 158 6 c 0
 185 6 206 -12 206 -36 c 0
 206 -50 199 -63 183 -77 c 0
 176 -83 172 -88 172 -92 c 0
 172 -110 206 -127 243 -127 c 0
 296 -127 330 -97 330 -50 c 0xf5
 330 -11 305 21 241 65 c 0
 119 149 70 213 70 286 c 0
 70 354 119 405 185 405 c 0
 191 405 200 405 210 404 c 1
 130 470 110 500 110 554 c 0
 110 626 166 676 249 676 c 0
 322 676 377 634 377 578 c 0
 377 545 358 525 326 525 c 0
 299 525 279 543 279 568 c 0xfa
 279 584 289 600 305 612 c 0
 310 617 313 620 313 623 c 0
 313 641 285 655 251 655 c 0
 200 655 166 626 166 584 c 0
 166 559 180 530 200 513 c 2
 337 400 l 2
 395 352 426 298 426 245 c 0
 426 175 378 125 310 125 c 2xf080
191 383 m 0
 152 383 123 355 123 316 c 0
 123 286 135 263 169 229 c 0
 229 169 267 146 305 146 c 0
 342 146 374 177 374 212 c 0xf880
 374 238 355 271 321 305 c 0
 275 351 222 383 191 383 c 0
EndSplineSet
EndChar
StartChar: currency
Encoding: 98 164 103
Width: 500
Flags: W
HStem: 115 64<210 291.5> 481 64<211 292.5>
VStem: 35 68<288.5 372> 397 68<288.5 372>
Fore
-22 108 m 1
 76 204 l 1
 47 246 35 283 35 330 c 0
 35 378 47 416 76 456 c 1
 -22 554 l 1
 28 602 l 1
 124 506 l 1
 169 535 202 545 251 545 c 0
 299 545 337 533 376 506 c 1
 474 602 l 1
 522 554 l 1
 426 456 l 1
 455 413 465 380 465 331 c 0
 465 283 455 249 426 204 c 1
 522 108 l 1
 474 58 l 1
 376 156 l 1
 337 128 298 115 251 115 c 0
 205 115 166 128 124 156 c 1
 28 58 l 1
 -22 108 l 1
253 481 m 0
 169 481 103 414 103 330 c 0
 103 247 169 179 251 179 c 0
 332 179 397 246 397 331 c 0
 397 413 332 481 253 481 c 0
EndSplineSet
EndChar
StartChar: quotesingle
Encoding: 7 39 104
Width: 180
Flags: W
HStem: 656 20G<79 102.5>
VStem: 48 85<621.5 647>
Fore
101 431 m 1
 80 431 l 1
 63 521 48 619 48 635 c 0
 48 658 67 676 91 676 c 0
 114 676 133 658 133 636 c 0
 133 607 124 547 108 471 c 1
 101 431 l 1
EndSplineSet
EndChar
StartChar: guillemotleft
Encoding: 105 171 106
Width: 500
Flags: W
Fore
42 222 m 1
 107 281 l 1
 113 285 118 290 123 295 c 2
 126 297 l 2
 134 304 141 311 150 318 c 0
 179 344 206 371 210 377 c 0
 227 398 248 416 254 416 c 0
 259 416 264 411 264 406 c 0
 264 393 239 353 210 317 c 0
 173 273 158 255 135 224 c 1
 141 215 142 215 145 211 c 0
 222 114 263 55 263 42 c 0
 263 37 259 33 254 33 c 0
 249 33 247 34 243 39 c 1
 186 95 145 133 73 195 c 2
 42 222 l 1
234 222 m 1
 299 281 l 1
 305 285 310 290 315 295 c 2
 318 297 l 2
 326 304 333 311 342 318 c 0
 371 344 398 371 402 377 c 0
 419 398 440 416 446 416 c 0
 451 416 456 411 456 406 c 0
 456 393 431 353 402 317 c 0
 365 273 350 255 327 224 c 1
 333 215 334 215 337 211 c 0
 414 114 455 55 455 42 c 0
 455 37 451 33 446 33 c 0
 441 33 439 34 435 39 c 1
 378 95 337 133 265 195 c 2
 234 222 l 1
EndSplineSet
Substitution: 0 0 'aalt' guillemotleft.grek
Substitution: 0 2 'locl' guillemotleft.grek
EndChar
StartChar: paragraph
Encoding: 115 182 115
Width: 453
Flags: W
HStem: 640 22<113.5 296>
VStem: -22 76<418 542> 172 66<-154 640> 296 66<-154 640>
Fore
238 640 m 1
 238 -154 l 1
 84 -154 l 1
 84 -132 l 1
 162 -127 172 -115 172 -31 c 2
 172 273 l 1
 109 275 81 283 48 307 c 0
 1 339 -22 396 -22 477 c 0
 -22 607 40 662 187 662 c 2
 450 662 l 1
 450 643 l 1
 373 636 362 625 362 553 c 2
 362 -42 l 2
 362 -113 374 -126 450 -132 c 1
 450 -154 l 1
 296 -154 l 1
 296 640 l 1
 238 640 l 1
172 295 m 1
 172 640 l 1
 132 637 115 631 97 618 c 0
 68 597 54 552 54 481 c 0
 54 355 86 304 172 295 c 1
EndSplineSet
EndChar
StartChar: quotereversed
Encoding: 914 8219 118
Width: 333
Flags: W
TeX: 0 0 0 0
HStem: 656 20G<172.5 212.5>
VStem: 115 39<541.5 612.5>
Fore
195 568 m 0
 179 568 173 572 168 572 c 0
 160 572 154 566 154 558 c 0
 154 525 182 489 236 452 c 1
 227 433 l 1
 160 466 115 527 115 587 c 0
 115 638 150 676 195 676 c 0
 230 676 254 653 254 619 c 0
 254 588 231 568 195 568 c 0
EndSplineSet
EndChar
StartChar: quotedblright
Encoding: 916 8221 119
Width: 444
Flags: W
HStem: 568 108<70.5 111.5 302.5 343.5>
VStem: 130 39<542 612> 362 39<542 612>
Fore
57 433 m 1
 48 452 l 1
 102 489 130 526 130 558 c 0
 130 566 124 572 116 572 c 0
 115 572 115 572 108 570 c 0
 102 569 95 568 89 568 c 0
 52 568 30 587 30 619 c 0
 30 653 54 676 89 676 c 0
 134 676 169 637 169 587 c 0
 169 527 124 466 57 433 c 1
289 433 m 1
 280 452 l 1
 334 489 362 526 362 558 c 0
 362 566 356 572 348 572 c 0
 347 572 347 572 340 570 c 0
 334 569 327 568 321 568 c 0
 284 568 262 587 262 619 c 0
 262 653 286 676 321 676 c 0
 366 676 401 637 401 587 c 0
 401 527 356 466 289 433 c 1
EndSplineSet
EndChar
StartChar: guillemotright
Encoding: 120 187 120
Width: 500
Flags: W
Fore
458 222 m 1
 427 195 l 2
 354 132 314 95 257 39 c 1
 253 34 251 33 247 33 c 0
 241 33 237 37 237 42 c 0
 237 54 280 116 355 211 c 2
 361 218 l 1
 365 224 l 1
 290 317 l 2
 261 352 236 393 236 406 c 0
 236 411 241 416 246 416 c 0
 252 416 273 398 290 377 c 1
 292 372 321 344 351 318 c 0
 360 309 368 302 374 297 c 2
 377 295 l 2
 382 290 387 285 393 281 c 1
 458 222 l 1
266 222 m 1
 235 195 l 2
 162 132 122 95 65 39 c 1
 61 34 59 33 55 33 c 0
 49 33 45 37 45 42 c 0
 45 54 88 116 163 211 c 2
 169 218 l 1
 173 224 l 1
 98 317 l 2
 69 352 44 393 44 406 c 0
 44 411 49 416 54 416 c 0
 60 416 81 398 98 377 c 1
 100 372 129 344 159 318 c 0
 168 309 176 302 182 297 c 2
 185 295 l 2
 190 290 195 285 201 281 c 1
 266 222 l 1
EndSplineSet
Substitution: 0 0 'aalt' guillemotright.grek
Substitution: 0 2 'locl' guillemotright.grek
EndChar
StartChar: perthousand
Encoding: 924 8240 122
Width: 1000
Flags: W
HStem: -19 27<434 511 796.5 873> 302 28<488 566.5 850 928.5> 326 27<91.5 170> 583 26<339 389.5> 656 20G<149 210.5> 686 20G<523 567>
VStem: 7 71<402 519.5> 267 24<511.5 583.5> 347 72<57.5 172.5> 609 23<152.5 250> 709 72<58.5 173> 971 23<152.5 250>
Fore
567 706 m 1xbff0
 137 -18 l 1
 90 -18 l 1
 484 640 l 1
 447 597 416 583 363 583 c 0
 337 583 319 586 287 597 c 1
 290 579 291 567 291 553 c 0
 291 486 262 414 216 368 c 0
 187 339 159 326 125 326 c 0
 58 326 7 385 7 463 c 0
 7 576 98 676 200 676 c 0
 221 676 233 670 260 648 c 0
 296 618 319 609 359 609 c 0
 417 609 433 618 523 706 c 1
 567 706 l 1xbff0
198 649 m 1
 190 645 179 639 174 636 c 0
 122 607 78 510 78 423 c 0
 78 381 101 353 135 353 c 0
 205 353 267 454 267 569 c 0
 267 598 263 605 242 615 c 0
 228 622 215 631 198 649 c 1
536 330 m 0xdff0
 597 330 632 287 632 213 c 0
 632 92 554 -19 468 -19 c 0
 400 -19 347 41 347 119 c 0
 347 226 440 330 536 330 c 0xdff0
548 302 m 0
 530 302 510 293 497 279 c 0
 453 232 419 144 419 77 c 0
 419 38 443 8 475 8 c 0
 543 8 609 109 609 214 c 0
 609 265 583 302 548 302 c 0
898 330 m 0
 959 330 994 287 994 213 c 0
 994 92 915 -19 831 -19 c 0
 762 -19 709 41 709 120 c 0
 709 226 802 330 898 330 c 0
909 302 m 0
 886 302 866 290 845 263 c 0
 812 222 781 133 781 79 c 0
 781 38 805 8 837 8 c 0
 905 8 971 109 971 214 c 0
 971 266 946 302 909 302 c 0
EndSplineSet
LCarets: 0 65535 '    ' 1 0 
Ligature: 0 0 'frac' zero fraction zero zero
Ligature: 0 0 'frac' zero slash zero zero
EndChar
StartChar: questiondown
Encoding: 124 191 123
Width: 444
Flags: W
HStem: -218 30<187 260> -31 20G<315.5 343.5> 448 20G<192 222.5>
VStem: 30 92<-101.5 -37.5> 287 89<-114.5 -40>
Fore
200 294 m 1
 217 294 l 1
 216 250 206 200 187 152 c 1
 159 88 l 2
 135 33 122 -22 122 -68 c 0
 122 -135 170 -188 230 -188 c 0
 278 -188 325 -158 325 -126 c 0
 325 -118 320 -109 308 -95 c 0
 293 -78 287 -66 287 -52 c 0
 287 -28 303 -11 328 -11 c 0
 359 -11 376 -33 376 -73 c 0
 376 -156 306 -218 214 -218 c 0
 160 -218 101 -195 66 -160 c 0
 43 -137 30 -101 30 -63 c 0
 30 -12 54 42 105 104 c 0
 168 178 186 213 200 294 c 1
208 468 m 0
 237 468 261 445 261 416 c 0
 261 386 236 361 207 361 c 0
 177 361 154 385 154 417 c 0
 154 447 176 468 208 468 c 0
EndSplineSet
EndChar
StartChar: grave
Encoding: 64 96 124
Width: 333
Flags: W
HStem: 658 20G<42.5 60.5>
Fore
242 507 m 1
 202 507 l 1
 48 604 l 2
 30 616 19 631 19 647 c 0
 19 666 32 678 53 678 c 0
 68 678 77 673 95 655 c 2
 242 507 l 1
EndSplineSet
EndChar
StartChar: acute
Encoding: 113 180 125
Width: 333
Flags: W
HStem: 658 20G<274.5 293>
Fore
133 507 m 1
 93 507 l 1
 240 655 l 2
 258 673 267 678 282 678 c 0
 304 678 317 666 317 646 c 0
 317 630 308 617 287 604 c 2
 133 507 l 1
EndSplineSet
EndChar
StartChar: circumflex
Encoding: 334 710 126
Width: 333
Flags: W
HStem: 654 20G<135 197>
Fore
322 507 m 1
 288 507 l 1
 166 610 l 1
 45 507 l 1
 11 507 l 1
 135 674 l 1
 197 674 l 1
 322 507 l 1
EndSplineSet
EndChar
StartChar: tilde
Encoding: 343 732 127
Width: 333
Flags: W
HStem: 532 56<213.5 260.5> 578 55<69.5 113>
Fore
302 638 m 1x80
 331 638 l 1
 310 562 281 532 226 532 c 0x80
 201 532 186 536 145 556 c 2
 122 567 l 2
 107 574 93 578 81 578 c 0x40
 58 578 41 563 30 532 c 1
 1 532 l 1x80
 16 597 52 633 102 633 c 0x40
 124 633 149 627 172 615 c 2
 196 603 l 2
 215 594 234 588 249 588 c 0
 272 588 285 600 302 638 c 1x80
EndSplineSet
EndChar
StartChar: macron
Encoding: 108 175 128
Width: 333
Flags: W
HStem: 547 54<11 322>
Fore
11 601 m 1
 322 601 l 1
 322 547 l 1
 11 547 l 5
 11 601 l 1
EndSplineSet
EndChar
StartChar: breve
Encoding: 339 728 129
Width: 333
Flags: W
HStem: 507 60<118 213> 644 20G<27 56 279 308>
Fore
308 664 m 1
 300 578 261 507 165 507 c 0
 71 507 27 577 27 664 c 1
 56 664 l 1
 66 603 105 567 167 567 c 0
 237 567 257 605 279 664 c 1
 308 664 l 1
EndSplineSet
EndChar
StartChar: dotaccent
Encoding: 340 729 130
Width: 333
Flags: W
HStem: 523 99<152.5 180>
VStem: 118 99<558.5 586>
Fore
166 622 m 0
 194 622 217 599 217 572 c 0x40
 217 545 194 523 166 523 c 0
 139 523 118 545 118 573 c 0x40
 118 599 141 622 166 622 c 0
EndSplineSet
EndChar
StartChar: dieresis
Encoding: 102 168 131
Width: 333
Flags: W
HStem: 523 99<52.5 80 251.5 279>
VStem: 18 99<558.5 586> 217 99<558.5 586>
Fore
66 622 m 0
 94 622 117 599 117 572 c 0
 117 545 94 523 66 523 c 0
 39 523 18 545 18 573 c 0
 18 599 41 622 66 622 c 0
265 622 m 0
 293 622 316 599 316 572 c 0
 316 545 293 523 265 523 c 0
 238 523 217 545 217 573 c 0
 217 599 240 622 265 622 c 0
EndSplineSet
EndChar
StartChar: ring
Encoding: 341 730 132
Width: 333
Flags: W
HStem: 512 34<138 193.5> 677 34<139 193.5>
VStem: 67 34<584 639> 232 34<583.5 638.5>
Fore
166 711 m 0
 221 711 266 666 266 611 c 0
 266 556 221 512 166 512 c 0
 110 512 67 556 67 612 c 0
 67 666 112 711 166 711 c 0
167 677 m 0
 131 677 101 648 101 612 c 0x20
 101 576 130 546 165 546 c 0
 202 546 232 575 232 611 c 0x10
 232 647 202 677 167 677 c 0
EndSplineSet
EndChar
StartChar: cedilla
Encoding: 117 184 133
Width: 333
Flags: W
HStem: -215 35<120 174.5> -100 100<127.5 152>
VStem: 186 75<-157 -109.5>
Fore
98 -99 m 1
 139 0 l 1
 174 0 l 1
 149 -65 l 1
 159 -63 165 -62 175 -62 c 0
 229 -62 261 -88 261 -131 c 0
 261 -183 213 -215 136 -215 c 0
 104 -215 81 -211 52 -199 c 1
 66 -168 l 1
 94 -177 110 -180 131 -180 c 0
 165 -180 186 -163 186 -136 c 0
 186 -110 171 -100 133 -100 c 0
 122 -100 113 -101 105 -104 c 1
 98 -99 l 1
EndSplineSet
EndChar
StartChar: hungarumlaut
Encoding: 344 733 134
Width: 333
Flags: W
HStem: 658 20G<178.5 197 334.5 353>
Fore
193 507 m 1
 153 507 l 1
 300 655 l 2
 318 673 327 678 342 678 c 0
 364 678 377 666 377 646 c 0
 377 630 368 617 347 604 c 2
 193 507 l 1
37 507 m 1
 -3 507 l 1
 144 655 l 2
 162 673 171 678 186 678 c 0
 208 678 221 666 221 646 c 0
 221 630 212 617 191 604 c 2
 37 507 l 1
EndSplineSet
EndChar
StartChar: ogonek
Encoding: 342 731 135
Width: 333
Flags: W
HStem: -165 56<116.5 168.5> -20 20G<118 164>
VStem: 64 56<-110.5 -57.5>
Fore
229 -73 m 1
 249 -89 l 1
 212 -142 178 -165 137 -165 c 0
 96 -165 64 -132 64 -89 c 0
 64 -57 80 -30 118 0 c 1
 164 0 l 1
 133 -25 120 -46 120 -69 c 0x20
 120 -92 136 -109 158 -109 c 0
 179 -109 198 -99 229 -73 c 1
EndSplineSet
EndChar
StartChar: caron
Encoding: 335 711 136
Width: 333
Flags: W
HStem: 654 20G<11 45 288 322>
Fore
322 674 m 1
 197 507 l 1
 135 507 l 1
 11 674 l 1
 45 674 l 1
 166 571 l 1
 288 674 l 1
 322 674 l 1
EndSplineSet
EndChar
StartChar: AE
Encoding: 131 198 137
Width: 889
Flags: W
HStem: 0 38<566 819> 260 39<222 398> 329 37<497 642> 443 20G<740 761> 626 36<252 816>
VStem: 398 99<62.5 618>
AnchorPoint: "Bot" 432 0 basechar 0
AnchorPoint: "Top" 432 712 basechar 0
Fore
863 168 m 1
 819 0 l 1
 309 0 l 1
 309 19 l 1
 379 27 398 30 398 108 c 2
 398 260 l 1
 222 260 l 1
 202 222 130 90 130 51 c 0
 130 24 180 21 199 19 c 1
 199 0 l 1
 0 0 l 1
 0 19 l 1
 52 28 65 51 88 97 c 0
 113 147 342 587 342 607 c 0
 342 642 275 642 252 642 c 1
 252 662 l 1
 816 662 l 1
 816 521 l 1
 793 521 l 1
 780 635 707 626 611 626 c 2
 524 626 l 2
 504 626 497 616 497 596 c 2
 497 366 l 1
 608 366 l 2
 693 366 733 373 740 463 c 1
 761 463 l 1
 761 229 l 1
 740 229 l 1
 733 297 719 329 642 329 c 2
 497 329 l 1
 497 91 l 2
 497 34 512 38 566 38 c 2
 642 38 l 2
 756 38 787 68 839 168 c 1
 863 168 l 1
239 299 m 1
 398 299 l 1
 398 618 l 1
 239 299 l 1
EndSplineSet
LCarets: 0 65535 '    ' 1 0 
Ligature: 0 5 'dlig' A E
EndChar
StartChar: ordfeminine
Encoding: 104 170 138
Width: 276
Flags: W
HStem: 394 36<197.5 247> 394 47<54.5 111.5> 648 28<93 159>
VStem: 4 63<442 498> 16 63<596.5 628.5> 157 72<576 612>
Fore
270 442 m 1xac
 270 424 l 1
 247 401 233 394 211 394 c 0xac
 184 394 172 406 166 438 c 1
 133 408 105 394 75 394 c 0
 34 394 4 422 4 462 c 0x74
 4 482 13 502 26 513 c 0
 53 536 66 543 157 576 c 1
 157 606 l 2
 157 633 144 648 121 648 c 0
 99 648 76 636 76 625 c 0
 76 621 77 616 78 611 c 0
 79 608 79 605 79 603 c 0
 79 590 64 578 48 578 c 0
 30 578 16 592 16 609 c 0
 16 648 62 676 124 676 c 0
 194 676 229 644 229 580 c 2
 229 465 l 2
 229 436 231 430 242 430 c 0
 252 430 260 434 270 442 c 1xac
158 474 m 2
 158 551 l 1
 88 526 67 511 67 485 c 0
 67 461 84 441 105 441 c 0x74
 118 441 130 444 147 452 c 1
 155 459 158 466 158 474 c 2
EndSplineSet
EndChar
StartChar: Lslash
Encoding: 254 321 139
Width: 611
Flags: W
HStem: 0 39<250.5 550> 642 20G<12 294>
VStem: 99 102<74 276 80 588.5>
Fore
99 325 m 1
 99 553 l 2
 99 623 86 637 12 643 c 1
 12 662 l 1
 294 662 l 1
 294 643 l 1
 215 638 201 624 201 553 c 2
 201 384 l 1
 356 473 l 1
 356 424 l 1
 201 335 l 1
 201 80 l 2
 201 45 214 39 287 39 c 2
 354 39 l 2
 437 39 492 57 527 96 c 0
 542 113 556 136 573 174 c 1
 598 174 l 1
 550 0 l 1
 12 0 l 1
 12 19 l 1
 85 24 99 39 99 109 c 2
 99 276 l 1
 12 226 l 1
 12 275 l 1
 99 325 l 1
EndSplineSet
EndChar
StartChar: Oslash
Encoding: 149 216 140
Width: 722
Flags: W
HStem: -14 36<330 460.5> 640 36<261.5 392>
VStem: 34 114<278.5 427> 574 114<233 382.5>
AnchorPoint: "Bot" 361 0 basechar 0
AnchorPoint: "Top" 361 712 basechar 0
Fore
688 330 m 0
 688 136 560 -14 361 -14 c 0
 299 -14 236 2 184 36 c 1
 105 -80 l 1
 56 -80 l 1
 151 59 l 1
 69 126 34 227 34 330 c 0
 34 524 162 676 361 676 c 0
 423 676 484 660 537 627 c 1
 609 734 l 1
 658 734 l 1
 570 604 l 1
 653 536 688 435 688 330 c 0
527 540 m 1
 219 88 l 1
 262 41 303 22 361 22 c 0
 493 22 574 139 574 330 c 0
 574 419 561 475 527 540 c 1
194 123 m 1
 502 575 l 1
 458 621 416 640 361 640 c 0
 230 640 148 521 148 330 c 0
 148 242 160 187 194 123 c 1
EndSplineSet
EndChar
StartChar: OE
Encoding: 271 338 141
Width: 889
Flags: W
HStem: -6 37<220 366.5> 0 40<711 841> 329 37<531 634.95> 443 20G<762 783> 626 36<485 693>
VStem: 30 112<229 423> 431 100<84 617.5>
AnchorPoint: "Bot" 458 0 basechar 0
AnchorPoint: "Top" 458 712 basechar 0
Fore
531 329 m 1xbe
 531 84 l 2
 531 46 545 38 580 38 c 0
 624 38 667 39 711 40 c 0
 789 41 828 105 861 168 c 1
 885 168 l 1
 841 0 l 1
 491 0 l 2x7e
 431 0 371 -6 311 -6 c 0
 129 -6 30 144 30 314 c 0
 30 524 131 668 351 668 c 0
 405 668 458 662 512 662 c 2
 838 662 l 1
 838 521 l 1
 815 521 l 1
 803 629 739 626 647 626 c 2
 596 626 l 2
 575 626 531 633 531 602 c 2
 531 366 l 1
 738.9 366 630 366 630 366 c 2
 715 366 755 373 762 463 c 1
 783 463 l 1
 783 229 l 1
 762 229 l 1
 755 297 741 329 664 329 c 2
 664 329 721.575 329 531 329 c 1xbe
431 131 m 2
 431 527 l 2
 431 600 401 632 332 632 c 0
 211 632 142 521 142 325 c 0
 142 135 209 31 331 31 c 0xbe
 402 31 431 60 431 131 c 2
EndSplineSet
LCarets: 0 65535 '    ' 1 0 
Ligature: 0 5 'dlig' O E
EndChar
StartChar: ordmasculine
Encoding: 119 186 142
Width: 310
Flags: W
HStem: 394 33<109 194.5> 643 33<113.5 201.5>
VStem: 6 73<493 591.5> 231 73<486 581.5>
Fore
159 676 m 0
 244 676 304 621 304 542 c 0
 304 458 238 394 151 394 c 0
 67 394 6 453 6 533 c 0
 6 618 68 676 159 676 c 0
150 643 m 0
 107 643 79 614 79 569 c 0
 79 530 88 490 104 461 c 0
 116 439 135 427 160 427 c 0
 206 427 231 458 231 514 c 0
 231 589 198 643 150 643 c 0
EndSplineSet
EndChar
StartChar: ae
Encoding: 163 230 143
Width: 667
Flags: W
HStem: -10 67<407.5 512> -10 48<122.5 206.5> 277 30<354 616> 431 29<413.5 516.5>
VStem: 38 87<64 162.5> 60 87<338 391> 274 80<189 277>
AnchorPoint: "Bot" 335 0 basechar 0
AnchorPoint: "Top" 335 500 basechar 0
Fore
293 88 m 0x7a
 293 94 283 122 282 130 c 0
 277 154 274 177 274 201 c 2
 273 253 l 1
 202 228 125 206 125 119 c 0
 125 78 153 38 197 38 c 0
 216 38 293 65 293 88 c 0x7a
632 149 m 1
 598 67 535 -10 439 -10 c 0xb6
 376 -10 339 12 306 63 c 1
 259 24 217 -10 153 -10 c 0
 92 -10 38 32 38 96 c 0x7a
 38 206 189 247 273 281 c 1
 274 301 275 321 275 341 c 0
 275 389 273 436 213 436 c 0
 181 436 145 424 145 386 c 0
 145 375 147 364 147 353 c 0
 147 323 134 304 102 304 c 0
 74 304 60 327 60 353 c 0
 60 429 156 460 218 460 c 0
 268 460 300 448 337 415 c 1
 377 447 408 460 459 460 c 0
 574 460 608 376 616 277 c 1
 354 277 l 1
 354 181 353 57 482 57 c 0xb6
 542 57 591 107 620 154 c 1
 632 149 l 1
355 307 m 1
 521 307 l 1
 519 394 496 431 442 431 c 0
 385 431 360 395 355 307 c 1
EndSplineSet
LCarets: 0 65535 '    ' 1 0 
Ligature: 0 5 'dlig' a e
EndChar
StartChar: dotlessi
Encoding: 238 305 144
Width: 278
Flags: W
HStem: 0 21G<16 253>
VStem: 95 84<66 457>
AnchorPoint: "Ogonek" 206 0 basechar 0
AnchorPoint: "Bot" 134 0 basechar 0
AnchorPoint: "Top" 134 500 basechar 0
Fore
175 460 m 1
 179 457 l 1
 179 102 l 2
 179 30 187 20 253 15 c 1
 253 0 l 1
 16 0 l 1
 16 15 l 1
 85 19 95 30 95 102 c 2
 95 334 l 2
 95 378 86 394 62 394 c 0
 53 394 40 393 28 391 c 2
 20 390 l 1
 20 405 l 1
 175 460 l 1
EndSplineSet
EndChar
StartChar: lslash
Encoding: 255 322 145
Width: 278
Flags: W
HStem: 0 21G<21 257>
VStem: 98 84<60 318 84 681>
Fore
98 362 m 1
 98 564 l 2
 98 611 88 625 56 625 c 0
 48 625 36 624 25 623 c 2
 19 623 l 1
 19 639 l 1
 88 656 126 666 178 683 c 1
 182 681 l 1
 182 419 l 1
 259 472 l 1
 259 428 l 1
 182 375 l 1
 182 84 l 2
 182 29 194 19 257 15 c 1
 257 0 l 1
 21 0 l 1
 21 15 l 1
 84 20 98 33 98 87 c 2
 98 318 l 1
 20 264 l 1
 20 308 l 1
 98 362 l 1
EndSplineSet
EndChar
StartChar: oslash
Encoding: 181 248 146
Width: 500
Flags: W
HStem: -10 28<232 313> 432 28<179.5 261.5>
VStem: 29 90<189.5 323> 380 90<145 267.5>
AnchorPoint: "Bot" 250 0 basechar 0
AnchorPoint: "Top" 250 500 basechar 0
Fore
470 228 m 0
 470 103 378 -10 248 -10 c 0
 216 -10 183 -3 154 11 c 1
 89 -112 l 1
 52 -112 l 1
 125 28 l 1
 60 73 29 151 29 228 c 0
 29 354 114 460 245 460 c 0
 278 460 311 455 341 442 c 1
 398 551 l 1
 437 551 l 1
 372 426 l 1
 441 383 470 307 470 228 c 0
340 366 m 1
 179 60 l 1
 204 30 227 18 261 18 c 0
 336 18 380 87 380 203 c 0
 380 267 369 311 340 366 c 1
158 92 m 1
 317 396 l 1
 290 422 268 432 237 432 c 0
 166 432 119 370 119 276 c 0
 119 207 131 149 158 92 c 1
EndSplineSet
EndChar
StartChar: oe
Encoding: 272 339 147
Width: 722
Flags: W
HStem: -10 26<172.5 287> -10 67<479.5 579.5> 277 30<419 674> 431 29<168.5 278.5 473.5 568>
VStem: 30 90<157 314.5> 343 77<170.5 277> 579 95<277 334>
AnchorPoint: "Bot" 360 0 basechar 0
AnchorPoint: "Top" 360 500 basechar 0
Fore
690 139 m 1x7e
 655 64 605 -10 513 -10 c 0x7e
 446 -10 407 25 383 85 c 1
 354 27 306 -10 240 -10 c 0xbe
 105 -10 30 93 30 221 c 0
 30 343 102 460 235 460 c 0
 295 460 347 430 384 384 c 1
 419 431 453 460 515 460 c 0
 621 460 674 376 674 277 c 1
 420 277 l 1
 423 193 440 57 551 57 c 0
 608 57 649 102 679 145 c 1
 690 139 l 1x7e
343 206 m 0
 343 282 330 431 227 431 c 0
 146 431 120 348 120 281 c 0
 120 200 124 16 239 16 c 0xbe
 335 16 343 135 343 206 c 0
419 307 m 1
 579 307 l 1
 579 334 l 2
 579 390 546 431 500 431 c 0
 447 431 420 390 419 307 c 1
EndSplineSet
LCarets: 0 65535 '    ' 1 0 
Ligature: 0 5 'dlig' o e
EndChar
StartChar: germandbls
Encoding: 156 223 148
Width: 500
Flags: W
HStem: -9 29<260.5 339> 656 27<217 303>
VStem: 73 84<0 549> 334 87<477 577> 374 94<107.5 217.5>
Fore
73 84 m 2xf0
 73 454 l 2
 73 524 82 569 103 606 c 0
 132 657 183 683 251 683 c 0
 355 683 421 623 421 531 c 0xf0
 421 459 391 426 284 377 c 1
 345 365 374 354 406 326 c 0
 446 292 468 242 468 186 c 0
 468 77 389 -9 289 -9 c 0
 232 -9 192 21 192 64 c 0
 192 91 211 112 237 112 c 0
 259 112 277 95 279 72 c 2
 281 50 l 2
 283 28 291 20 310 20 c 0
 352 20 374 65 374 150 c 0xe8
 374 285 330 354 242 357 c 0
 219 358 210 363 210 374 c 0
 210 383 218 387 239 389 c 0
 304 396 334 437 334 517 c 0
 334 604 300 656 243 656 c 0
 191 656 157 614 157 549 c 2
 157 0 l 1
 12 0 l 1
 12 15 l 1
 62 19 73 31 73 84 c 2xf0
EndSplineSet
EndChar
StartChar: Aogonek
Encoding: 193 260 156
Width: 722
Flags: W
HStem: -165 56<653.5 705.5> 0 19<15 213> 216 41<199 461> 654 20G<347 367>
VStem: 601 56<-110.5 -56.5>
Fore
706 19 m 1
 706 0 l 1
 684 -5 657 -44 657 -69 c 0
 657 -92 673 -109 695 -109 c 0
 716 -109 735 -99 766 -73 c 1
 786 -89 l 1
 749 -142 715 -165 674 -165 c 0
 633 -165 601 -132 601 -89 c 0
 601 -56 616 -32 655 0 c 1
 451 0 l 1
 451 19 l 1
 504 20 521 28 521 53 c 0
 521 67 514 93 502 120 c 2
 461 216 l 1
 199 216 l 1
 153 99 l 2
 148 86 145 72 145 60 c 0
 145 32 165 19 213 19 c 1
 213 0 l 1
 15 0 l 1
 15 19 l 1
 63 21 75 37 139 183 c 1
 347 674 l 1
 367 674 l 1
 616 106 l 1
 651 32 661 22 706 19 c 1
216 257 m 1
 447 257 l 1
 331 532 l 1
 216 257 l 1
EndSplineSet
Ligature: 0 4 'ccmp' A uni0328
EndChar
StartChar: Ccedilla
Encoding: 132 199 157
Width: 667
Flags: MW
HStem: -215 35<287 341.5> -100 38<294.5 369> -14 44<336 433.5> 450 21G<597 620> 636 40<269.5 590>
VStem: 28 116<216 430.5> 353 75<-157 -109.5>
Fore
336 -13 m 1
 316 -65 l 1
 326 -63 332 -62 342 -62 c 0
 396 -62 428 -88 428 -131 c 0
 428 -183 380 -215 303 -215 c 0
 271 -215 248 -211 219 -199 c 1
 233 -168 l 1
 261 -177 277 -180 298 -180 c 0
 332 -180 353 -163 353 -136 c 0
 353 -110 338 -100 300 -100 c 0
 289 -100 280 -101 272 -104 c 1
 265 -99 l 1
 302 -10 l 1
 135 14 28 144 28 325 c 0
 28 536 176 676 363 676 c 0
 472 676 512 643 548 643 c 0
 568 643 584 655 590 676 c 1
 611 676 l 1
 620 450 l 1
 597 450 l 1
 574 550 503 636 382 636 c 0
 237 636 144 519 144 338 c 0
 144 94 280 30 392 30 c 0
 475 30 541 60 615 131 c 1
 633 113 l 1
 573 32 473 -14 360 -14 c 0
 352 -14 345 -14 336 -13 c 1
EndSplineSet
LCarets: 0 65535 '    ' 1 0 
Ligature: 0 4 'ccmp' C cedilla
EndChar
StartChar: Eogonek
Encoding: 213 280 167
Width: 611
Flags: W
HStem: -165 56<478.5 530.5> 0 37<253 552> 327 41<201 412.5> 443 20G<465 488> 624 38<12 543>
VStem: 99 102<73.5 604> 426 56<-110.5 -53>
Fore
465 463 m 1
 488 463 l 1
 488 231 l 1
 465 231 l 1
 452 314 437 327 355 327 c 2
 201 327 l 1
 201 80 l 2
 201 52 200 37 306 37 c 2
 333 37 l 2
 476 37 519 61 569 169 c 1
 597 169 l 1
 552 0 l 1
 546 0 l 2
 516 0 482 -37 482 -69 c 0
 482 -92 498 -109 520 -109 c 0
 541 -109 560 -99 591 -73 c 1
 611 -89 l 1
 574 -142 540 -165 499 -165 c 0
 458 -165 426 -132 426 -89 c 0
 426 -56 441 -31 480 0 c 1
 12 0 l 1
 12 19 l 1
 85 24 99 38 99 109 c 2
 99 553 l 2
 99 623 86 637 12 643 c 1
 12 662 l 1
 543 662 l 1
 546 519 l 1
 521 519 l 1
 504 609 482 624 369 624 c 2
 234 624 l 2
 207 624 201 618 201 590 c 2
 201 368 l 1
 355 368 l 2
 470 368 453 422 465 463 c 1
EndSplineSet
LCarets: 0 65535 '    ' 1 0 
Ligature: 0 4 'ccmp' E uni0328
EndChar
StartChar: Scedilla
Encoding: 283 350 189
Width: 556
Flags: W
HStem: -215 35<232 286.5> -100 38<239 314> -14 36<222.5 303.5> 463 21G<444 469> 635 41<222.5 283.5>
VStem: 71 86<465 569.5> 298 75<-157 -109.5> 390 101<101.5 209>
Fore
280 -14 m 1
 261 -65 l 1
 270 -63 277 -62 287 -62 c 0
 341 -62 373 -88 373 -131 c 0
 373 -183 325 -215 248 -215 c 0
 216 -215 193 -211 164 -199 c 1
 178 -168 l 1
 205 -177 222 -180 243 -180 c 0
 277 -180 298 -163 298 -136 c 0
 298 -110 283 -100 245 -100 c 0
 233 -100 225 -101 217 -104 c 1
 210 -99 l 1
 246 -11 l 1
 218 -7 195 -2 169 9 c 0
 150 16 133 20 122 20 c 0
 107 20 95 6 94 -13 c 1
 72 -13 l 1
 42 199 l 1
 65 199 l 1
 115 77 178 22 267 22 c 0
 340 22 390 68 390 135 c 0
 390 159 385 180 376 193 c 0
 351 231 299 272 227 310 c 0
 115 369 71 425 71 505 c 0
 71 557 89 599 124 630 c 0
 157 659 201 676 244 676 c 0
 276 676 313 668 350 654 c 1
 367 646 384 642 394 642 c 0
 411 642 422 653 426 676 c 1
 447 676 l 1
 469 463 l 1
 444 463 l 1
 428 522 414 548 383 580 c 0
 348 616 306 635 261 635 c 0
 199 635 157 597 157 542 c 0
 157 488 199 444 304 386 c 0
 436 315 491 250 491 168 c 0
 491 66 403 -14 289 -14 c 2
 280 -14 l 1
EndSplineSet
Ligature: 0 4 'ccmp' s uni0327
EndChar
StartChar: Iogonek
Encoding: 235 302 206
Width: 333
Flags: MW
HStem: -165 56<264.5 316.5> 0 19<266 315> 642 20G<18 315>
VStem: 115 102<109 553> 212 56<-110.5 -60.5>
Fore
315 19 m 1
 315 0 l 1
 310 -1 307 -4 296 -13 c 1
 278 -32 268 -51 268 -70 c 0
 268 -92 284 -109 306 -109 c 0
 327 -109 346 -99 377 -73 c 1
 397 -89 l 1
 360 -142 326 -165 285 -165 c 0
 244 -165 212 -132 212 -89 c 0
 212 -56 227 -31 266 0 c 1
 18 0 l 1
 18 19 l 1
 102 22 115 34 115 109 c 2
 115 553 l 2
 115 627 103 638 18 643 c 1
 18 662 l 1
 315 662 l 1
 315 643 l 1
 231 639 217 626 217 553 c 2
 217 109 l 2
 217 36 233 22 315 19 c 1
EndSplineSet
Ligature: 0 4 'ccmp' I uni0328
EndChar
StartChar: Uogonek
Encoding: 303 370 214
Width: 722
Flags: MW
HStem: -165 56<450.5 503> -14 44<269 415.5> 642 20G<14 297 473 705>
VStem: 104 102<241 553> 398 56<-110.5 -55.5> 567 44<193 515>
Fore
564 -73 m 1
 584 -89 l 1
 546 -142 513 -165 471 -165 c 0
 430 -165 398 -132 398 -89 c 0
 398 -58 414 -31 449 -3 c 1
 416 -10 387 -14 353 -14 c 0
 185 -14 104 69 104 241 c 2
 104 553 l 2
 104 626 93 637 14 643 c 1
 14 662 l 1
 297 662 l 1
 297 643 l 1
 217 636 206 625 206 553 c 2
 206 233 l 2
 206 170 213 133 231 101 c 0
 258 54 307 30 378 30 c 0
 453 30 517 61 544 109 c 0
 560 139 567 177 567 245 c 2
 567 515 l 2
 567 615 551 637 473 643 c 1
 473 662 l 1
 705 662 l 1
 705 643 l 1
 623 633 611 617 611 515 c 2
 611 254 l 2
 611 132 592 88 514 23 c 0
 472 -12 454 -40 454 -71 c 0
 454 -93 471 -109 492 -109 c 0
 514 -109 533 -99 564 -73 c 1
EndSplineSet
Ligature: 0 4 'ccmp' U uni0328
EndChar
StartChar: aogonek
Encoding: 194 261 222
Width: 444
Flags: W
HStem: -165 56<311.5 363.5> -10 58<111.5 200> 436 24<177 253.5>
VStem: 37 88<65.5 167.5> 56 88<336 379.5> 259 56<-110.5 -52> 287 81<83 353>
Fore
287 123 m 2xf2
 287 268 l 1
 221 246 125 209 125 126 c 0
 125 87 148 48 191 48 c 0
 209 48 237 58 253 66 c 0
 282 81 287 91 287 123 c 2xf2
139 387 m 0
 139 372.625 144 356.188 144 347 c 0
 144 325 123 305 99 305 c 0
 76 305 56 325 56 348 c 0
 56 411 130 460 224 460 c 0
 283 460 326 441 348 405 c 0
 363 381 368 352 368 300 c 2
 368 105 l 2xea
 368 61 375 47 398 47 c 0
 413 47 425 52 442 66 c 1
 442 40 l 1
 407 2 396 -4 355 -11 c 0
 331 -16 315 -38 315 -66 c 0
 315 -92 330 -109 353 -109 c 0
 374 -109 393 -99 424 -73 c 1
 444 -89 l 1
 407 -142 373 -165 332 -165 c 0
 291 -165 259 -132 259 -89 c 0xe4
 259 -57 275 -30 313 0 c 1
 297 15 291 30 288 63 c 1
 227 11 186 -10 142 -10 c 0
 81 -10 37 34 37 97 c 0
 37 204.859 163.324 242.208 287 292 c 1
 287 353 l 2
 287 407 260 436 211 436 c 0
 171 436 139 414 139 387 c 0
EndSplineSet
LCarets: 0 65535 '    ' 1 0 
Ligature: 0 4 'ccmp' a uni0328
EndChar
StartChar: ccedilla
Encoding: 164 231 225
Width: 444
Flags: W
HStem: -215 35<176 230.5> -100 38<183.5 258> 431 29<187.5 286>
VStem: 25 77<152.5 308.5> 242 75<-157 -109.5>
Fore
226 -10 m 1
 205 -65 l 1
 215 -63 221 -62 231 -62 c 0
 285 -62 317 -88 317 -131 c 0
 317 -183 269 -215 192 -215 c 0
 160 -215 137 -211 108 -199 c 1
 122 -168 l 1
 149 -177 166 -180 187 -180 c 0
 221 -180 242 -163 242 -136 c 0
 242 -110 227 -100 189 -100 c 0
 178 -100 169 -101 161 -104 c 1
 154 -99 l 1
 192 -8 l 1
 91 5 25 93 25 212 c 0
 25 365 131 460 244 460 c 0
 328 460 398 413 398 357 c 0
 398 334 376 315 351 315 c 0
 329 315 311 332 303 361 c 2
 297 383 l 2
 287 420 274 431 238 431 c 0
 157 431 102 360 102 257 c 0
 102 142 166 62 257 62 c 0
 314 62 350 86 398 156 c 1
 412 147 l 1
 360 42 307 -3 226 -10 c 1
EndSplineSet
LCarets: 0 65535 '    ' 1 0 
Ligature: 0 4 'ccmp' c uni0327
EndChar
StartChar: eogonek
Encoding: 214 281 233
Width: 444
Flags: W
HStem: -165 56<271.5 324> -10 69<155 285> 277 32<97 405> 424 36<173.259 260>
VStem: 25 72<145 288.377> 219 56<-110.5 -57>
Fore
408 164 m 1
 424 157 l 1
 408 113 386 81 330 22 c 0
 288 -22 275 -44 275 -70 c 0
 275 -93 291 -109 313 -109 c 0
 335 -109 354 -99 385 -73 c 1
 405 -89 l 1
 367 -142 334 -165 292 -165 c 0
 251 -165 219 -132 219 -89 c 0
 219 -57 234 -31 272 -1 c 1
 249 -8 234 -10 213 -10 c 0
 97 -10 25 76 25 214 c 0
 25 362.753 112.519 460 234 460 c 0
 286 460 332 439 362 403 c 0
 387 371 397 342 405 277 c 1
 97 277 l 1
 99 216 106 183 124 145 c 0
 153 88 196 59 253 59 c 0
 317 59 360 88 408 164 c 1
99 309 m 1
 303 309 l 1
 290 396 266 424 205 424 c 0
 144 424 110 387 99 309 c 1
EndSplineSet
LCarets: 0 65535 '    ' 1 0 
Ligature: 0 4 'ccmp' e uni0328
EndChar
StartChar: uogonek
Encoding: 304 371 276
Width: 500
Flags: W
HStem: -165 56<367.5 419.5> -10 58<155.5 241> 430 20G<9 155 259 417>
VStem: 71 84<80.5 450> 315 56<-110.5 -58> 333 84<84 450>
Fore
479 50 m 1xf4
 479 36 l 1
 449 29 435 23 415 6 c 0
 389 -16 371 -46 371 -70 c 0
 371 -93 387 -109 409 -109 c 0
 430 -109 449 -99 480 -73 c 1
 500 -89 l 1
 463 -142 429 -165 388 -165 c 0
 347 -165 315 -132 315 -89 c 0xf8
 315 -68 321 -52 338 -29 c 1
 338 76 l 1
 295 33 l 2
 268 6 229 -10 192 -10 c 0
 119 -10 71 41 71 120 c 2
 71 372 l 2
 71 418 57 433 9 436 c 1
 9 450 l 1
 155 450 l 1
 155 124 l 2
 155 82 187 48 226 48 c 0
 256 48 287 60 314 82 c 0
 328 93 333 107 333 135 c 2
 333 370 l 2
 333 420 321 430 259 433 c 1
 259 450 l 1
 417 450 l 1
 417 107 l 2
 417 61 428 50 474 50 c 2
 479 50 l 1xf4
EndSplineSet
LCarets: 0 65535 '    ' 1 0 
Ligature: 0 4 'ccmp' u uni0328
EndChar
StartChar: scedilla
Encoding: 284 351 278
Width: 389
Flags: W
HStem: -215 35<148 202.5> -100 38<155.5 230> -10 22<178 220.5> 437 22<147.5 218.5>
VStem: 51 62<308 389> 214 75<-157 -109.5> 278 70<62 143>
Fore
198 -10 m 1xfa
 177 -65 l 1
 187 -63 193 -62 203 -62 c 0
 257 -62 289 -88 289 -131 c 0
 289 -183 241 -215 164 -215 c 0
 132 -215 109 -211 80 -199 c 1
 94 -168 l 1
 122 -177 138 -180 159 -180 c 0
 193 -180 214 -163 214 -136 c 0xfc
 214 -110 199 -100 161 -100 c 0
 150 -100 141 -101 133 -104 c 1
 126 -99 l 1
 165 -6 l 1
 153 -4 147 -3 134 0 c 0
 110 6 97 8 88 8 c 0
 76 8 72 6 65 -4 c 1
 52 -4 l 1
 52 152 l 1
 68 152 l 1
 81 95 90 72 111 47 c 0
 130 25 161 12 195 12 c 0
 246 12 278 40 278 84 c 0
 278 115 261 139 226 159 c 2
 168 192 l 2
 83 240 51 280 51 336 c 0
 51 408 108 459 187 459 c 0
 213 459 235 455 257 447 c 0
 268 442 278 440 284 440 c 0
 288 440 289 441 298 448 c 2
 300 450 l 1
 311 450 l 1
 315 314 l 1
 300 314 l 1
 277 403 247 437 190 437 c 0
 144 437 113 409 113 369 c 0
 113 342 128 317 156 301 c 2
 264 237 l 2
 324 201 348 168 348 118 c 0
 348 49 284 -10 209 -10 c 2
 198 -10 l 1xfa
EndSplineSet
Ligature: 0 4 'ccmp' s uni0327
EndChar
StartChar: iogonek
Encoding: 236 303 280
Width: 278
Flags: W
HStem: -165 56<145.5 197.5> -20 20G<16 147> 0 21G<220 253> 663 20G<114.5 142.5>
VStem: 93 56<-110.5 -51.5> 95 84<66 457>
Fore
179 457 m 1xf4
 179 102 l 2xf4
 179 30 187 20 253 15 c 1
 253 0 l 1
 220 0 l 2
 182 0 149 -33 149 -70 c 0
 149 -92 165 -109 187 -109 c 0
 208 -109 227 -99 258 -73 c 1
 278 -89 l 1
 241 -142 207 -165 166 -165 c 0
 125 -165 93 -132 93 -89 c 0xf8
 93 -56 108 -31 147 0 c 1
 16 0 l 1
 16 15 l 1
 85 19 95 30 95 102 c 2
 95 334 l 2
 95 378 86 394 62 394 c 0
 53 394 40 393 28 391 c 2
 20 390 l 1
 20 405 l 1
 175 460 l 1
 179 457 l 1xf4
128 683 m 0
 157 683 180 660 180 632 c 0
 180 603 157 581 128 581 c 0
 100 581 78 604 78 632 c 0
 78 660 101 683 128 683 c 0
EndSplineSet
Ligature: 0 4 'ccmp' i uni0328
EndChar
StartChar: Eth
Encoding: 141 208 282
Width: 722
Flags: MW
HStem: 0 37<248.5 404> 315 44<21 104 206 352> 625 37<236.5 395>
VStem: 104 102<109 315 359 553 553 586> 576 109<217 449.5>
AnchorPoint: "Bot" 260 0 basechar 0
AnchorPoint: "Top" 260 712 basechar 0
Fore
685 329 m 0
 685 105 508 0 300 0 c 2
 16 0 l 1
 16 19 l 1
 88 21 104 38 104 109 c 2
 104 315 l 1
 21 315 l 1
 21 359 l 1
 104 359 l 1
 104 553 l 2
 104 627 90 639 16 643 c 1
 16 662 l 1
 286 662 l 2
 504 662 685 570 685 329 c 0
576 328 m 0
 576 417 550 494 483 555 c 0
 417 615 339 625 253 625 c 0
 220 625 206 619 206 586 c 2
 206 359 l 1
 352 359 l 1
 352 315 l 1
 206 315 l 1
 206 78 l 2
 206 36 231 37 266 37 c 0
 456 37 576 123 576 328 c 0
EndSplineSet
EndChar
StartChar: Thorn
Encoding: 155 222 283
Width: 556
Flags: W
HStem: 0 21G<16 296> 158 40<249 388> 494 38<202 303> 642 20G<16 293>
VStem: 433 109<296.5 406.5>
Fore
293 662 m 1
 293 643 l 1
 211 636 201 623 202 532 c 1
 282 532 l 2
 442 532 542 462 542 351 c 0
 542 283 505 158 271 158 c 0
 247 158 229 159 202 161 c 1
 202 109 l 2
 202 36 217 22 296 19 c 1
 296 0 l 1
 16 0 l 1
 16 19 l 1
 92 26 100 36 100 120 c 2
 100 553 l 2
 100 625 90 635 16 643 c 1
 16 662 l 1
 293 662 l 1
202 461 m 2
 202 201 l 1
 225 199 239 198 259 198 c 0
 374 198 433 248 433 345 c 0
 433 448 372 494 234 494 c 0
 209 494 202 487 202 461 c 2
EndSplineSet
EndChar
StartChar: dcroat
Encoding: 206 273 284
Width: 500
Flags: W
HStem: -10 52<157 265.5> 432 28<177.5 264.5> 527 34<219 340 424 500>
VStem: 27 86<141 301.5> 340 84<98.5 332 114 527 561 573>
Fore
340 527 m 1
 219 527 l 1
 219 561 l 1
 340 561 l 1
 340 573 l 2
 340 614 331 624 294 624 c 0
 286 624 280 624 272 623 c 1
 272 639 l 1
 336 656 371 666 419 683 c 1
 424 681 l 1
 424 561 l 1
 500 561 l 1
 500 527 l 1
 424 527 l 1
 424 114 l 2
 424 68 432 57 468 57 c 0
 471 57 473 57 491 58 c 1
 491 42 l 1
 344 -10 l 1
 340 -7 l 1
 340 57 l 1
 306 10 268 -10 212 -10 c 0
 102 -10 27 77 27 205 c 0
 27 347 120 460 235 460 c 0
 275 460 302 449 340 417 c 1
 340 527 l 1
340 102 m 2
 340 332 l 2
 340 385 291 432 238 432 c 0
 162 432 113 358 113 245 c 0
 113 122 168 42 251 42 c 0
 280 42 305 52 323 72 c 0
 333 83 340 95 340 102 c 2
EndSplineSet
EndChar
StartChar: eth
Encoding: 173 240 285
Width: 500
Flags: W
HStem: -10 28<184.5 326> 432 28<177.5 293.5>
VStem: 29 90<157 314.5> 381 90<161.5 343.5>
AnchorPoint: "Bot" 250 0 basechar 0
AnchorPoint: "Top" 250 736 basechar 0
Fore
471 284 m 0
 471 151 403 -10 249 -10 c 0
 120 -10 29 94 29 220 c 0
 29 348 110 460 245 460 c 0
 294 460 330 436 364 403 c 1
 366 405 l 1
 355 470 317 530 270 575 c 1
 147 510 l 1
 114 540 l 1
 235 604 l 1
 196 633 150 653 102 660 c 1
 144 683 l 1
 197 679 251 665 296 636 c 1
 391 686 l 1
 424 656 l 1
 333 608 l 1
 426 530 471 403 471 284 c 0
381 199 m 0
 381 285 349 432 238 432 c 0
 154 432 119 351 119 278 c 0
 119 190 147 18 263 18 c 0
 357 18 381 124 381 199 c 0
EndSplineSet
EndChar
StartChar: thorn
Encoding: 187 254 286
Width: 500
Flags: W
HStem: -217 21G<5 247> -10 32<239 319> 400 60<238 351.5>
VStem: 75 84<-157 594 -131 680> 384 86<152.5 309>
Fore
9 623 m 1
 9 639 l 1
 78 658 106 666 154 683 c 1
 159 680 l 1
 159 382 l 1
 204 436 248 460 303 460 c 0
 400 460 470 371 470 247 c 0
 470 102 378 -10 260 -10 c 0
 218 -10 194 0 159 33 c 1
 159 -124 l 2
 159 -187 172 -198 247 -199 c 1
 247 -217 l 1
 5 -217 l 1
 5 -199 l 1
 64 -194 75 -183 75 -131 c 2
 75 573 l 2
 75 615 66 624 26 624 c 0
 19 624 15 624 9 623 c 1
159 334 m 2
 159 88 l 2
 159 58 216 22 263 22 c 0
 335 22 384 97 384 208 c 0
 384 324 335 400 261 400 c 0
 215 400 159 364 159 334 c 2
EndSplineSet
EndChar
StartChar: Euro
Encoding: 970 8364 287
Width: 741
Flags: W
HStem: -14 44<346.5 509> 253 46<54 109 219 568> 369 46<54 111 219 618> 636 40<357 497>
Fore
224 253 m 1
 245 130 319 30 463 30 c 0
 555 30 625 68 689 131 c 1
 707 113 l 1
 651 30 532 -14 436 -14 c 0
 257 -14 138 91 109 253 c 1
 34 253 l 1
 54 299 l 1
 103 299 l 1
 102 308 102 319 102 331 c 0
 102 344 103 357 104 369 c 1
 34 369 l 1
 54 415 l 1
 111 415 l 1
 145 569 272 676 442 676 c 0
 537 676 653 631 707 549 c 1
 689 531 l 1
 624 594 543 636 451 636 c 0
 394 636 342 613 301 575 c 0
 256 534 234 476 224 415 c 1
 638 415 l 1
 618 369 l 1
 219 369 l 1
 218 356 218 342 218 329 c 0
 218 319 218 309 219 299 c 1
 588 299 l 1
 568 253 l 1
 224 253 l 1
EndSplineSet
EndChar
StartChar: onesuperior
Encoding: 118 185 288
Width: 300
Flags: W
VStem: 110 81<314.5 673>
Fore
248 294 m 1
 248 270 l 1
 57 270 l 1
 57 294 l 1
 100 297 110 303 110 326 c 2
 110 583 l 2
 110 605 108 611 102 611 c 0
 96 611 96 611 59 598 c 1
 59 621 l 1
 177 676 l 1
 191 673 l 1
 191 330 l 2
 191 304 202 297 248 294 c 1
EndSplineSet
EndChar
StartChar: twosuperior
Encoding: 111 178 289
Width: 300
Flags: W
HStem: 270 65<6 259> 613 63<93.5 185>
VStem: 185 92<522 601.5>
Fore
296 355 m 1
 259 270 l 1
 6 270 l 1
 6 293 l 1
 104 400 l 2
 154 454 185 507 185 537 c 0
 185 579 152 613 112 613 c 0
 75 613 48 591 26 543 c 1
 1 557 l 1
 17 603 27 622 48 641 c 1
 71 664 106 676 146 676 c 0
 224 676 277 633 277 570 c 0
 277 521 254 480 193 420 c 2
 107 335 l 1
 228 335 l 2
 255 335 264 340 279 362 c 1
 296 355 l 1
EndSplineSet
EndChar
StartChar: threesuperior
Encoding: 112 179 290
Width: 300
Flags: W
HStem: 262 48<71 162.5> 620 56<113 186>
VStem: 188 76<553 616> 210 81<357.5 424>
Fore
93 460 m 1xd0
 93 489 l 1
 162 513 188 535 188 571 c 0
 188 602 166 620 130 620 c 0
 96 620 76 606 46 563 c 1
 21 581 l 1
 56 649 95 676 156 676 c 0
 216 676 264 639 264 593 c 0xe0
 264 565 247 542 204 511 c 1
 262 488 291 450 291 398 c 0
 291 320 208 262 97 262 c 0
 45 262 14 280 14 312 c 0
 14 333 29 349 49 349 c 0
 60 349 71 344 90 330 c 0
 112 314 123 310 142 310 c 0
 183 310 210 337 210 378 c 0
 210 409 196 434 169 449 c 0
 153 458 128 465 116 463 c 2
 93 460 l 1xd0
EndSplineSet
EndChar
StartChar: degree
Encoding: 109 176 291
Width: 400
Flags: W
HStem: 390 34<159 238.5> 642 34<160 240>
VStem: 57 39<493.5 573> 304 39<492 572.5>
Fore
200 676 m 0
 280 676 343 613 343 532 c 0
 343 452 279 390 198 390 c 0
 120 390 57 454 57 533 c 0
 57 613 120 676 200 676 c 0
200 642 m 0
 143 642 96 592 96 533 c 0
 96 474 143 424 199 424 c 0
 257 424 304 473 304 533 c 0
 304 592 256 642 200 642 c 0
EndSplineSet
EndChar
StartChar: minus
Encoding: 1001 8722 292
Width: 564
Flags: W
HStem: 220 66<30 534>
Fore
534 220 m 1
 30 220 l 1
 30 286 l 1
 534 286 l 1
 534 220 l 1
EndSplineSet
EndChar
StartChar: multiply
Encoding: 148 215 293
Width: 564
Flags: W
Fore
234 253 m 1
 38 449 l 1
 86 497 l 1
 282 300 l 1
 479 497 l 1
 527 449 l 1
 330 253 l 1
 527 56 l 1
 479 8 l 1
 282 205 l 1
 86 8 l 1
 38 56 l 1
 234 253 l 1
EndSplineSet
EndChar
StartChar: divide
Encoding: 180 247 294
Width: 564
Flags: MW
HStem: -10 111<267 296.5> 220 66<30 534> 405 111<267 296.5>
VStem: 227 111<29.5 59.5 444.5 474.5>
Fore
282 516 m 0
 312 516 338 490 338 459 c 0
 338 430 312 405 281 405 c 0
 252 405 227 430 227 459 c 0
 227 490 252 516 282 516 c 0
282 101 m 0
 312 101 338 75 338 44 c 0
 338 15 312 -10 281 -10 c 0
 252 -10 227 15 227 44 c 0
 227 75 252 101 282 101 c 0
534 220 m 1
 30 220 l 1
 30 286 l 1
 534 286 l 1
 534 220 l 1
EndSplineSet
EndChar
StartChar: trademark
Encoding: 978 8482 295
Width: 980
Flags: W
HStem: 574 88<30 375>
VStem: 167 71<332 642> 488 26<343 592> 830 71<308 587>
Fore
238 642 m 1
 238 332 l 2
 238 284 238 284 288 278 c 1
 288 258 l 1
 117 258 l 1
 117 278 l 1
 167 284 167 284 167 332 c 2
 167 642 l 1
 118 642 l 2
 82 642 63 623 50 574 c 1
 30 574 l 1
 30 662 l 1
 375 662 l 1
 375 574 l 1
 355 574 l 1
 341 623 323 642 288 642 c 2
 238 642 l 1
665 256 m 1
 514 566 l 1
 514 343 l 2
 514 295 524 283 567 278 c 1
 567 258 l 1
 436 258 l 1
 436 278 l 1
 478 283 488 295 488 343 c 2
 488 592 l 1
 475 622 449 641 419 642 c 1
 419 662 l 1
 540 662 l 1
 694 353 l 1
 854 662 l 1
 957 662 l 1
 957 642 l 1
 914 639 901 626 901 587 c 2
 901 332 l 2
 901 284 901 284 951 278 c 1
 951 258 l 1
 781 258 l 1
 781 278 l 1
 812 282 816 283 823 287 c 0
 829 291 830 300 830 332 c 2
 830 568 l 1
 676 256 l 1
 665 256 l 1
EndSplineSet
EndChar
StartChar: plusminus
Encoding: 110 177 296
Width: 564
Flags: W
HStem: 0 66<30 534> 282 66<30 249 315 534>
VStem: 249 66<122 282 348 568>
Fore
30 0 m 1
 30 66 l 1
 534 66 l 1
 534 0 l 1
 30 0 l 1
249 348 m 1
 249 568 l 1
 315 568 l 1
 315 348 l 1
 534 348 l 1
 534 282 l 1
 315 282 l 1
 315 122 l 1
 249 122 l 1
 249 282 l 1
 30 282 l 1
 30 348 l 1
 249 348 l 1
EndSplineSet
EndChar
StartChar: estimated
Encoding: 983 8494 300
Width: 533
Flags: W
TeX: 0 0 0 0
HStem: -10 67<205 368> 277 32<122 499> 424 36<205 326.5>
VStem: 35 87<160 290>
Fore
496 160 m 1
 468 62 377 -10 270 -10 c 0
 140 -10 35 95 35 225 c 0
 35 355 140 460 270 460 c 0
 383 460 476 381 499 277 c 1
 122 277 l 1
 122 106 235 57 315 57 c 0
 421 57 463 126 476 169 c 1
 496 160 l 1
125 309 m 1
 388 309 l 1
 375 357 352 424 257 424 c 0
 191 424 145 397 125 309 c 1
EndSplineSet
EndChar
StartChar: copyright
Encoding: 103 169 301
Width: 760
Flags: W
HStem: -14 42<285.5 476.5> 141 20<331.5 437> 512 20<345 437.5> 634 42<288 478.5>
VStem: 38 55<234 427.5> 190 77<274 393> 667 55<234 425.5>
Fore
531 247 m 1
 547 247 l 1
 530 171 l 2
 527 158 449 141 392 141 c 0
 271 141 190 217 190 331 c 0
 190 451 279 532 411 532 c 0
 444 532 483 524 517 510 c 0
 526 507 531 500 531 493 c 2
 531 423 l 1
 514 423 l 1
 505 482 469 512 406 512 c 0
 317 512 267 449 267 337 c 0
 267 226 319 161 407 161 c 0
 467 161 501 185 531 247 c 1
386 676 m 0
 571 676 722 521 722 330 c 0
 722 138 572 -14 381 -14 c 0
 190 -14 38 138 38 330 c 0
 38 525 190 676 386 676 c 0
385 634 m 0
 224 634 93 498 93 330 c 0
 93 166 224 28 381 28 c 0
 537 28 667 166 667 331 c 0
 667 494 537 634 385 634 c 0
EndSplineSet
EndChar
StartChar: registered
Encoding: 107 174 302
Width: 760
Flags: W
HStem: -14 42<285.5 475> 314 19<332 397> 501 19<332 431> 634 42<285.5 477>
VStem: 38 55<234 426.5> 268 64<193.5 501> 444 67<393.5 456> 667 55<231.5 424>
Fore
219 505 m 1
 219 520 l 1
 396 520 l 2
 466 520 511 484 511 428 c 0
 511 380 484 345 432 324 c 1
 489 245 l 2
 517 206 541 180 565 160 c 1
 565 152 l 1
 501 152 l 2
 484 152 460 180 432 231 c 0
 421 251 417 258 380 314 c 1
 332 314 l 1
 332 215 l 2
 332 172 332 172 381 167 c 1
 381 152 l 1
 219 152 l 1
 219 167 l 1
 268 172 268 172 268 215 c 2
 268 456 l 2
 268 500 268 500 219 505 c 1
332 501 m 1
 332 333 l 1
 375 333 l 2
 419 333 444 365 444 422 c 0
 444 474 420 501 373 501 c 2
 332 501 l 1
381 676 m 0
 573 676 722 523 722 325 c 0
 722 138 569 -14 381 -14 c 0
 190 -14 38 138 38 330 c 0
 38 523 190 676 381 676 c 0
381 634 m 0
 224 634 93 496 93 330 c 0
 93 166 224 28 381 28 c 0
 535 28 667 166 667 326 c 0
 667 497 539 634 381 634 c 0
EndSplineSet
EndChar
StartChar: logicalnot
Encoding: 106 172 309
Width: 564
Flags: W
HStem: 320 66<30 534>
VStem: 468 66<108 386>
Fore
468 108 m 1
 468 320 l 1
 30 320 l 1
 30 386 l 1
 534 386 l 1
 534 108 l 1
 468 108 l 1
EndSplineSet
EndChar
StartChar: brokenbar
Encoding: 100 166 312
Width: 200
Flags: W
HStem: -14 21G<67 133> 656 20G<67 133>
VStem: 67 66<-14 262 400 676>
Fore
67 -14 m 1
 67 262 l 1
 133 262 l 1
 133 -14 l 1
 67 -14 l 1
67 400 m 1
 67 676 l 1
 133 676 l 1
 133 400 l 1
 67 400 l 1
EndSplineSet
EndChar
StartChar: mu
Encoding: 114 181 313
Width: 500
Flags: W
HStem: -218 21G<67.5 97.5> -10 62<182.5 255> -10 37<394 469.5> 430 20G<60 148 342 430>
VStem: 36 92<-170 -127> 60 88<54 450> 342 88<92 450>
Fore
430 450 m 1xd6
 430 92 l 2
 430 46 440 27 462 27 c 0
 477 27 489 34 512 55 c 1
 512 47 l 1
 479 4 456 -10 418 -10 c 0xb6
 370 -10 347 18 345 80 c 1
 305 18 263 -10 208 -10 c 0
 157 -10 121 13 91 64 c 1
 95 27 97 17 110 -33 c 0
 123 -85 128 -113 128 -141 c 0
 128 -192 113 -218 82 -218 c 0
 53 -218 36 -192 36 -148 c 0xda
 36 -127 41 -83 48 -43 c 0
 58 13 60 32 60 54 c 2
 60 450 l 1
 148 450 l 1
 148 144 l 2
 148 87 180 52 232 52 c 0
 278 52 318 75 342 115 c 1
 342 450 l 1
 430 450 l 1xd6
EndSplineSet
EndChar
StartChar: afii10018
Encoding: 497 1041 315
Width: 582
Flags: W
HStem: 0 37<222.5 330.763> 354 40<202 316.5> 621 41<16 506>
VStem: 100 102<57.5 351 109 591> 433 109<110.422 245.5>
AnchorPoint: "Bot" 279 0 basechar 0
AnchorPoint: "Top" 279 712 basechar 0
Fore
329 621 m 2
 224 621 l 2
 209 621 202.107 612 202 591 c 2
 202 394 l 1
 271 394 l 2
 501.35 394 542 274.737 542 191 c 0
 542 29.8438 381.525 0 280 0 c 2
 16 0 l 1
 16 19 l 1
 90 27 100 37 100 109 c 2
 100 542 l 2
 100 626 92 636 16 643 c 1
 16 662 l 1
 506 662 l 1
 512 492 l 1
 488 492 l 1
 465 602 443 621 329 621 c 2
202 71 m 2
 202 44 209 37 236 37 c 0
 371 37 433 94 433 197 c 0
 433 294 374 354 259 354 c 0
 239 354 225 353 202 351 c 1
 202 71 l 2
EndSplineSet
EndChar
StartChar: afii10021
Encoding: 500 1044 318
Width: 672
Flags: MW
HStem: -170 21G<23 48 619 644> 0 41<152.5 457> 621 41<113 636>
VStem: 201 43<383 621> 446 102<145 553>
AnchorPoint: "Bot" 334 0 basechar 0
AnchorPoint: "Top" 334 712 basechar 0
Fore
143 109 m 0
 163 152 201 322 201 444 c 2
 201 553 l 2
 201 625 190 636 113 643 c 1
 113 662 l 1
 636 662 l 1
 636 643 l 1
 559 636 548 625 548 553 c 2
 548 128 l 2
 548 56 559 45 636 38 c 1
 644 -170 l 1
 619 -170 l 1
 602 -80 570 0 457 0 c 2
 209 0 l 2
 96 0 65 -80 48 -170 c 1
 23 -170 l 1
 31 38 l 1
 117 39 121 61 143 109 c 0
199 41 m 2
 358 41 l 2
 436.16 41 446 61 446 145 c 2
 446 621 l 1
 244 621 l 1
 244 440 l 2
 244 335 204 142 181 87 c 0
 161.294 39.8763 179 41 199 41 c 2
EndSplineSet
EndChar
StartChar: afii10024
Encoding: 502 1046 321
Width: 948
Flags: MW
HStem: 0 21G<11 175 328 610 763 927> 326 38<406 418 520 532> 556 112<109 174.5 763.5 829> 590 78<126 204 734 756>
VStem: 418 102<109 326 364 553>
AnchorPoint: "Bot" 469 0 basechar 0
AnchorPoint: "Top" 469 712 basechar 0
Fore
326 662 m 1xe8
 612 662 l 1
 612 643 l 1
 531 637 520 626 520 553 c 2
 520 364 l 1
 532 364 l 2
 606 364 636 432 659 520 c 0
 694 652 737 668 790 668 c 0
 834 668 863 652 863 604 c 0
 863 578 839 556 819 556 c 0xe8
 755 556 770 590 742 590 c 0
 726 590 714 572 700 510 c 0
 680 420 640 355 607 347 c 1
 645 341 668 316 696 272 c 1
 784 127 l 2
 853 13 875 20 927 19 c 1
 927 0 l 1
 763 0 l 1
 626 222 l 1
 584 288 586 326 532 326 c 2
 520 326 l 1
 520 109 l 2
 520 36 532 24 610 19 c 1
 610 0 l 1
 328 0 l 1
 328 19 l 1
 406 24 418 36 418 109 c 2
 418 326 l 1
 406 326 l 2
 352 326 354 288 312 222 c 1
 175 0 l 1
 11 0 l 1
 11 19 l 1
 63 20 85 13 154 127 c 2
 242 272 l 1
 270 316 293 341 331 347 c 1
 298 355 258 420 238 510 c 0
 224 572 212 590 196 590 c 0xd8
 168 590 183 556 119 556 c 0
 99 556 75 578 75 604 c 0
 75 652 104 668 148 668 c 0
 201 668 244 652 279 520 c 0
 302 432 332 364 406 364 c 2
 418 364 l 1
 418 553 l 2
 418 626 407 637 326 643 c 1
 326 662 l 1xe8
EndSplineSet
EndChar
StartChar: afii10025
Encoding: 503 1047 322
Width: 530
Flags: W
HStem: -14 42<182 341> 339 36<192 284> 462 21G<52 75> 643 32<186.5 299>
VStem: 366 107<475 573> 381 120<124.5 259.5>
AnchorPoint: "Bot" 266 0 basechar 0
AnchorPoint: "Top" 266 712 basechar 0
Fore
242 28 m 0xf4
 322 28 381 69 381 180 c 0xf4
 381 280 318 339 250 339 c 2
 192 339 l 1
 192 375 l 1
 247 375 l 2
 302 375 366 420 366 530 c 0
 366 610 304 643 236 643 c 0
 137 643 94 592 75 462 c 1
 52 462 l 1
 58 662 l 1
 75 662 l 1
 77 659 l 1
 89 648 92 648 98 648 c 0
 107 648 122 650 138 658 c 0
 170 670 203 675 241 675 c 0
 357 675 473 626 473 520 c 0xf8
 473 438 386 376 326 364 c 1
 376 354 501 328 501 191 c 0
 501 89 438 -14 244 -14 c 0
 120 -14 56 74 30 146 c 1
 46 160 l 1
 92 68 179 28 242 28 c 0xf4
EndSplineSet
EndChar
StartChar: afii10026
Encoding: 504 1048 323
Width: 715
Flags: MW
HStem: 0 21G<12 290 417 695> 642 20G<12 290 417 695>
VStem: 100 102<149 553> 505 102<120 513 513 513>
AnchorPoint: "Bot" 354 0 basechar 0
AnchorPoint: "Top" 354 712 basechar 0
Fore
290 19 m 1
 290 0 l 1
 12 0 l 1
 12 19 l 1
 90 24 100 36 100 120 c 2
 100 553 l 2
 100 625 89 636 12 643 c 1
 12 662 l 1
 290 662 l 1
 290 643 l 1
 213 636 202 625 202 553 c 2
 202 149 l 1
 505 577 l 1
 505 577 519 641 417 643 c 1
 417 662 l 1
 695 662 l 1
 695 643 l 1
 618 636 607 625 607 553 c 2
 607 109 l 2
 607 38 620 25 695 19 c 1
 695 0 l 1
 417 0 l 1
 417 19 l 1
 495 24 505 36 505 120 c 2
 505 513 l 1
 202 85 l 1
 202 85 195 18 290 19 c 1
EndSplineSet
EndChar
StartChar: afii10028
Encoding: 506 1050 325
Width: 690
Flags: W
HStem: 0 21G<12 294 487 651> 326 38<204 273> 590 78<458 536>
VStem: 102 102<78.5 589.5>
AnchorPoint: "Bot" 332 0 basechar 0
AnchorPoint: "Top" 332 712 basechar 0
Fore
587 604 m 0
 587 578 563 556 543 556 c 0
 479 556 494 590 466 590 c 0
 450 590 438 572 424 510 c 0
 404 420 364 355 331 347 c 1
 369 341 392 316 420 272 c 1
 508 127 l 2
 577 13 599 20 651 19 c 1
 651 0 l 1
 487 0 l 1
 350 222 l 1
 308 288 290 326 236 326 c 2
 204 326 l 1
 204 109 l 2
 204 36 216 24 294 19 c 1
 294 0 l 1
 12 0 l 1
 12 19 l 1
 91 24 102 37 102 120 c 2
 102 553 l 2
 102 624 90 637 12 643 c 1
 12 662 l 1
 296 662 l 1
 296 643 l 1
 215 637 204 626 204 553 c 2
 204 364 l 1
 236 364 l 2
 310 364 360 432 383 520 c 0
 418 652 461 668 514 668 c 0
 558 668 587 652 587 604 c 0
EndSplineSet
EndChar
StartChar: afii10029
Encoding: 507 1051 326
Width: 702
Flags: MW
HStem: -13 53<93 190> 621 41<165 682>
VStem: 253 43<356 621> 492 102<120 553>
AnchorPoint: "Bot" 354 0 basechar 0
AnchorPoint: "Top" 404 712 basechar 0
Fore
682 662 m 1
 682 643 l 1
 605 636 594 625 594 553 c 2
 594 109 l 2
 594 38 607 25 682 19 c 1
 682 0 l 1
 404 0 l 1
 404 19 l 1
 482 24 492 36 492 120 c 2
 492 621 l 1
 296 621 l 1
 296 389 l 2
 296 226 264 -13 116 -13 c 0
 70 -13 26 7 26 48 c 0
 26 80 44 100 76 100 c 0
 122 100 108 40 144 40 c 0
 188 40 210.498 93.1178 220 124 c 0
 236 176 253 273 253 356 c 2
 253 553 l 2
 253 625 242 636 165 643 c 1
 165 662 l 1
 682 662 l 1
EndSplineSet
EndChar
StartChar: afii10037
Encoding: 515 1059 334
Width: 730
Flags: W
HStem: -13 37<216.5 290> 643 19<22 302 494 711>
VStem: 142 82<36.5 69>
AnchorPoint: "Bot" 281 0 basechar 0
AnchorPoint: "Top" 369 712 basechar 0
Fore
350 110 m 1
 130 554 l 2
 108 593 88 643 22 643 c 1
 22 662 l 1
 302 662 l 1
 302 643 l 1
 278 642 l 2
 246 641 232 634 232 618 c 0
 232 588 239 568 272 500 c 2
 403 231 l 1
 545 542 l 2
 561 577 561 592 561 607 c 0
 561 632 538 643 494 643 c 1
 494 662 l 1
 711 662 l 1
 711 643 l 1
 647 639 605 566 565 482 c 2
 408 140 l 2
 365 47 332 -13 248 -13 c 0
 185 -13 142 16 142 57 c 0
 142 81 153 100 185 100 c 0
 215 100 224 76 224 56 c 0
 224 36 234 24 265 24 c 0
 303 24 324 58 350 110 c 1
EndSplineSet
EndChar
StartChar: afii10040
Encoding: 518 1062 337
Width: 718
Flags: MW
HStem: -170 21G<678 703> 0 41<13 521> 642 20G<13 290 417 695>
VStem: 101 101<109 542> 505 102<92 128 128 542>
AnchorPoint: "Bot" 349 0 basechar 0
AnchorPoint: "Top" 355 712 basechar 0
Fore
505 553 m 2
 505 624 492 637 417 643 c 1
 417 662 l 1
 695 662 l 1
 695 643 l 1
 617 638 607 626 607 542 c 2
 607 128 l 2
 607 56 618 45 695 38 c 1
 703 -170 l 1
 678 -170 l 1
 661 -80 634 0 521 0 c 2
 13 0 l 1
 13 19 l 1
 90 26 101 37 101 109 c 2
 101 553 l 2
 101 624 88 637 13 643 c 1
 13 662 l 1
 290 662 l 1
 290 643 l 1
 212 638 202 626 202 542 c 2
 202 75 l 2
 202 47 208 40 235 41 c 2
 473 41 l 2
 500 42 505 47 505 75 c 2
 505 553 l 2
EndSplineSet
EndChar
StartChar: afii10041
Encoding: 519 1063 338
Width: 701
Flags: MW
HStem: 0 21G<383 661> 255 44<246.5 346> 642 20G<19 297 383 661>
VStem: 107 102<447 553> 471 102<78 316 109 589>
AnchorPoint: "Bot" 521 0 basechar 0
AnchorPoint: "Top" 340 712 basechar 0
Fore
209 446 m 2
 209 366 229 299 313 299 c 0
 368 299 426 324 471 360 c 1
 471 553 l 2
 471 625 460 636 383 643 c 1
 383 662 l 1
 661 662 l 1
 661 643 l 1
 584 636 573 625 573 553 c 2
 573 109 l 2
 573 38 586 25 661 19 c 1
 661 0 l 1
 383 0 l 1
 383 19 l 1
 461 24 471 36 471 120 c 2
 471 316 l 1
 431 282 376 255 316 255 c 0
 177 255 107 332 107 447 c 2
 107 553 l 2
 107 625 96 636 19 643 c 1
 19 662 l 1
 297 662 l 1
 297 643 l 1
 220 636 209 625 209 553 c 2
 209 446 l 2
EndSplineSet
EndChar
StartChar: afii10042
Encoding: 520 1064 339
Width: 982
Flags: MW
HStem: 0 41<19 963> 642 20G<19 297 352 630 685 963>
VStem: 107 102<109 542> 440 102<75 550> 773 102<75 109 109 542>
AnchorPoint: "Bot" 490 0 basechar 0
AnchorPoint: "Top" 490 712 basechar 0
Fore
773 553 m 2
 773 624 760 637 685 643 c 1
 685 662 l 1
 963 662 l 1
 963 643 l 1
 885 638 875 626 875 542 c 2
 875 109 l 2
 875 37 886 26 963 19 c 1
 963 0 l 1
 19 0 l 1
 19 19 l 1
 96 26 107 37 107 109 c 2
 107 553 l 2
 107 624 94 637 19 643 c 1
 19 662 l 1
 297 662 l 1
 297 643 l 1
 219 638 209 626 209 542 c 2
 209 75 l 2
 209 47 215 40 242 41 c 2
 408 41 l 2
 435 42 440 47 440 75 c 2
 440 553 l 2
 440 624 427 637 352 643 c 1
 352 662 l 1
 630 662 l 1
 630 643 l 1
 552 638 542 634 542 550 c 2
 542 75 l 2
 542 47 548 40 575 41 c 2
 741 41 l 2
 768 42 773 47 773 75 c 2
 773 553 l 2
EndSplineSet
EndChar
StartChar: afii10043
Encoding: 521 1065 340
Width: 986
Flags: MW
HStem: -170 21G<946 971> 0 41<19 789> 642 20G<19 297 352 630 685 963>
VStem: 107 102<109 542> 440 102<75 550> 773 102<92 128 128 542>
AnchorPoint: "Bot" 495 0 basechar 0
AnchorPoint: "Top" 495 712 basechar 0
Fore
773 553 m 2
 773 624 760 637 685 643 c 1
 685 662 l 1
 963 662 l 1
 963 643 l 1
 885 638 875 626 875 542 c 2
 875 128 l 2
 875 56 886 45 963 38 c 1
 971 -170 l 1
 946 -170 l 1
 929 -80 902 0 789 0 c 2
 19 0 l 1
 19 19 l 1
 96 26 107 37 107 109 c 2
 107 553 l 2
 107 624 94 637 19 643 c 1
 19 662 l 1
 297 662 l 1
 297 643 l 1
 219 638 209 626 209 542 c 2
 209 75 l 2
 209 47 215 40 242 41 c 2
 408 41 l 2
 435 42 440 47 440 75 c 2
 440 553 l 2
 440 624 427 637 352 643 c 1
 352 662 l 1
 630 662 l 1
 630 643 l 1
 552 638 542 634 542 550 c 2
 542 75 l 2
 542 47 548 40 575 41 c 2
 741 41 l 2
 768 42 773 47 773 75 c 2
 773 553 l 2
EndSplineSet
EndChar
StartChar: afii10044
Encoding: 522 1066 341
Width: 710
Flags: W
HStem: 0 37<376.5 484.763> 354 40<403 540.175> 621 41<23 450>
VStem: 254 102<57.5 351 109 621> 587 109<110.422 245.5>
AnchorPoint: "Bot" 317 0 basechar 0
AnchorPoint: "Top" 317 712 basechar 0
Fore
254 621 m 1
 200 621 l 2
 88 621 65 601 41 492 c 1
 17 492 l 1
 23 662 l 1
 450 662 l 1
 450 643 l 1
 371 640 356 626 356 553 c 2
 356 391 l 1
 382 393 399 394 425 394 c 0
 655.35 394 696 274.737 696 191 c 0
 696 29.8438 535.525 0 434 0 c 2
 170 0 l 1
 170 19 l 1
 244 27 254 37 254 109 c 2
 254 621 l 1
356 71 m 2
 356 44 363 37 390 37 c 0
 525 37 587 94 587 197 c 0
 587 294 528 354 413 354 c 0
 393 354 379 353 356 351 c 1
 356 71 l 2
EndSplineSet
EndChar
StartChar: afii10045
Encoding: 523 1067 342
Width: 855
Flags: MW
HStem: 0 37<218.5 326.763> 354 40<245 382.175> 642 20G<12 292 538 835>
VStem: 96 102<57.5 351 109 584> 429 109<110.422 245.5> 635 102<109 553>
AnchorPoint: "Bot" 424 0 basechar 0
AnchorPoint: "Top" 424 712 basechar 0
Fore
635 109 m 2
 635 553 l 6
 635 627 623 638 538 643 c 1
 538 662 l 1
 835 662 l 1
 835 643 l 1
 751 639 737 626 737 553 c 6
 737 109 l 2
 737 36 753 22 835 19 c 1
 835 0 l 1
 538 0 l 1
 538 19 l 1
 622 22 635 34 635 109 c 2
198 391 m 1
 224 393 241 394 267 394 c 0
 497.35 394 538 274.737 538 191 c 0
 538 29.8438 377.525 0 276 0 c 2
 12 0 l 1
 12 19 l 1
 86 27 96 37 96 109 c 2
 96 542 l 2
 96 626 88 636 12 643 c 1
 12 662 l 1
 292 662 l 1
 292 643 l 1
 213 640 198 626 198 553 c 2
 198 391 l 1
198 71 m 2
 198 44 205 37 232 37 c 0
 367 37 429 94 429 197 c 0
 429 294 370 354 255 354 c 0
 235 354 221 353 198 351 c 1
 198 71 l 2
EndSplineSet
EndChar
StartChar: afii10046
Encoding: 524 1068 343
Width: 556
Flags: W
HStem: 0 37<222.5 330.763> 354 40<202 316.5> 642 20G<16 296>
VStem: 100 102<57.5 351 109 584> 433 109<110.422 245.5>
AnchorPoint: "Bot" 279 0 basechar 0
AnchorPoint: "Top" 161 712 basechar 0
Fore
202 394 m 1
 271 394 l 2
 501.35 394 542 274.737 542 191 c 0
 542 29.8438 381.525 0 280 0 c 2
 16 0 l 1
 16 19 l 1
 90 27 100 37 100 109 c 2
 100 542 l 2
 100 626 92 636 16 643 c 1
 16 662 l 1
 296 662 l 1
 296 643 l 1
 217 640 202 626 202 553 c 2
 202 394 l 1
202 71 m 2
 202 44 209 37 236 37 c 0
 371 37 433 94 433 197 c 0
 433 294 374 354 259 354 c 0
 239 354 225 353 202 351 c 1
 202 71 l 2
EndSplineSet
EndChar
StartChar: afii10047
Encoding: 525 1069 344
Width: 649
Flags: MW
HStem: -14 44<209.5 353> 315 44<195 499> 450 21G<23 46> 636 40<183 337.5>
VStem: 499 116<269.5 315 359 431.5>
AnchorPoint: "Bot" 312 0 basechar 0
AnchorPoint: "Top" 312 712 basechar 0
Fore
261 636 m 0
 105 636 65 515 46 450 c 1
 23 450 l 1
 32 676 l 1
 53 676 l 1
 59 655 75 643 95 643 c 0
 104 643 119 646 134 652 c 0
 183 668 233 676 280 676 c 0
 362 676 615 624 615 325 c 0
 615 40 382 -14 283 -14 c 0
 170 -14 71 32 10 113 c 1
 28 131 l 1
 102 60 168 30 251 30 c 0
 455 30 499 224 499 315 c 1
 195 315 l 1
 195 359 l 1
 499 359 l 1
 499 504 414 636 261 636 c 0
EndSplineSet
EndChar
StartChar: afii10048
Encoding: 526 1070 345
Width: 958
Flags: MW
HStem: -14 36<500.5 709.5> 318 41<202 312> 640 36<522.5 697.5>
VStem: 100 102<78 589> 312 112<263.5 318 359 437.5> 810 114<226.5 456>
AnchorPoint: "Bot" 468 0 basechar 0
AnchorPoint: "Top" 468 712 basechar 0
Fore
617 676 m 0
 778 676 924 540 924 327 c 0
 924 126 808 -14 611 -14 c 0
 390 -14 312 209 312 318 c 5
 202 318 l 1
 202 109 l 2
 202 38 215 25 290 19 c 1
 290 0 l 1
 12 0 l 1
 12 19 l 1
 90 24 100 36 100 120 c 2
 100 553 l 2
 100 625 89 636 12 643 c 1
 12 662 l 1
 290 662 l 1
 290 643 l 1
 213 636 202 625 202 553 c 2
 202 359 l 1
 312 359 l 1
 312 516 428 676 617 676 c 0
615 22 m 0
 748 22 810 188 810 328 c 0
 810 584 676 640 617 640 c 0
 560 640 424 590 424 329 c 0
 424 84 553.967 22 615 22 c 0
EndSplineSet
EndChar
StartChar: afii10049
Encoding: 527 1071 346
Width: 679
Flags: MW
HStem: 0 21G<17 178 382 659> 625 37<336 441>
VStem: 129 109<419.5 563> 472 102<109 120 120 306 306 306 343 553>
AnchorPoint: "Bot" 338 0 basechar 0
AnchorPoint: "Top" 411 712 basechar 0
Fore
310 319 m 1
 243 332 129 362 129 486 c 0
 129 640 289 662 383 662 c 2
 659 662 l 1
 659 643 l 1
 584 635 574 624 574 553 c 2
 574 120 l 2
 574 37 584 25 659 19 c 1
 659 0 l 1
 382 0 l 1
 382 19 l 1
 459 24 472 37 472 109 c 2
 472 306 l 1
 416 308 l 1
 178 0 l 1
 17 0 l 1
 17 19 l 1
 55 22 75 32 104 66 c 2
 310 319 l 1
472 343 m 1
 472 589 l 2
 472 617 461 625 421 625 c 0
 296 625 238 582 238 488 c 0
 238 351 376 345 472 343 c 1
EndSplineSet
EndChar
StartChar: afii10066
Encoding: 529 1073 348
Width: 500
Flags: W
HStem: -10 28<185 311> 432 28<194.5 314> 598 74<249.5 357>
VStem: 29 90<181.999 358> 380 90<161.5 299.5>
AnchorPoint: "Bot" 250 0 basechar 0
AnchorPoint: "Top" 300 722 basechar 0
Fore
380 199 m 0
 380 285 348 432 237 432 c 0
 152 432 119 349 119 276 c 0
 119 188 147 18 262 18 c 0
 356 18 380 124 380 199 c 0
29 286 m 0
 29 430 54 543 139 625 c 0
 172 657 239 672 260 672 c 2
 357 672 l 2
 399 672 421 672 433 689 c 1
 456 689 l 1
 434 640 418 598 312 598 c 2
 260 598 l 2
 204 597 160 573 127 540 c 0
 73 486 70 382 63 330 c 1
 104 428 166 460 250 460 c 0
 378 460 470 365 470 234 c 0
 470 96 374 -10 248 -10 c 0
 122 -10 29 77.9976 29 286 c 0
EndSplineSet
Substitution: 0 7 'locl' afii10064
EndChar
StartChar: afii10067
Encoding: 530 1074 349
Width: 460
Flags: W
HStem: 0 36<186 285.5> 218 36<162 256.5> 413 37<183 297>
VStem: 78 84<58 399.5> 328 83<311 374> 349 88<81.5 169.5>
AnchorPoint: "Bot" 226 0 basechar 0
AnchorPoint: "Top" 226 500 basechar 0
Fore
15 450 m 1xf4
 234 450 l 2
 360 450 411 408 411 340 c 0xf8
 411 285 354 250 293 237 c 1
 350 233 437 207 437 132 c 0
 437 31 349 0 222 0 c 2
 15 0 l 1
 15 15 l 1
 58 18 78 32 78 84 c 2
 78 333 l 2
 78 383 82 434 15 434 c 1
 15 450 l 1xf4
349 128 m 0xf4
 349 182 307 218 206 218 c 0
 192 218 183 220 162 212 c 1
 162 77 l 2
 162 55 162 36 186 36 c 2
 227 36 l 2
 297 39 349 61 349 128 c 0xf4
162 254 m 1
 213 254 l 2
 293 254 328 290 328 332 c 0xf8
 328 381 295 413 212 413 c 2
 183 413 l 2
 168 413 162 407 162 392 c 2
 162 254 l 1
EndSplineSet
EndChar
StartChar: afii10068
Encoding: 531 1075 350
Width: 400
Flags: W
HStem: 0 21G<15 223> 413 37<15 363>
VStem: 78 84<81 399.5>
AnchorPoint: "Bot" 125 0 basechar 0
AnchorPoint: "Top" 191 500 basechar 0
Fore
265 413 m 2
 183 413 l 2
 168 413 162 407 162 392 c 2
 162 81 l 2
 162 32 174 20 223 15 c 1
 223 0 l 1
 15 0 l 1
 15 15 l 1
 65 19 78 36 78 99 c 2
 78 351 l 2
 78 414 65 431 15 435 c 1
 15 450 l 1
 363 450 l 1
 367 325 l 1
 349 325 l 1
 340 398 325 413 265 413 c 2
EndSplineSet
EndChar
StartChar: afii10069
Encoding: 532 1076 351
Width: 518
Flags: W
HStem: -125 21G<36 54 482 500> 0 37<123 383> 413 37<109 495>
VStem: 172 35<270 413> 350 84<67.5 413>
AnchorPoint: "Bot" 268 0 basechar 0
AnchorPoint: "Top" 268 500 basechar 0
Fore
166 37 m 2
 287 37 l 2
 338 37 350 58 350 121 c 2
 350 413 l 1
 207 413 l 1
 207 288 l 2
 207 194 171 96 157 72 c 0
 139.861 42.6191 151 37 166 37 c 2
172 270 m 2
 172 351 l 2
 172 414 159 431 109 435 c 1
 109 450 l 1
 495 450 l 1
 495 435 l 1
 446 430 434 418 434 369 c 2
 434 99 l 2
 434 36 447 33 497 29 c 1
 500 -125 l 1
 482 -125 l 1
 473 -52 443 0 383 0 c 2
 153 0 l 2
 93 0 63 -52 54 -125 c 1
 36 -125 l 1
 39 29 l 1
 80 30 99.8913 41.8369 124 78 c 0
 140 102 172 207 172 270 c 2
EndSplineSet
EndChar
StartChar: afii10072
Encoding: 534 1078 354
Width: 669
Flags: W
HStem: 0 16<218 452> 224 28<284 293 377 386> 363 92<76 128.75 542 594> 434 16<218 452>
VStem: 293 84<49.5 224 252 383>
AnchorPoint: "Bot" 335 0 basechar 0
AnchorPoint: "Top" 335 500 basechar 0
Fore
218 0 m 1xe8
 218 15 l 1
 238 16 l 2
 278 18 293 32 293 67 c 2
 293 224 l 1
 275 224 269 228 252 200 c 1
 152 0 l 1
 14 0 l 1
 14 15 l 1
 58 18 62 20 92 56 c 1
 146 130 152 230 235 245 c 1
 187 263 170 389 140 389 c 0
 114 389 121 363 87 363 c 0
 65 363 45 380 45 406 c 0
 45 442 69 455 105 455 c 0xe8
 152.5 455 181 406 196 352 c 0
 210 304 243 252 284 252 c 2
 293 252 l 1
 293 383 l 2
 293 418 278 432 238 434 c 2
 218 435 l 1
 218 450 l 1
 452 450 l 1
 452 435 l 1
 432 434 l 2xd8
 392 432 377 418 377 383 c 2
 377 252 l 1
 386 252 l 2
 427 252 460 304 474 352 c 0
 489 406 519 455 565 455 c 0
 601 455 625 442 625 406 c 0
 625 380 605 363 583 363 c 0
 548 363 556 389 530 389 c 0
 500 389 483 263 435 245 c 1
 518 230 524 130 578 56 c 1
 608 20 612 18 656 15 c 1
 656 0 l 1
 518 0 l 1
 418 200 l 1
 401 228 395 224 377 224 c 1
 377 67 l 2
 377 32 392 18 432 16 c 2
 452 15 l 1
 452 0 l 1
 218 0 l 1xe8
EndSplineSet
EndChar
StartChar: afii10073
Encoding: 535 1079 355
Width: 363
Flags: W
HStem: -8 34<134 244> 230 25<135 203> 434 25<139.5 215.5>
VStem: 250 84<311 382> 264 89<89 169.5>
AnchorPoint: "Bot" 192 0 basechar 0
AnchorPoint: "Top" 192 500 basechar 0
Fore
176 26 m 0xe8
 220 26 264 56 264 122 c 0xe8
 264 180 232 230 174 230 c 2
 135 230 l 1
 135 255 l 1
 172 255 l 2
 226 255 250 290 250 353 c 0
 250 398 219 434 173 434 c 0
 106 434 76 402 63 314 c 1
 48 314 l 1
 52 450 l 1
 63 450 l 1
 65 448 l 2
 73 440 75 440 79 440 c 0
 85 440 95 442 106 447 c 0
 128 455 150 459 176 459 c 0
 255 459 334 425 334 339 c 0xf0
 334 283 280 252 239 242 c 1
 272 238 353 209 353 130 c 0
 353 52 310 -8 178 -8 c 0
 90 -8 48 55 31 77 c 1
 45 88 l 1
 81 50 123 26 176 26 c 0xe8
EndSplineSet
EndChar
StartChar: afii10074
Encoding: 536 1080 356
Width: 512
Flags: W
HStem: 0 21G<15 223 289 497> 430 20G<15 223 289 497>
VStem: 78 84<53.5 380> 352 84<53.5 319 70 396.5>
AnchorPoint: "Bot" 256 0 basechar 0
AnchorPoint: "Top" 256 500 basechar 0
Fore
162 130 m 1
 352 374 l 1
 352 380 l 2
 352 413 339 431 289 435 c 1
 289 450 l 1
 497 450 l 1
 497 435 l 1
 448 430 436 413 436 380 c 2
 436 70 l 2
 436 37 448 20 497 15 c 1
 497 0 l 1
 289 0 l 1
 289 15 l 1
 339 19 352 37 352 70 c 2
 352 319 l 1
 162 75 l 1
 162 70 l 2
 162 37 174 20 223 15 c 1
 223 0 l 1
 15 0 l 1
 15 15 l 1
 65 19 78 37 78 70 c 2
 78 380 l 2
 78 413 65 431 15 435 c 1
 15 450 l 1
 223 450 l 1
 223 435 l 1
 174 430 162 413 162 380 c 2
 162 130 l 1
EndSplineSet
EndChar
StartChar: afii10076
Encoding: 538 1082 358
Width: 508
Flags: W
HStem: 0 16<229 249> 224 28<174 203> 363 92<358.5 413> 434 16<229 249>
VStem: 90 84<67 224 82 400.5>
AnchorPoint: "Bot" 256 0 basechar 0
AnchorPoint: "Top" 256 500 basechar 0
Fore
174 383 m 2xd8
 174 252 l 1
 203 252 l 2
 244 252 278 304 291 352 c 0
 306 406 335 455 382 455 c 4
 418 455 442 441 442 408 c 0
 442 382 424 363 402 363 c 0xe8
 365 363 373 389 347 389 c 0
 317 389 300 263 252 245 c 1
 335 230 366 130 420 56 c 1
 450 20 454 18 498 15 c 1
 498 0 l 1
 360 0 l 1
 235 200 l 2
 218 228 192 224 174 224 c 1
 174 67 l 2
 174 32 189 18 229 16 c 2
 249 15 l 1
 249 0 l 1
 15 0 l 1
 15 15 l 1
 87 27 90 30 90 82 c 2
 90 368 l 2
 90 420 87 423 15 435 c 1
 15 450 l 1
 249 450 l 1
 249 435 l 1
 229 434 l 2
 189 432 174 418 174 383 c 2xd8
EndSplineSet
EndChar
StartChar: afii10077
Encoding: 539 1083 359
Width: 495
Flags: W
HStem: -9 84<38.4902 107> 413 37<100 480>
VStem: 163 35<217 413> 335 84<81 413>
AnchorPoint: "Bot" 246 0 basechar 0
AnchorPoint: "Top" 276 500 basechar 0
Fore
335 413 m 1
 198 413 l 1
 198 221 l 2
 198 44 134 -9 80 -9 c 0
 49 -9 14 0 14 32 c 0
 14 54 25.9805 75 51 75 c 0
 85 75 76 50 109 50 c 0
 148 50 163 136 163 217 c 2
 163 351 l 2
 163 414 150 431 100 435 c 1
 100 450 l 1
 480 450 l 1
 480 435 l 1
 431 430 419 418 419 369 c 2
 419 81 l 2
 419 32 431 20 480 15 c 1
 480 0 l 1
 272 0 l 1
 272 15 l 1
 322 19 335 36 335 99 c 2
 335 413 l 1
EndSplineSet
EndChar
StartChar: afii10078
Encoding: 540 1084 360
Width: 626
Flags: W
HStem: 0 21G<15 174 403 611> 430 20G<15 183 446 611>
VStem: 78 35<81 401> 466 84<81 401>
AnchorPoint: "Bot" 313 0 basechar 0
AnchorPoint: "Top" 313 500 basechar 0
Fore
446 450 m 1
 611 450 l 1
 611 435 l 1
 562 430 550 418 550 369 c 2
 550 81 l 2
 550 32 562 20 611 15 c 1
 611 0 l 1
 403 0 l 1
 403 15 l 1
 453 19 466 36 466 99 c 2
 466 401 l 1
 321 36 l 2
 306 -1 299 -14 293 -14 c 0
 287 -14 281 -6 275 12 c 0
 272 20 269 27 267 33 c 1
 113 401 l 1
 113 81 l 6
 113 32 125 20 174 15 c 1
 174 0 l 1
 15 0 l 1
 15 15 l 1
 65 19 78 36 78 99 c 2
 78 351 l 2
 78 414 65 431 15 435 c 1
 15 450 l 1
 183 450 l 1
 317 114 l 1
 446 450 l 1
EndSplineSet
EndChar
StartChar: afii10079
Encoding: 541 1085 361
Width: 497
Flags: W
HStem: 0 21G<15 223 274 482> 216 37<162 337> 430 20G<15 223 274 482>
VStem: 78 84<67.5 382.5 81 216 99 382.5> 337 84<67.5 216 81 393.5>
AnchorPoint: "Bot" 248 0 basechar 0
AnchorPoint: "Top" 248 500 basechar 0
Fore
162 253 m 5
 337 253 l 1
 337 351 l 2
 337 414 324 431 274 435 c 1
 274 450 l 1
 482 450 l 1
 482 435 l 1
 433 430 421 418 421 369 c 2
 421 81 l 2
 421 32 433 20 482 15 c 1
 482 0 l 1
 274 0 l 1
 274 15 l 1
 324 19 337 36 337 99 c 2
 337 216 l 1
 162 216 l 1
 162 81 l 2
 162 32 174 20 223 15 c 1
 223 0 l 1
 15 0 l 1
 15 15 l 1
 65 19 78 36 78 99 c 2
 78 351 l 2
 78 414 65 431 15 435 c 1
 15 450 l 1
 223 450 l 1
 223 435 l 1
 174 430 162 418 162 369 c 2
 162 253 l 5
EndSplineSet
EndChar
StartChar: afii10081
Encoding: 543 1087 363
Width: 517
Flags: W
HStem: 0 21G<15 223 294 502> 413 37<15 502>
VStem: 78 84<81 399.5> 357 84<56.5 392 81 393.5>
AnchorPoint: "Bot" 258 0 basechar 0
AnchorPoint: "Top" 258 500 basechar 0
Fore
183 413 m 2
 168 413 162 407 162 392 c 2
 162 81 l 2
 162 32 174 20 223 15 c 1
 223 0 l 1
 15 0 l 1
 15 15 l 1
 65 19 78 36 78 99 c 2
 78 351 l 2
 78 414 65 431 15 435 c 1
 15 450 l 1
 502 450 l 1
 502 435 l 1
 453 430 441 418 441 369 c 2
 441 81 l 2
 441 32 453 20 502 15 c 1
 502 0 l 1
 294 0 l 1
 294 15 l 1
 344 19 357.215 36 357 99 c 2
 357 392 l 2
 356.949 407 351 413 336 413 c 2
 183 413 l 2
EndSplineSet
EndChar
StartChar: afii10084
Encoding: 546 1090 366
Width: 456
Flags: W
HStem: 0 21G<123 331> 325 125<35 421>
VStem: 186 84<81 413>
AnchorPoint: "Bot" 228 0 basechar 0
AnchorPoint: "Top" 228 500 basechar 0
Fore
421 450 m 1
 425 325 l 1
 407 325 l 1
 398 398 383 413 323 413 c 2
 270 413 l 1
 270 81 l 2
 270 32 282 20 331 15 c 1
 331 0 l 1
 123 0 l 1
 123 15 l 1
 173 19 186 18 186 81 c 2
 186 413 l 1
 133 413 l 2
 73 413 58 398 49 325 c 1
 31 325 l 1
 35 450 l 1
 421 450 l 1
EndSplineSet
EndChar
StartChar: afii10086
Encoding: 548 1092 368
Width: 694
Flags: W
HStem: -215 21G<227 463> -10 34<153 243.5 448.5 539> 426 34<153 245 447 539>
VStem: 24 85<162 288> 304 84<-131 44 90 375 406 681> 583 85<162 288>
CounterMasks: 1 00
AnchorPoint: "Bot" 346 -215 basechar 0
AnchorPoint: "Top" 346 733 basechar 0
Fore
388 360 m 2
 388 90 l 2
 388 60 425 24 472 24 c 0
 544 24 583 114 583 225 c 0
 583 341 544 426 470 426 c 0
 424 426 388 390 388 360 c 2
304 360 m 2
 304 390 268 426 222 426 c 0
 148 426 109 341 109 225 c 0
 109 114 148 24 220 24 c 0
 267 24 304 60 304 90 c 2
 304 360 l 2
388 44 m 1
 388 -131 l 2
 388 -186 400 -196 463 -200 c 1
 463 -215 l 1
 227 -215 l 1
 227 -200 l 1
 290 -195 304 -182 304 -128 c 2
 304 44 l 1
 278 8 239 -10 199 -10 c 0
 107 -10 24 99 24 225 c 0
 24 351 107 460 199 460 c 0
 239 460 278 442 304 406 c 1
 304 560 l 2
 304 607 297 617 263 617 c 0
 254 617 247 617 238 616 c 1
 238 632 l 1
 293 649 328 662 382 683 c 1
 388 681 l 1
 388 406 l 1
 414 442 453 460 493 460 c 0
 585 460 668 351 668 225 c 0
 668 99 585 -10 493 -10 c 0
 453 -10 414 8 388 44 c 1
EndSplineSet
EndChar
StartChar: afii10088
Encoding: 550 1094 370
Width: 497
Flags: W
HStem: -125 21G<467 485> 0 37<15 368> 430 20G<15 223 274 482>
VStem: 76 84<50.5 369> 335 84<50.5 369>
AnchorPoint: "Bot" 250 0 basechar 0
AnchorPoint: "Top" 250 500 basechar 0
Fore
160 58 m 2
 160 43 166 37 181 37 c 2
 314 37 l 2
 329 37 335 43 335 58 c 2
 335 369 l 2
 335 418 323 430 274 435 c 1
 274 450 l 1
 482 450 l 1
 482 435 l 1
 432 431 419 414 419 351 c 2
 419 99 l 2
 419 36 432 19 482 15 c 1
 485 -125 l 1
 467 -125 l 1
 458 -52 428 0 368 0 c 2
 15 0 l 1
 15 15 l 1
 64 20 76 32 76 81 c 2
 76 369 l 2
 76 418 64 430 15 435 c 1
 15 450 l 1
 223 450 l 1
 223 435 l 1
 173 431 160 414 160 351 c 2
 160 58 l 2
EndSplineSet
EndChar
StartChar: afii10089
Encoding: 551 1095 371
Width: 480
Flags: W
HStem: 0 21G<257 465> 133 49<181.5 257> 430 20G<13 221 257 465>
VStem: 76 84<252 369> 320 84<67.5 183 81 393.5>
AnchorPoint: "Bot" 359 0 basechar 0
AnchorPoint: "Top" 239 500 basechar 0
Fore
160 254 m 1
 159 211 198.986 182 234 182 c 0
 280 182 303 207 320 230 c 1
 320 351 l 2
 320 414 307 431 257 435 c 1
 257 450 l 1
 465 450 l 1
 465 435 l 1
 416 430 404 418 404 369 c 2
 404 81 l 2
 404 32 416 20 465 15 c 1
 465 0 l 1
 257 0 l 1
 257 15 l 1
 307 19 320 36 320 99 c 2
 320 183 l 1
 293 153 249 133 204 133 c 0
 159 133 75 165 76 252 c 1
 76 351 l 2
 76 414 63 431 13 435 c 1
 13 450 l 1
 221 450 l 1
 221 435 l 1
 172 430 160 418 160 369 c 2
 160 254 l 1
EndSplineSet
EndChar
StartChar: afii10090
Encoding: 552 1096 372
Width: 698
Flags: W
HStem: 0 37<15 683> 430 20G<15 223 245 453 475 683>
VStem: 76 84<50.5 369> 306 84<50.5 369> 536 84<50.5 369>
CounterMasks: 1 00
AnchorPoint: "Bot" 349 0 basechar 0
AnchorPoint: "Top" 349 500 basechar 0
Fore
160 58 m 2
 160 43 166 37 181 37 c 2
 285 37 l 2
 300 37 306 43 306 58 c 2
 306 369 l 2
 306 418 294 430 245 435 c 1
 245 450 l 1
 453 450 l 1
 453 435 l 1
 403 431 390 414 390 351 c 2
 390 58 l 2
 390 43 396 37 411 37 c 2
 515 37 l 2
 530 37 536 43 536 58 c 2
 536 369 l 2
 536 418 524 430 475 435 c 1
 475 450 l 1
 683 450 l 1
 683 435 l 1
 633 431 620 414 620 351 c 2
 620 99 l 2
 620 36 633 19 683 15 c 1
 683 0 l 1
 15 0 l 1
 15 15 l 1
 64 20 76 32 76 81 c 2
 76 369 l 2
 76 418 64 430 15 435 c 1
 15 450 l 1
 223 450 l 1
 223 435 l 1
 173 431 160 414 160 351 c 2
 160 58 l 2
EndSplineSet
EndChar
StartChar: afii10091
Encoding: 553 1097 373
Width: 705
Flags: W
HStem: -122 21G<668 686> 0 37<15 569> 430 20G<15 223 245 453 475 683>
VStem: 76 84<50.5 369> 306 84<50.5 369> 536 84<58 393.5>
CounterMasks: 1 00
AnchorPoint: "Bot" 350 0 basechar 0
AnchorPoint: "Top" 350 500 basechar 0
Fore
536 369 m 2
 536 418 524 430 475 435 c 1
 475 450 l 1
 683 450 l 1
 683 435 l 1
 633 431 620 414 620 351 c 2
 620 99 l 2
 620 36 633 19 683 15 c 1
 686 -122 l 1
 668 -122 l 1
 659 -49 629 0 569 0 c 2
 15 0 l 1
 15 15 l 1
 64 20 76 32 76 81 c 2
 76 369 l 2
 76 418 64 430 15 435 c 1
 15 450 l 1
 223 450 l 1
 223 435 l 1
 173 431 160 414 160 351 c 2
 160 58 l 2
 160 43 166 37 181 37 c 2
 285 37 l 2
 300 37 306 43 306 58 c 2
 306 369 l 2
 306 418 294 430 245 435 c 1
 245 450 l 1
 453 450 l 1
 453 435 l 1
 403 431 390 414 390 351 c 2
 390 58 l 2
 390 43 396 37 411 37 c 2
 515 37 l 2
 530 37 536 43 536 58 c 2
 536 369 l 2
EndSplineSet
EndChar
StartChar: afii10092
Encoding: 554 1098 374
Width: 495
Flags: W
HStem: 0 36<249.5 365> 220.5 33.5<238 356> 413 37<18 154>
VStem: 154 84<58 413> 385 95<107 166>
AnchorPoint: "Bot" 247 0 basechar 0
AnchorPoint: "Top" 207 500 basechar 0
Fore
238 212 m 1
 238 77 l 2
 238 55 237 36 262 36 c 2
 301 36 l 2
 356 36 385 92 385 122 c 0
 385 183 362 220.5 294 220.5 c 0
 267.495 220.5 255 216 238 212 c 1
91 0 m 1
 91 15 l 1
 134 18 154 32 154 84 c 2
 154 413 l 1
 116 413 l 2
 56 413 41 398 32 325 c 1
 14 325 l 1
 18 450 l 1
 301 450 l 1
 301 434 l 1
 234 434 238 383 238 333 c 2
 238 254 l 1
 286 254 l 2
 426 254 480 200 480 132 c 4
 480 86 450 0 280 0 c 2
 91 0 l 1
EndSplineSet
EndChar
StartChar: afii10093
Encoding: 555 1099 375
Width: 620
Flags: W
HStem: 0 36<173.5 225> 220.5 33.5<162 252> 434 16<15 225 397 605>
VStem: 78 84<58 358> 309 95<107 166> 460 84<56.5 369>
AnchorPoint: "Bot" 310 0 basechar 0
AnchorPoint: "Top" 310 500 basechar 0
Fore
15 0 m 1
 15 15 l 1
 58 18 78 32 78 84 c 2
 78 333 l 2
 78 383 82 434 15 434 c 1
 15 450 l 1
 225 450 l 1
 225 434 l 1
 158 434 162 383 162 333 c 2
 162 254 l 1
 210 254 l 2
 350 254 404 200 404 132 c 0
 404 86 374 1.48619e-05 204 0 c 2
 15 0 l 1
162 212 m 1
 162 77 l 2
 162 55 161 36 186 36 c 2
 225 36 l 2
 280 36 309 92 309 122 c 0
 309 183 286 220.5 218 220.5 c 0
 191.495 220.5 179 216 162 212 c 1
460 99 m 2
 460 351 l 2
 460 414 452 434 397 434 c 1
 397 450 l 1
 605 450 l 1
 605 434 l 1
 562 434 544 418 544 369 c 2
 544 81 l 2
 544 32 558 17 605 15 c 1
 605 0 l 1
 397 0 l 1
 397 15 l 1
 450 16 460 36 460 99 c 2
EndSplineSet
EndChar
StartChar: afii10094
Encoding: 556 1100 376
Width: 419
Flags: W
HStem: 0 36<173.5 289> 220.5 33.5<162 280> 434 16<15 225>
VStem: 78 84<77 358> 309 95<107 166>
AnchorPoint: "Bot" 210 0 basechar 0
AnchorPoint: "Top" 122 500 basechar 0
Fore
162 212 m 1
 162 77 l 2
 162 55 161 36 186 36 c 2
 225 36 l 2
 280 36 309 92 309 122 c 0
 309 183 286 220.5 218 220.5 c 0
 191.495 220.5 179 216 162 212 c 1
15 0 m 1
 15 15 l 1
 58 18 78 32 78 84 c 2
 78 333 l 2
 78 383 82 434 15 434 c 1
 15 450 l 1
 225 450 l 1
 225 434 l 1
 158 434 162 383 162 333 c 2
 162 254 l 1
 210 254 l 2
 350 254 404 200 404 132 c 0
 404 86 374 0 204 0 c 2
 15 0 l 1
EndSplineSet
EndChar
StartChar: afii10095
Encoding: 557 1101 377
Width: 446
Flags: MW
HStem: -8 38<143 257> 217 37<134 320> 434 29<159 258.5>
VStem: 320 96<217 217 254 254>
AnchorPoint: "Bot" 196 0 basechar 0
AnchorPoint: "Top" 196 500 basechar 0
Fore
320 254 m 1
 322 332 298 434 190 434 c 0
 128 434 76 402 63 314 c 1
 48 314 l 1
 52 450 l 1
 63 450 l 1
 65 448 l 2
 73 440 75 440 79 440 c 0
 85 440 95 442 106 447 c 0
 128 455 155 463 186 463 c 0
 331 463 416 361 416 224 c 0
 416 95 321 -8 193 -8 c 0
 102 -8 64 30 31 79 c 1
 50 94 l 1
 78 58 122 30 164 30 c 0
 270 30 321 138 320 217 c 1
 134 217 l 1
 134 254 l 1
 320 254 l 1
EndSplineSet
EndChar
StartChar: afii10096
Encoding: 558 1102 378
Width: 666
Flags: MW
HStem: -10 28<368.5 493> 216 37<162 228> 432 28<371.5 496>
VStem: 78 84<67.5 393.5> 227 89<216 216 253 253> 545 92<132.5 299.5>
AnchorPoint: "Bot" 326 0 basechar 0
AnchorPoint: "Top" 326 500 basechar 0
Fore
419 432 m 0
 348 432 316 360 316 275 c 0
 316 154 339 18 442 18 c 0
 513 18 545 90 545 175 c 0
 545 296 522 432 419 432 c 0
227 216 m 1
 162 216 l 1
 162 81 l 2
 162 32 174 20 223 15 c 1
 223 0 l 1
 15 0 l 1
 15 15 l 1
 65 19 78 36 78 99 c 2
 78 351 l 2
 78 414 65 431 15 435 c 1
 15 450 l 1
 223 450 l 1
 223 435 l 1
 174 430 162 418 162 369 c 2
 162 253 l 1
 227 253 l 1
 238 376 311 460 432 460 c 0
 560 460 637 365 637 234 c 0
 637 96 556 -10 430 -10 c 0
 307 -10 232 86 227 216 c 1
EndSplineSet
EndChar
StartChar: afii10097
Encoding: 559 1103 379
Width: 499
Flags: W
HStem: 0 16<274 484> 196 36<287 337> 414 36<224 325.5>
VStem: 89 79<282.5 353.5> 337 84<92 366 117 392>
AnchorPoint: "Bot" 248 0 basechar 0
AnchorPoint: "Top" 300 500 basechar 0
Fore
203 200 m 1
 146 207 89 247 89 318 c 0
 89 389 153 450 295 450 c 2
 484 450 l 1
 484 435 l 1
 441 432 421 418 421 366 c 2
 421 117 l 2
 421 67 417 16 484 16 c 1
 484 0 l 1
 274 0 l 1
 274 16 l 1
 341 16 337 67 337 117 c 2
 337 196 l 1
 290 196 l 1
 136 0 l 1
 13 0 l 1
 13 16 l 1
 57 19 59 21 87 56 c 2
 203 200 l 1
313 414 m 2
 277 414 l 2
 196 413 168 357 168 328 c 0
 168 258 229 232 287 232 c 2
 287 232 318 232 337 232 c 1
 337 373 l 2
 337 395 338 414 313 414 c 2
EndSplineSet
EndChar
StartChar: afii10051
Encoding: 482 1026 381
Width: 768
Flags: W
HStem: -13 33<474.5 572.5> 378 44<449.5 577.5> 492 170<23 587>
VStem: 254 102<0 620> 400 82<36.5 69> 609 110<144 276>
AnchorPoint: "Bot" 430 0 basechar 0
AnchorPoint: "Top" 305 712 basechar 0
Fore
506 -13 m 0
 443 -13 400 16 400 57 c 0
 400 81 411 100 443 100 c 0
 472.71 100 482 75.5 482 55.5 c 0
 482 36.5 492 20 523 20 c 0
 587 20 609 76 609 212 c 0
 609 288 601.744 378 480 378 c 0
 419 378 356 321 356 302 c 2
 356 0 l 1
 160 0 l 1
 160 19 l 1
 243 24 254 35 254 120 c 2
 254 620 l 1
 200 620 l 2
 88 620 65 601 41 492 c 1
 17 492 l 1
 23 662 l 1
 587 662 l 1
 593 492 l 1
 569 492 l 1
 546 602 524 620 410 620 c 2
 356 620 l 1
 356 345 l 1
 390 388 438 422 505 422 c 0
 650 422 719 324 719 228 c 0
 719 85.8467 639 -13 506 -13 c 0
EndSplineSet
EndChar
StartChar: afii10053
Encoding: 484 1028 383
Width: 649
Flags: MW
HStem: -14 44<290 433.5> 315 44<144 448> 450 21G<597 620> 636 40<305.5 460>
VStem: 28 116<269.5 315 359 431.5>
AnchorPoint: "Bot" 380 0 basechar 0
AnchorPoint: "Top" 380 712 basechar 0
Fore
382 636 m 0
 229 636 144 504 144 359 c 1
 448 359 l 1
 448 315 l 1
 144 315 l 1
 144 224 188 30 392 30 c 0
 475 30 541 60 615 131 c 1
 633 113 l 1
 572 32 473 -14 360 -14 c 0
 261 -14 28 40 28 325 c 0
 28 624 281 676 363 676 c 0
 410 676 460 668 509 652 c 0
 524 646 539 643 548 643 c 0
 568 643 584 655 590 676 c 1
 611 676 l 1
 620 450 l 1
 597 450 l 1
 578 515 538 636 382 636 c 0
EndSplineSet
EndChar
StartChar: afii10058
Encoding: 489 1033 388
Width: 955
Flags: W
HStem: -13 53<93 190> 0 37<614.5 725> 334 40<594 708.5> 621 41<165 682>
VStem: 253 43<305.5 621> 492 102<57.5 331 120 621> 825 109<108.5 235.5>
AnchorPoint: "Bot" 354 0 basechar 0
AnchorPoint: "Top" 404 712 basechar 0
Fore
296 389 m 2x7e
 296 226 264 -13 116 -13 c 0
 70 -13 26 7 26 48 c 0
 26 80 44 100 76 100 c 0
 122 100 108 40 144 40 c 0xbe
 188 40 210 93 220 124 c 0
 236 176 253 264 253 347 c 2
 253 553 l 2
 253 625 242 636 165 643 c 1
 165 662 l 1
 682 662 l 1
 682 643 l 1
 603 640 594 626 594 553 c 2
 594 374 l 1
 663 374 l 2
 893 374 934 258 934 181 c 0
 934 36 778 0 672 0 c 2
 404 0 l 1
 404 19 l 1
 482 24 492 36 492 120 c 2
 492 621 l 1
 296 621 l 1
 296 389 l 2x7e
594 71 m 2
 594 44 601 37 628 37 c 0x7e
 763 37 825 84 825 187 c 0
 825 284 766 334 651 334 c 0
 631 334 617 333 594 331 c 1
 594 71 l 2
EndSplineSet
EndChar
StartChar: afii10059
Encoding: 490 1034 389
Width: 961
Flags: MW
HStem: 0 37<627.5 738.219> 330 44<202 505> 642 20G<12 290 417 701>
VStem: 100 102<78 589> 505 102<120 330 330 330 374 553> 838 109<108.6 235.5>
AnchorPoint: "Bot" 347 0 basechar 0
AnchorPoint: "Top" 347 712 basechar 0
Fore
417 19 m 1
 495 24 505 36 505 120 c 2
 505 330 l 1
 202 330 l 1
 202 109 l 2
 202 38 215 25 290 19 c 1
 290 0 l 1
 12 0 l 1
 12 19 l 1
 90 24 100 36 100 120 c 2
 100 553 l 2
 100 625 89 636 12 643 c 1
 12 662 l 1
 290 662 l 1
 290 643 l 1
 213 636 202 625 202 553 c 2
 202 374 l 1
 505 374 l 1
 505 553 l 6
 505 625 494 636 417 643 c 1
 417 662 l 1
 701 662 l 1
 701 643 l 1
 622 640 607 626 607 553 c 6
 607 374 l 1
 676 374 l 2
 906.35 374 947 257.597 947 181 c 0
 947 36.2002 791.438 0 685 0 c 2
 417 0 l 1
 417 19 l 1
607 71 m 2
 607 44 614 37 641 37 c 0
 776 37 838 84 838 187 c 0
 838 284 779 334 664 334 c 0
 644 334 630 333 607 331 c 1
 607 71 l 2
EndSplineSet
EndChar
StartChar: afii10060
Encoding: 491 1035 390
Width: 829
Flags: W
HStem: 0 21G<160 452> 362 44<481 580.5> 492 170<23 587>
VStem: 254 102<77.5 621>
AnchorPoint: "Bot" 495 0 basechar 0
AnchorPoint: "Top" 305 712 basechar 0
Fore
356 301 m 1
 356 109 l 2
 356 36 370 23 452 19 c 1
 452 0 l 1
 160 0 l 1
 160 19 l 1
 243 24 254 35 254 120 c 2
 254 621 l 1
 200 621 l 2
 88 621 65 601 41 492 c 1
 17 492 l 1
 23 662 l 1
 587 662 l 1
 593 492 l 1
 569 492 l 1
 546 602 524 621 410 621 c 2
 356 621 l 1
 356 345 l 1
 396 379 451 406 511 406 c 0
 650 406 720 329 720 214 c 2
 720 108 l 2
 720 36 731 25 808 18 c 1
 808 -1 l 1
 530 -1 l 1
 530 18 l 1
 607 25 618 36 618 108 c 2
 618 215 l 2
 618 295 598 362 514 362 c 0
 459 362 401 337 356 301 c 1
EndSplineSet
EndChar
StartChar: afii10145
Encoding: 495 1039 394
Width: 715
Flags: MW
HStem: -183 21G<328 384> 0 41<235 473> 642 20G<12 290 417 695>
VStem: 100 102<109 542 542 553> 505 102<75 109 109 542 542 542>
AnchorPoint: "Bot" 360 -183 basechar 0
AnchorPoint: "Top" 360 712 basechar 0
Fore
202 553 m 2
 202 75 l 2
 202.413 47.0029 208.017 40.0654 235 41 c 2
 473 41 l 2
 499.983 41.9346 505.062 47 505 75 c 2
 505 542 l 2
 504.815 626 495 638 417 643 c 1
 417 662 l 1
 695 662 l 1
 695 643 l 1
 620 637 607 624 607 553 c 2
 607 109 l 2
 607 37 618 26 695 19 c 1
 695 0 l 1
 418 0 l 1
 382 -26 384 -183 384 -183 c 1
 328 -183 l 1
 328 -183 332 -30 292 0 c 1
 12 0 l 1
 12 19 l 1
 89 26 100 37 100 109 c 2
 100 542 l 2
 100 626 90 638 12 643 c 1
 12 662 l 1
 290 662 l 1
 290 643 l 1
 215 637 200.951 623.992 202 553 c 2
EndSplineSet
EndChar
StartChar: afii10099
Encoding: 562 1106 396
Width: 500
Flags: W
HStem: -190 34<216 309> 0 21G<9 225> 406 54<248.5 363> 526 37<12 73 157 355>
VStem: 73 84<102 526 563 573> 358 84<63 290>
AnchorPoint: "Bot" 282 -217 basechar 0
AnchorPoint: "Top" 200 733 basechar 0
Fore
442 219 m 0
 442 -88 358 -190 243 -190 c 0
 189 -190 149 -167 149 -135 c 0
 149 -113 167 -96 190 -96 c 0
 206 -96 220 -105 238 -128 c 0
 255 -149 265 -156 280 -156 c 0
 338 -156 358 -84 358 210 c 0
 358 369 317 406 268 406 c 0
 229 406 199 389 157 343 c 1
 157 102 l 2
 157 33 167 21 225 15 c 1
 225 0 l 1
 9 0 l 1
 9 15 l 1
 67 23 73 32 73 102 c 2
 73 526 l 1
 12 526 l 1
 12 563 l 1
 73 563 l 1
 73 573 l 2
 73 617 57 633 10 623 c 1
 10 639 l 1
 58 653 105 666 152 683 c 1
 157 680 l 1
 157 563 l 1
 355 563 l 1
 355 526 l 1
 157 526 l 1
 157 376 l 1
 203 436 245 460 304 460 c 0
 422 460 442 361 442 219 c 0
EndSplineSet
EndChar
StartChar: afii10101
Encoding: 564 1108 398
Width: 444
Flags: MW
HStem: -8 38<190 304> 217 37<127 313> 434 29<188.5 288>
VStem: 31 96<217 224>
AnchorPoint: "Bot" 260 0 basechar 0
AnchorPoint: "Top" 260 500 basechar 0
Fore
127 254 m 1
 313 254 l 1
 313 217 l 1
 127 217 l 1
 126 138 177 30 283 30 c 0
 325 30 369 58 397 94 c 1
 416 79 l 1
 383 30 345 -8 254 -8 c 0
 126 -8 31 95 31 224 c 0
 31 361 116 463 261 463 c 0
 292 463 319 455 341 447 c 0
 352 442 362 440 368 440 c 0
 372 440 374 440 382 448 c 2
 384 450 l 1
 395 450 l 1
 399 314 l 1
 384 314 l 1
 371 402 319 434 257 434 c 0
 149 434 125 332 127 254 c 1
EndSplineSet
EndChar
StartChar: afii10106
Encoding: 569 1113 403
Width: 676
Flags: W
HStem: -9 84<38.4902 107> 0 36<430.5 546> 220.5 33.5<419 537> 413 37<100 482>
VStem: 163 35<217 413> 335 84<77 413> 566 95<107 166>
AnchorPoint: "Bot" 246 0 basechar 0
AnchorPoint: "Top" 276 500 basechar 0
Fore
419 212 m 1x7e
 419 77 l 2
 419 55 418 36 443 36 c 2
 482 36 l 2
 537 36 566 92 566 122 c 0
 566 183 543 220.5 475 220.5 c 0
 448.495 220.5 436 216 419 212 c 1x7e
272 0 m 1
 272 15 l 1
 322 19 335.2 36 335 99 c 2
 335 413 l 1
 198 413 l 1
 198 221 l 2
 198 44 134 -9 80 -9 c 0
 49 -9 14 0 14 32 c 0
 14 54 25.9805 75 51 75 c 0xbe
 85 75 76 50 109 50 c 0
 148 50 163 136 163 217 c 2
 163 351 l 2
 163 414 150 431 100 435 c 1
 100 450 l 1
 482 450 l 1
 482 434 l 1
 415 434 419 383 419 333 c 2
 419 254 l 1
 467 254 l 2
 607 254 661 200 661 132 c 0
 661 86 631 0 461 0 c 2
 272 0 l 1
EndSplineSet
EndChar
StartChar: afii10107
Encoding: 570 1114 404
Width: 681
Flags: W
HStem: 0 36<435.5 551> 216 37<165 340> 434 16<277 487>
VStem: 81 84<67.5 393.5> 340 84<77 216 253 382.5> 571 95<107 166>
AnchorPoint: "Bot" 248 0 basechar 0
AnchorPoint: "Top" 248 500 basechar 0
Fore
424 212 m 1
 424 77 l 2
 424 55 423 36 448 36 c 2
 487 36 l 2
 542 36 571 92 571 122 c 0
 571 183 548 220.5 480 220.5 c 0
 453.495 220.5 441 216 424 212 c 1
277 0 m 1
 277 15 l 1
 327 19 340 36 340 99 c 2
 340 216 l 1
 165 216 l 1
 165 81 l 2
 165 32 177 20 226 15 c 1
 226 0 l 1
 18 0 l 1
 18 15 l 1
 68 19 81 36 81 99 c 2
 81 351 l 2
 81 414 68 431 18 435 c 1
 18 450 l 1
 226 450 l 1
 226 435 l 1
 177 430 165 418 165 369 c 2
 165 253 l 1
 340 253 l 1
 340 351 l 2
 340 414 327 431 277 435 c 1
 277 450 l 1
 487 450 l 1
 487 434 l 1
 420 434 424 383 424 333 c 2
 424 254 l 1
 472 254 l 2
 612 254 666 200 666 132 c 0
 666 86 636 0 466 0 c 2
 277 0 l 1
EndSplineSet
EndChar
StartChar: afii10108
Encoding: 571 1115 405
Width: 500
Flags: W
HStem: 0 21G<9 225 275 487> 406 54<244 352.5> 526 37<12 73 157 354>
VStem: 73 84<102 526 563 573> 343 84<71 301>
AnchorPoint: "Bot" 248 0 basechar 0
AnchorPoint: "Top" 200 733 basechar 0
Fore
487 0 m 1
 275 0 l 1
 275 15 l 1
 337 21 343 40 343 102 c 2
 343 300 l 2
 343 353 329 406 266 406 c 0
 222 406 184 374 157 343 c 1
 157 102 l 2
 157 40 163 21 225 15 c 1
 225 0 l 1
 9 0 l 1
 9 15 l 1
 72 23 73 41 73 102 c 2
 73 526 l 5
 12 526 l 5
 12 563 l 1
 73 563 l 1
 73 573 l 2
 73 617 57 633 10 623 c 1
 10 639 l 1
 58 653 105 666 152 683 c 1
 157 680 l 1
 157 563 l 1
 354 563 l 1
 354 526 l 5
 157 526 l 5
 157 378 l 1
 159 378 l 1
 193 427 242 460 303 460 c 0
 402 460 427 385 427 301 c 2
 427 102 l 2
 427 43 427 25 487 15 c 1
 487 0 l 1
EndSplineSet
EndChar
StartChar: afii10193
Encoding: 575 1119 409
Width: 500
Flags: W
HStem: -130 21G<230 270> 0 37<178.5 319> 430 20G<18 226 277 485>
VStem: 81 84<50.5 369> 340 84<50.5 369>
AnchorPoint: "Bot" 252 -130 basechar 0
AnchorPoint: "Top" 252 500 basechar 0
Fore
165 58 m 2
 165 43 171 37 186 37 c 2
 319 37 l 2
 334 37 340 43 340 58 c 2
 340 351 l 2
 340 414 327 431 277 435 c 1
 277 450 l 1
 485 450 l 1
 485 435 l 1
 436 430 424 418 424 369 c 2
 424 81 l 2
 424 32 436 20 485 15 c 1
 485 0 l 1
 286 0 l 1
 270 -34 270 -130 270 -130 c 1
 230 -130 l 1
 230 -130 232 -34 214 0 c 1
 18 0 l 1
 18 15 l 1
 68 19 81 36 81 99 c 2
 81 351 l 2
 81 414 68 431 18 435 c 1
 18 450 l 1
 226 450 l 1
 226 435 l 1
 177 430 165 418 165 369 c 2
 165 58 l 2
EndSplineSet
EndChar
StartChar: afii10146
Encoding: 576 1122 410
Width: 710
Flags: W
TeX: 0 0 0 0
HStem: 1 37<378.5 486.763> 355 40<358 472.5> 542 41<143.5 256 358 433> 643 20G<174 451>
VStem: 256 102<58.5 352 110 542> 589 109<111.422 246.5>
AnchorPoint: "Bot" 359 0 basechar 0
AnchorPoint: "Top" 319 712 basechar 0
Fore
200 542 m 2
 87 542 62 527 45 437 c 1
 20 437 l 1
 23 583 l 1
 256 583 l 1
 253 626 238 645 174 644 c 1
 174 663 l 1
 451 663 l 1
 451 644 l 1
 384 641 363 631 358 583 c 1
 592 583 l 1
 610 436 l 1
 585 436 l 1
 568 526 510 542 433 542 c 2
 358 542 l 1
 358 395 l 1
 427 395 l 2
 657.35 395 698 275.737 698 192 c 0
 698 30.8438 537.525 1 436 1 c 2
 172 1 l 1
 172 20 l 1
 246 28 256 38 256 110 c 2
 256 542 l 1
 200 542 l 2
358 72 m 2
 358 45 365 38 392 38 c 0
 527 38 589 95 589 198 c 0
 589 295 530 355 415 355 c 0
 395 355 381 354 358 352 c 1
 358 72 l 2
EndSplineSet
EndChar
StartChar: afii10194
Encoding: 577 1123 411
Width: 495
Flags: W
TeX: 0 0 0 0
HStem: 0 36<249.5 365> 220.5 33.5<238 356> 413 37<116 154 238 282>
VStem: 154 84<58 413 450 560> 385 95<107 166>
AnchorPoint: "Bot" 200 0 basechar 0
AnchorPoint: "GreekTop" 340 500 basechar 0
AnchorPoint: "Top" 200 733 basechar 0
Fore
238 212 m 1
 238 77 l 2
 238 55 237 36 262 36 c 2
 301 36 l 2
 356 36 385 92 385 122 c 0
 385 183 362 220.5 294 220.5 c 0
 267.495 220.5 255 216 238 212 c 1
91 0 m 1
 91 15 l 1
 134 18 154 32 154 84 c 2
 154 413 l 1
 116 413 l 2
 56 416 41 398 32 325 c 1
 14 325 l 1
 18 450 l 1
 154 450 l 1
 154 560 l 2
 154 607 147 617 113 617 c 0
 104 617 97 617 88 616 c 1
 88 632 l 1
 143 649 178 662 232 683 c 1
 238 681 l 1
 238 450 l 1
 380 450 l 1
 391 325 l 1
 373 325 l 1
 360 402 342 410 282 413 c 2
 238 413 l 1
 238 254 l 1
 286 254 l 2
 426 254 480 200 480 132 c 0
 480 86 450 0 280 0 c 2
 91 0 l 1
EndSplineSet
EndChar
StartChar: afii10147
Encoding: 578 1138 412
Width: 722
Flags: W
TeX: 0 0 0 0
HStem: -14 36<279.5 455.5> 254 66<417.547 487> 322 66<231.5 300.453> 640 36<265.5 456.034>
VStem: 34 114<214.5 431.5> 573 115<226.5 444.5>
AnchorPoint: "Bot" 361 0 basechar 0
AnchorPoint: "Top" 361 712 basechar 0
Fore
361 640 m 0
 176 640 148 431 148 329 c 1
 184 373 212 388 251 388 c 0
 349.906 388 384.194 320 462 320 c 0
 493 320 546 331 573 368 c 1
 573 521 488.2 640 361 640 c 0
34 331 m 0
 34 532 170 676 361 676 c 0
 551.069 676 688 536.4 688 327 c 0
 688 126 552 -14 355 -14 c 0
 204 -14 34 98 34 331 c 0
150 279 m 1
 158 189 202 22 359 22 c 0
 552 22 577 262 574 318 c 1
 536 270 507 254 467 254 c 0
 368.094 254 333.806 322 256 322 c 0
 226 322 177 315 150 279 c 1
EndSplineSet
EndChar
StartChar: afii10195
Encoding: 579 1139 413
Width: 500
Flags: W
TeX: 0 0 0 0
HStem: -10 28<185 311> 179 54<284 342.5> 222 54<164.5 224.5> 432 28<185 314>
VStem: 29 90<158.5 322.5> 380 90<142.5 299.5>
AnchorPoint: "Bot" 250 0 basechar 0
AnchorPoint: "Top" 250 500 basechar 0
Fore
237 432 m 0xdc
 166 432 119 370 119 275 c 0
 119 259 120 244 121 228 c 1
 139 257 161 276 200 276 c 0xbc
 249 276 285 233 334 233 c 0
 351 233 366 245 376 259 c 1
 361 363 308 432 237 432 c 0xdc
250 460 m 0
 378 460 470 365 470 234 c 0
 470 96 374 -10 248 -10 c 0
 122 -10 29 91 29 226 c 0
 29 364 120 460 250 460 c 0
127 188 m 1
 143 106 180 18 260 18 c 0
 335 18 380 86 380 199 c 0
 380 207 380 215 379 223 c 1
 363 198 347.057 179 312 179 c 0xdc
 256 179 221 222 177 222 c 0
 152 222 137 208 127 188 c 1
EndSplineSet
EndChar
StartChar: afii10148
Encoding: 580 1140 414
Width: 780
Flags: W
TeX: 0 0 0 0
HStem: -10 21G<368 383> 556 112<679 704> 643 19<16 16 282 282>
AnchorPoint: "Bot" 386 0 basechar 0
AnchorPoint: "Top" 386 712 basechar 0
Fore
606 551 m 2
 383 -10 l 1
 368 -10 l 1
 122 538 l 2
 99 590 77 620 62 631 c 0
 51 638 35 642 16 643 c 1
 16 662 l 1
 282 662 l 1
 282 643 l 1
 250 641 207 641 207 610 c 0
 207 605 210 593 218 574 c 2
 399 161 l 1
 579 604 l 2
 592.304 636.741 629 668 682 668 c 0
 726 668 755 652 755 604 c 0
 755 578 731 556 711 556 c 0
 647 556 662 590 634 590 c 0
 618 590 614.067 571.296 606 551 c 2
EndSplineSet
EndChar
StartChar: afii10196
Encoding: 581 1141 415
Width: 555
Flags: W
TeX: 0 0 0 0
HStem: -14 21G<253 259> 363 92<454.5 512>
AnchorPoint: "Bot" 258 0 basechar 0
AnchorPoint: "Top" 282 500 basechar 0
Fore
412 357 m 2
 284 36 l 2
 269 -1 262 -14 256 -14 c 0
 250 -14 244 -6 238 12 c 0
 235 20 232 27 230 33 c 1
 110 320 l 1
 64 423 57 433 19 435 c 1
 19 450 l 1
 215 450 l 1
 215 435 l 1
 180 432 169 425 169 407 c 0
 169 398 172 384 178 370 c 1
 280 114 l 1
 379 373 l 2
 400 429 424 455 485 455 c 0
 521 455 545 439 545 401 c 0
 545 375 523 363 501 363 c 0
 470 363 476 389 450 389 c 0
 420 389 418 370 412 357 c 2
EndSplineSet
EndChar
StartChar: Hbar
Encoding: 227 294 430
Width: 722
Flags: MW
HStem: 0 21G<19 297 424 702> 315 44<209 512> 446 44<61 107 209 512 614 659> 642 20G<19 297 424 702>
VStem: 107 102<120 315 359 446 490 537.5> 512 102<120 315 315 315 359 446 490 537.5>
Fore
702 0 m 1
 424 0 l 1
 424 19 l 1
 506 23 512 44 512 120 c 2
 512 315 l 1
 209 315 l 1
 209 109 l 2
 209 37 225 23 297 19 c 1
 297 0 l 1
 19 0 l 1
 19 19 l 1
 101 23 107 44 107 120 c 2
 107 446 l 1
 61 446 l 1
 61 490 l 1
 107 490 l 1
 107 553 l 2
 107 628 92 637 19 643 c 1
 19 662 l 1
 297 662 l 1
 297 643 l 1
 187 635 209 585 209 490 c 1
 512 490 l 1
 512 553 l 2
 512 628 497 637 424 643 c 1
 424 662 l 1
 702 662 l 1
 702 643 l 1
 592 635 614 585 614 490 c 1
 659 490 l 1
 659 446 l 1
 614 446 l 1
 614 109 l 2
 614 37 630 23 702 19 c 1
 702 0 l 1
512 359 m 1
 512 446 l 1
 209 446 l 1
 209 359 l 1
 512 359 l 1
EndSplineSet
EndChar
StartChar: hbar
Encoding: 228 295 431
Width: 500
Flags: MW
HStem: 0 21G<9 225 275 487> 406 54<244 352.5> 519 44<12 73 157 267>
VStem: 73 84<102 519 563 573> 343 84<71 301>
Fore
487 0 m 1
 275 0 l 1
 275 15 l 1
 337 21 343 40 343 102 c 2
 343 300 l 2
 343 353 329 406 266 406 c 0
 222 406 184 374 157 343 c 1
 157 102 l 2
 157 40 163 21 225 15 c 1
 225 0 l 1
 9 0 l 1
 9 15 l 1
 72 23 73 41 73 102 c 2
 73 519 l 1
 12 519 l 1
 12 563 l 1
 73 563 l 1
 73 573 l 2
 73 617 57 633 10 623 c 1
 10 639 l 1
 58 653 105 666 152 683 c 1
 157 680 l 1
 157 563 l 1
 267 563 l 1
 267 519 l 1
 157 519 l 1
 157 378 l 1
 159 378 l 1
 193 427 242 460 303 460 c 0
 402 460 427 385 427 301 c 2
 427 102 l 2
 427 43 427 25 487 15 c 1
 487 0 l 1
EndSplineSet
EndChar
StartChar: kgreenlandic
Encoding: 245 312 440
Width: 508
Flags: W
HStem: 0 16<229 249> 434 16<229 249>
VStem: 90 84<49.5 251 67 368 82 383>
Fore
90 368 m 18
 90.5459 419.997 87 423 15 435 c 1
 15 450 l 1
 249 450 l 1
 249 435 l 1
 229 434 l 2
 189 432 176.29 417.925 174 383 c 2
 174 261 l 1
 311 383 l 2
 325 395 334 409 334 417 c 0
 334 431 323 435 284 436 c 1
 284 450 l 1
 488 450 l 1
 488 435 l 1
 480 435 l 2
 463 435 449 433 434 429 c 0
 405 421 343 375 272 309 c 2
 243 282 l 1
 396 88 l 1
 438 37 469 18 513 15 c 1
 513 0 l 1
 295 0 l 1
 295 15 l 1
 314 15 l 2
 326 15 335 21 335 30 c 0
 335 40.2002 322.308 51.5391 314 64 c 2
 174 251 l 1
 174 67 l 2
 174 32 189 18 229 16 c 2
 249 15 l 1
 249 0 l 1
 15 0 l 1
 15 15 l 1
 87 27 89.4541 30.0029 90 82 c 10
 90 368 l 18
EndSplineSet
EndChar
StartChar: Eng
Encoding: 263 330 444
Width: 722
Flags: W
HStem: -218 34<455 537> -144 20G<417.5 437> 0 21G<12 247> 643 19<12 183>
VStem: 109 44<147 588> 567 45<-71 22>
Fore
567 22 m 1
 153 539 l 1
 153 147 l 2
 153 46 170 23 247 19 c 1
 247 0 l 1
 12 0 l 1
 12 19 l 1
 95 25 109 44 109 147 c 2
 109 588 l 1
 69 635 55 643 12 643 c 1
 12 662 l 1
 183 662 l 1
 568 178 l 1
 568 515 l 2
 568 577 559 613 539 627 c 0
 524 636 510 640 472 643 c 1
 472 662 l 1
 707 662 l 1
 707 643 l 1
 669 639 655 635 641 625 c 0
 622 612 612 575 612 515 c 2
 612 0 l 2
 612 -142 592 -218 482 -218 c 0
 428 -218 388 -195 388 -163 c 0
 388 -141 406 -124 429 -124 c 0
 445 -124 459 -133 477 -156 c 0
 494 -177 504 -184 519 -184 c 0
 533 -184 547 -176 553 -166 c 0
 564 -146 567 -121 567 -45 c 2
 567 22 l 1
EndSplineSet
EndChar
StartChar: eng
Encoding: 264 331 445
Width: 500
Flags: W
HStem: -218 34<228 310> -144 20G<190.5 210> 0 21G<18 230> 405 55<250.5 343>
VStem: 80 84<67 362.5> 340 84<-83 310>
Fore
424 0 m 2
 424 -142 365 -218 255 -218 c 0
 201 -218 161 -195 161 -163 c 0
 161 -141 179 -124 202 -124 c 0
 218 -124 232 -133 250 -156 c 0
 267 -177 277 -184 292 -184 c 0
 306 -184 320 -176 326 -166 c 0
 337 -146 340 -121 340 -45 c 2
 340 308 l 2
 340 374 316 405 267 405 c 0
 234 405 212 393 164 348 c 1
 164 67 l 2
 164 31 179 19 230 15 c 1
 230 0 l 1
 18 0 l 1
 18 15 l 1
 69 19 80 33 80 90 c 2
 80 338 l 2
 80 387 71 402 43 402 c 0
 32 402 22 401 16 398 c 1
 16 415 l 1
 71 431 105 442 154 460 c 1
 161 458 l 1
 161 379 l 1
 229 443 260 460 306 460 c 0
 380 460 424 404 424 310 c 2
 424 0 l 2
EndSplineSet
EndChar
StartChar: Tbar
Encoding: 291 358 450
Width: 611
Flags: MW
HStem: 0 21G<160 452> 300 44<166 254 356 444> 492 170<23 587>
VStem: 254 102<120 300 344 620>
Fore
593 492 m 1
 569 492 l 1
 542 636 485 620 356 620 c 1
 356 344 l 1
 444 344 l 1
 444 300 l 1
 356 300 l 1
 356 109 l 2
 356 33 377 21 452 19 c 1
 452 0 l 1
 160 0 l 1
 160 19 l 1
 245 22 254 40 254 120 c 2
 254 300 l 1
 166 300 l 1
 166 344 l 1
 254 344 l 1
 254 620 l 1
 200 620 l 2
 90 620 63 601 41 492 c 1
 17 492 l 1
 23 662 l 1
 587 662 l 1
 593 492 l 1
EndSplineSet
EndChar
StartChar: tbar
Encoding: 292 359 451
Width: 278
Flags: W
HStem: -10 52<124 218.5> 300 44<13 70 154 255> 418 32<154 255>
VStem: 70 84<84.5 300 344 418>
Fore
279 66 m 1
 256 25 210 -10 162 -10 c 0
 86 -10 70 52 70 117 c 2
 70 300 l 1
 13 300 l 1
 13 344 l 1
 70 344 l 1
 70 418 l 1
 17 418 l 1
 15 420 13 422 13 425 c 0
 13 434 49 457 57 465 c 0
 92 499 119 539 147 579 c 1
 155 580 154 571 154 566 c 2
 154 450 l 1
 255 450 l 1
 255 418 l 1
 154 418 l 1
 154 344 l 1
 255 344 l 1
 255 300 l 1
 154 300 l 1
 154 127 l 2
 154 92 158 42 205 42 c 0
 232 42 250 57 266 77 c 1
 279 66 l 1
EndSplineSet
EndChar
StartChar: longs
Encoding: 316 383 460
Width: 333
Flags: W
HStem: 0 21G<20 280> 418 32<51 103> 655 28<224 309>
VStem: 103 84<66.5 595>
AnchorPoint: "Bot" 147 0 basechar 0
AnchorPoint: "Top" 274 733 basechar 0
Fore
187 104 m 2
 187 29 198 18 280 15 c 1
 280 0 l 1
 20 0 l 1
 20 15 l 1
 92 19 103 31 103 104 c 2
 103 418 l 1
 51 418 l 1
 51 450 l 1
 103 450 l 1
 104 530 112 566 138 610 c 0
 164 656 217 683 279 683 c 0
 339 683 383 657 383 621 c 0
 383 598 364 580 341 580 c 0
 324 580 312 590 296 616 c 0
 278 645 264 655 243 655 c 0
 205 655 187 624 187 566 c 2
 187 104 l 2
EndSplineSet
EndChar
StartChar: uni018F
Encoding: 317 399 461
Width: 722
Flags: W
TeX: 0 0 0 0
HStem: -14 36<274 461> 244 32<37 572> 631 45<281 460.5>
VStem: 574 114<233 427>
AnchorPoint: "Bot" 362 0 basechar 0
AnchorPoint: "Top" 362 712 basechar 0
Fore
688 330 m 0
 688 136 561 -14 361 -14 c 0
 187 -14 59 104 37 276 c 1
 572 276 l 1
 573 294 574 313 574 331 c 0
 574 486 499 631 327 631 c 0
 235 631 165 593 101 530 c 1
 83 548 l 1
 142 631 263 676 361 676 c 0
 560 676 688 524 688 330 c 0
569 244 m 1
 154 244 l 1
 171 130 233 22 361 22 c 0
 489 22 552 130 569 244 c 1
EndSplineSet
EndChar
StartChar: prescription
Encoding: 976 8478 462
Width: 667
Flags: W
TeX: 0 0 0 0
HStem: 0 21G<17 294 498 659> 625 37<239.5 337.5>
VStem: 102 102<82.5 603.5> 438 109<417.5 564>
Fore
450 216 m 1
 475 292 l 1
 519 292 l 1
 481 178 l 1
 572 66 l 2
 594 39 618 21 659 19 c 1
 659 0 l 1
 498 0 l 1
 445 68 l 1
 418 -14 l 1
 373 -14 l 1
 414 109 l 1
 260 308 l 1
 204 306 l 1
 204 109 l 2
 204 42 214 23 294 19 c 1
 294 0 l 1
 17 0 l 1
 17 19 l 1
 98 24 102 45 102 120 c 2
 102 553 l 2
 102 627 87 636 17 643 c 1
 17 662 l 1
 293 662 l 2
 382 662 547 641 547 487 c 0
 547 353 417 329 366 319 c 1
 450 216 l 1
204 589 m 2
 204 343 l 1
 288 344 438 346 438 489 c 0
 438 622 307 625 266 625 c 0
 213 625 204 618 204 589 c 2
EndSplineSet
EndChar
StartChar: Omegagreek
Encoding: 420 937 463
Width: 743
Flags: W
HStem: 0 81<31 303 440 712> 641 36<327.5 421.5>
VStem: 54 114<353 428.5> 575 114<315.5 434.5>
AnchorPoint: "Bot" 372 0 basechar 0
Fore
25 153 m 1
 49 153 l 1
 52 106 74 81 129 81 c 2
 260 81 l 1
 259 124 l 1
 208 134 161 163 118 210 c 0
 75 257 54 317 54 389 c 0
 54 468 84 536 143 592 c 0
 202 649 280 677 375 677 c 0
 468 677 544 649 603 596 c 0
 662 543 689 476 689 393 c 0
 689 258 613 160 488 124 c 1
 483 81 l 1
 617 81 l 2
 678 81 693 117 694 153 c 1
 718 153 l 1
 712 0 l 1
 440 0 l 1
 453 147 l 1
 537 174 575 251 575 380 c 0
 575 465 558 528 517 573 c 0
 476 618 428 641 373 641 c 0
 314 641 265 618 226 570 c 0
 187 523 168 462 168 387 c 0
 168 334 177 285 194 240 c 0
 211 196 244 165 293 147 c 1
 303 0 l 1
 31 0 l 1
 25 153 l 1
EndSplineSet
EndChar
StartChar: Ohorn
Encoding: 319 416 517
Width: 722
Flags: W
HStem: -14 36<278 453.5> 640 36<265.5 443>
VStem: 34 114<216.5 431.5> 574 114<226.5 398> 584 65<654.5 724>
AnchorPoint: "Bot" 361 0 basechar 0
AnchorPoint: "Top" 361 712 basechar 0
Fore
574 331 m 0xf0
 574 465 525 640 361 640 c 0
 197 640 148 465 148 331 c 0
 148 195 195 22 361 22 c 0
 527 22 574 195 574 331 c 0xf0
534 631 m 1
 564 632 584 647 584 662 c 0
 584 667 582 670 573 674 c 0
 562 680 541 703 541 720 c 0
 541 762 579 771 589 771 c 0
 622 771 649 739 649 709 c 0xe8
 649 660 610 619 552 617 c 1
 679 530 688 382 688 327 c 0
 688 126 552 -14 355 -14 c 0
 202 -14 34 102 34 331 c 0
 34 532 170 676 361 676 c 0
 414 676 492 657 534 631 c 1
EndSplineSet
LCarets: 0 65535 '    ' 1 0 
Ligature: 0 0 'ccmp' O uni031B
EndChar
StartChar: Uhorn
Encoding: 321 431 525
Width: 722
Flags: MW
HStem: -14 44<270 415.5> 642 20G<14 297 473 611>
VStem: 104 102<241 553> 567 44<245 636> 641 65<654.5 724>
AnchorPoint: "Bot" 360 0 basechar 0
AnchorPoint: "Top" 360 712 basechar 0
Fore
473 662 m 1
 611 662 l 25
 611 636 l 1
 616 639 641 647 641 662 c 0
 641 667 639 670 630 674 c 0
 619 680 598 703 598 720 c 0
 598 762 636 771 646 771 c 0
 679 771 706 739 706 709 c 0
 706 660 669 621 611 611 c 1
 611 254 l 2
 611 177 602 131 578 89 c 0
 539 21 464 -14 355 -14 c 0
 185 -14 104 68 104 241 c 2
 104 553 l 2
 104 626 93 637 14 643 c 1
 14 662 l 1
 297 662 l 1
 297 643 l 1
 217 636 206 625 206 553 c 2
 206 233 l 2
 206 170 213 133 231 101 c 0
 258 54 307 30 378 30 c 0
 453 30 517 61 544 109 c 0
 560 139 567 177 567 245 c 2
 567 515 l 2
 567 615 551 637 473 643 c 1
 473 662 l 1
EndSplineSet
LCarets: 0 65535 '    ' 1 0 
Ligature: 0 0 'ccmp' U uni031B
EndChar
StartChar: ohorn
Encoding: 320 417 541
Width: 500
Flags: W
HStem: -10 28<185 311> 432 28<185 292.5>
VStem: 29 90<158.5 312.5> 380 90<161.5 271.5> 433 65<443.5 513>
AnchorPoint: "Bot" 264 0 basechar 0
AnchorPoint: "Top" 264 500 basechar 0
Fore
380 199 m 0xf0
 380 285 348 432 237 432 c 0
 152 432 119 349 119 276 c 0
 119 188 147 18 262 18 c 0
 356 18 380 124 380 199 c 0xf0
383 421 m 1
 405 419 433 436 433 451 c 0
 433 456 431 459 422 463 c 0
 411 469 390 492 390 509 c 0
 390 551 428 560 438 560 c 0
 471 560 498 528 498 498 c 0xe8
 498 449 457 410 399 406 c 1
 435 375 470 309 470 234 c 0
 470 96 374 -10 248 -10 c 0
 122 -10 29 91 29 226 c 0
 29 364 120 460 250 460 c 0
 292 460 357 441 383 421 c 1
EndSplineSet
LCarets: 0 65535 '    ' 1 0 
Ligature: 0 0 'ccmp' o uni031B
EndChar
StartChar: uhorn
Encoding: 322 432 549
Width: 500
Flags: W
HStem: -10 58<155.5 241> 430 20G<9 155 259 417>
VStem: 71 84<80.5 450> 333 84<107 400> 447 65<443.5 513>
AnchorPoint: "Bot" 260 0 basechar 0
AnchorPoint: "Top" 260 500 basechar 0
Fore
417 400 m 1
 417 107 l 2
 417 61 428 50 474 50 c 2
 479 50 l 1
 479 36 l 1
 428 22 392 11 342 -9 c 1
 338 -7 l 1
 338 76 l 1
 295 33 l 2
 268 6 229 -10 192 -10 c 0
 119 -10 71 41 71 120 c 2
 71 372 l 2
 71 418 57 433 9 436 c 1
 9 450 l 1
 155 450 l 1
 155 124 l 2
 155 82 187 48 226 48 c 0
 256 48 287 60 314 82 c 0
 328 93 333 107 333 135 c 2
 333 370 l 2
 333 420 321 430 259 433 c 1
 259 450 l 1
 417 450 l 1
 417 425 l 1
 422 428 447 436 447 451 c 0
 447 456 445 459 436 463 c 0
 425 469 404 492 404 509 c 0
 404 551 442 560 452 560 c 0
 485 560 512 528 512 498 c 0
 512 449 475 410 417 400 c 1
EndSplineSet
LCarets: 0 65535 '    ' 1 0 
Ligature: 0 0 'ccmp' u uni031B
EndChar
StartChar: uni01DD
Encoding: 323 477 550
Width: 444
Flags: W
TeX: 0 0 0 0
HStem: -10 36<164 288.5> 141 32<45 356> 391 69<159.5 303>
AnchorPoint: "Bot" 226 0 basechar 0
AnchorPoint: "Top" 226 500 basechar 0
Fore
425 236 m 0
 425 114 356 -10 221 -10 c 0
 107 -10 54 65 45 173 c 1
 356 173 l 1
 350 270 315 391 197 391 c 0
 122 391 78 345 42 286 c 1
 26 293 l 1
 56 385 138 460 238 460 c 0
 368 460 425 354 425 236 c 0
353 141 m 1
 147 141 l 1
 155 81 170 26 243 26 c 0
 315 26 341 76 353 141 c 1
EndSplineSet
EndChar
StartChar: uni02BB
Encoding: 330 699 559
Width: 250
Flags: W
TeX: 0 0 0 0
VStem: 56 39<568 638>
Fore
168 747 m 1
 177 728 l 1
 123 691 95 654 95 622 c 0
 95 614 101 608 109 608 c 0
 110 608 110 608 117 610 c 0
 123 611 130 612 136 612 c 0
 172 612 195 593 195 561 c 0
 195 527 171 504 136 504 c 0
 91 504 56 543 56 593 c 0
 56 653 101 714 168 747 c 1
EndSplineSet
EndChar
StartChar: afii64937
Encoding: 332 701 561
Width: 250
Flags: W
TeX: 0 0 0 0
VStem: 56 39<613 683>
Fore
168 504 m 1
 101 537 56 598 56 658 c 0
 56 708 91 747 136 747 c 0
 171 747 195 724 195 690 c 0
 195 658 172 639 136 639 c 0
 130 639 123 640 117 641 c 0
 110 643 110 643 109 643 c 0
 101 643 95 637 95 629 c 0
 95 597 123 560 177 523 c 1
 168 504 l 1
EndSplineSet
EndChar
StartChar: uni02C0
Encoding: 333 704 562
Width: 300
Flags: W
TeX: 0 0 0 0
HStem: 700 19<119 166>
VStem: 50 62<646.5 680.5> 188 61<651 671>
Fore
148 719 m 0
 223.75 719 249 685.469 249 661 c 0
 249 616 175.934 584.869 164 561 c 0
 160 554 158 544 156 531 c 1
 132 531 l 1
 132 594.197 188 613.294 188 657 c 0x20
 188 685 172 700 138 700 c 0
 114.572 700 96 689.425 96 682 c 0
 96 677 112 661 112 653 c 0x40
 112 640 104 633 86 633 c 0
 62 633 50 643 50 665 c 0
 50 696 90 719 148 719 c 0
EndSplineSet
EndChar
StartChar: uni0305
Encoding: 350 773 568
Width: 0
Flags: W
TeX: 0 0 0 0
HStem: 711 54<-487 -9>
Fore
-487 765 m 1
 -9 765 l 1
 -9 711 l 1
 -487 711 l 1
 -487 765 l 1
EndSplineSet
EndChar
StartChar: uni031B
Encoding: 365 795 583
Width: 0
Flags: W
TeX: 0 0 0 0
HStem: 400 25<-92 -72>
VStem: -96 108<462.75 530>
AnchorPoint: "VietHorn" -88 410 mark 0
Fore
-83 400 m 0
 -98 400 -104 401.5 -104 410.5 c 0
 -104 419.214 -97 425 -87 425 c 0
 -75.5 425 -53 436 -53 451 c 0
 -53 456 -55 459 -64 463 c 0
 -75 469 -96 492 -96 509 c 0
 -96 551 -58 560 -48 560 c 0
 -15 560 12 528 12 498 c 0
 12 427.5 -61 400 -83 400 c 0
EndSplineSet
EndChar
StartChar: uni0374
Encoding: 382 884 600
Width: 199
Flags: W
Fore
154 738 m 0
 154 709 44 586 19 557 c 1
 0 567 l 1
 15 609 60 780 109 780 c 0
 132 780 154 762 154 738 c 0
EndSplineSet
EndChar
StartChar: uni0375
Encoding: 383 885 601
Width: 199
Flags: W
HStem: -223 21G<79.5 115.5>
Fore
200 -10 m 1
 185 -52 140 -223 91 -223 c 0
 68 -223 46 -205 46 -181 c 0
 46 -152 156 -29 181 0 c 1
 200 -10 l 1
EndSplineSet
EndChar
StartChar: uni037A
Encoding: 384 890 602
Width: 332
Flags: W
HStem: -253 37<176.5 246> -185 20G<271 296>
VStem: 129 76<-199.5 -75>
Fore
296 -165 m 1
 296 -225 261 -253 203 -253 c 0
 150 -253 129 -225 129 -174 c 2
 129 -75 l 1
 205 -75 l 1x20
 205 -94 189 -216 232 -216 c 0x80
 260 -216 271 -189 271 -165 c 1x40
 296 -165 l 1
EndSplineSet
EndChar
StartChar: tonos
Encoding: 386 900 603
Width: 138
Flags: W
HStem: 657 20G<66 88>
Fore
114 650 m 0
 114 620 33 497 24 482 c 1
 0 482 l 1
 40 636 l 2
 46 659 52 677 80 677 c 0
 96 677 114 668 114 650 c 0
EndSplineSet
EndChar
StartChar: dieresistonos
Encoding: 387 901 604
Width: 291
Flags: W
HStem: 467 96<34.5 61.5 229.5 256.5> 642 20G<174 196>
VStem: 0 96<501.5 528.5> 195 96<501.5 528.5>
Fore
291 515 m 0
 291 488 270 467 243 467 c 0
 216 467 195 488 195 515 c 0
 195 542 216 563 243 563 c 0
 270 563 291 542 291 515 c 0
222 635 m 0
 222 607 151 498 133 467 c 1
 109 467 l 1
 148 621 l 2
 154 644 160 662 188 662 c 0
 204 662 222 653 222 635 c 0
96 515 m 0
 96 488 75 467 48 467 c 0
 21 467 0 488 0 515 c 0
 0 542 21 563 48 563 c 0
 75 563 96 542 96 515 c 0
EndSplineSet
EndChar
StartChar: anoteleia
Encoding: 389 903 606
Width: 250
Flags: W
HStem: 450 20G<108.5 141.5>
Fore
184 411 m 0
 184 378 158 352 125 352 c 0
 92 352 66 378 66 411 c 0
 66 444 92 470 125 470 c 0
 158 470 184 444 184 411 c 0
EndSplineSet
EndChar
StartChar: iotadieresistonos
Encoding: 396 912 613
Width: 267
Flags: W
HStem: -10 36<122.5 217.5> 431 20G<59 143> 557 96<10.5 37.5 205.5 232.5>
VStem: -24 96<591.5 618.5> 59 84<59 451> 171 96<591.5 618.5> 241 24<74.5 145>
AnchorPoint: "Bot" 162 0 basechar 0
Fore
265 111 m 2xea
 265 38 241 -10 161 -10 c 0
 84 -10 59 35 59 106 c 2
 59 451 l 1
 143 451 l 1
 143 72 l 2
 143 46 160 26 187 26 c 0
 248 26 241 103 241 145 c 1
 265 145 l 1
 265 111 l 2xea
198 725 m 0
 198 695 117 572 108 557 c 1
 84 557 l 1
 124 711 l 2
 130 734 136 752 164 752 c 0
 180 752 198 743 198 725 c 0
267 605 m 0xe4
 267 578 246 557 219 557 c 0
 192 557 171 578 171 605 c 0
 171 632 192 653 219 653 c 0
 246 653 267 632 267 605 c 0xe4
72 605 m 0xf0
 72 578 51 557 24 557 c 0
 -3 557 -24 578 -24 605 c 0
 -24 632 -3 653 24 653 c 0
 51 653 72 632 72 605 c 0xf0
EndSplineSet
LCarets: 0 65535 '    ' 2 0 0 
Ligature: 0 9 'ccmp' iotadieresis acutecomb
Ligature: 0 9 'ccmp' iota dieresis acutecomb
EndChar
StartChar: Gamma
Encoding: 399 915 616
Width: 586
Flags: MW
HStem: 0 21G<12 292> 621 41<12 543>
VStem: 99 102<120 553 553 587>
AnchorPoint: "Bot" 156 0 basechar 0
Fore
546 516 m 1
 521 516 l 1
 504 617 460 621 369 621 c 2
 233 621 l 2
 206 621 201 613 201 587 c 2
 201 109 l 2
 201 36 221 22 292 19 c 1
 292 0 l 1
 12 0 l 1
 12 19 l 1
 91 23 99 45 99 120 c 2
 99 553 l 2
 99 625 82 638 12 643 c 1
 12 662 l 1
 543 662 l 1
 546 516 l 1
EndSplineSet
EndChar
StartChar: Deltagreek
Encoding: 400 916 617
Width: 660
Flags: W
HStem: 0 34<0 630> 654 20G<310 319>
AnchorPoint: "Bot" 315 0 basechar 0
Fore
630 0 m 1
 0 0 l 1
 310 674 l 1
 319 674 l 1
 630 0 l 1
504 34 m 1
 284 511 l 1
 59 34 l 1
 504 34 l 1
EndSplineSet
EndChar
StartChar: Theta
Encoding: 404 920 621
Width: 752
Flags: W
HStem: -12 36<281 471> 293 71<301 464> 641 32<280.5 471.5>
VStem: 34 108<236 426.5> 236 17<233 426> 501 17<233 426> 610 108<236 426.5>
AnchorPoint: "Bot" 376 0 basechar 0
Fore
718 331 m 0
 718 141 566 -12 376 -12 c 0
 186 -12 34 141 34 331 c 0
 34 522 185 673 376 673 c 0
 567 673 718 522 718 331 c 0
610 330 m 0
 610 466 532 641 375 641 c 0
 217 641 142 466 142 330 c 0
 142 193 217 24 375 24 c 0
 530 24 610 195 610 330 c 0
518 233 m 1
 501 233 l 1
 501 265 481 293 447 293 c 2
 301 293 l 2
 273 293 252 258 252 233 c 1
 236 233 l 1
 236 426 l 1
 253 426 l 1
 253 402 274 364 301 364 c 2
 447 364 l 2
 481 364 504 393 501 426 c 1
 518 426 l 1
 518 233 l 1
EndSplineSet
EndChar
StartChar: Lambda
Encoding: 407 923 624
Width: 722
Flags: W
HStem: 0 19<15 213 451 706> 654 20G<347 367>
AnchorPoint: "Bot" 360 0 basechar 0
Fore
706 0 m 1
 451 0 l 1
 451 19 l 1
 480 19 521 17 521 57 c 0
 521 76 509 102 502 120 c 2
 331 532 l 1
 153 99 l 2
 148 87 145 74 145 61 c 0
 145 23 184 19 213 19 c 1
 213 0 l 1
 15 0 l 1
 15 19 l 1
 84 22 116 129 139 183 c 2
 347 674 l 1
 367 674 l 1
 616 106 l 2
 636 60 649 23 706 19 c 1
 706 0 l 1
EndSplineSet
EndChar
StartChar: Xi
Encoding: 410 926 627
Width: 628
Flags: MW
HStem: 0 84<61 571> 289 88<237 420.5> 578 84<61 571>
VStem: 164 14<223 439> 459 14<223 439>
AnchorPoint: "Bot" 316 0 basechar 0
Fore
571 487 m 1
 557 487 l 1
 557 548 536 578 472 578 c 2
 159 578 l 2
 89 578 84 547 76 487 c 1
 61 487 l 1
 61 662 l 1
 571 662 l 1
 571 487 l 1
473 223 m 1
 459 223 l 1
 459 261 441 289 400 289 c 2
 237 289 l 2
 199 289 175 260 178 223 c 1
 164 223 l 1
 164 439 l 1
 178 439 l 1
 178 402 199 377 237 377 c 2
 400 377 l 2
 432 377 466 405 459 439 c 1
 473 439 l 1
 473 223 l 1
571 0 m 1
 61 0 l 1
 61 175 l 1
 76 175 l 1
 76 116 101 84 162 84 c 2
 485 84 l 2
 535 84 560 129 557 175 c 1
 571 175 l 1
 571 0 l 1
EndSplineSet
EndChar
StartChar: Pi
Encoding: 412 928 629
Width: 715
Flags: MW
HStem: 0 21G<12 290 417 695> 621 41<12 695>
VStem: 100 102<120 553 553 587> 505 102<120 553>
AnchorPoint: "Bot" 354 0 basechar 0
Fore
505 120 m 2
 505 587 l 2
 505 615 499 621 472 621 c 2
 235 621 l 2
 208 621 202 615 202 587 c 2
 202 109 l 2
 202 38 215 25 290 19 c 1
 290 0 l 1
 12 0 l 1
 12 19 l 1
 90 24 100 36 100 120 c 2
 100 553 l 2
 100 625 89 636 12 643 c 1
 12 662 l 1
 695 662 l 1
 695 643 l 1
 618 636 607 625 607 553 c 2
 607 109 l 2
 607 38 620 25 695 19 c 1
 695 0 l 1
 417 0 l 1
 417 19 l 1
 495 24 505 36 505 120 c 2
EndSplineSet
EndChar
StartChar: Sigma
Encoding: 414 931 631
Width: 627
Flags: W
HStem: 0 87<14 562> 630 31<16 550>
AnchorPoint: "Bot" 288 0 basechar 0
Fore
562 0 m 1
 14 0 l 1
 346 332 l 1
 16 661 l 1
 550 661 l 1
 562 484 l 1
 546 484 l 1
 536 571 459 630 373 630 c 2
 209 630 l 2
 197 630 177 628 177 612 c 0
 177 599 401 384 431 354 c 1
 163 87 l 1
 468 87 l 2
 518 87 547 131 544 179 c 1
 562 179 l 1
 562 0 l 1
EndSplineSet
Substitution: 0 0 'ss01' uni03F9
Substitution: 0 0 'salt' uni03F9
EndChar
StartChar: Upsilon
Encoding: 416 933 633
Width: 696
Flags: W
HStem: 0 18<217 501> 631 41<109.5 196.5 522.5 608.5>
VStem: 41 77<556 617.5> 600 77<556 617.5>
AnchorPoint: "Bot" 359 0 basechar 0
Fore
677 575 m 0
 677 537 656 488 612 488 c 0
 586 488 564 515 564 540 c 0
 564 574 600 586 600 609 c 0
 600 626 572 631 559 631 c 0
 534 631 512 616 494 599 c 0
 419 530 411 395 411 299 c 2
 411 82 l 2
 411 24 454 18 501 18 c 1
 501 0 l 1
 217 0 l 1
 217 18 l 1
 265 18 307 23 307 82 c 2
 307 293 l 2
 307 391 302 528 224 599 c 0
 206 615 184 631 159 631 c 0
 146 631 118 626 118 609 c 0
 118 586 154 574 154 540 c 0
 154 515 132 488 106 488 c 0
 62 488 41 537 41 575 c 0
 41 623 85 672 134 672 c 0
 259 672 333 530 360 425 c 1
 393 524 461 672 584 672 c 0
 633 672 677 623 677 575 c 0
EndSplineSet
EndChar
StartChar: Phi
Encoding: 417 934 634
Width: 742
Flags: W
HStem: 0 14<223 263> 112 29<233.5 317> 529 31<240.5 317 417 495.5> 649 13<471 519>
VStem: 25 104<263.5 415> 317 100<141 529> 609 106<283 421>
AnchorPoint: "Bot" 370 0 basechar 0
Fore
715 346 m 0
 715 268 689 203 618 164 c 0
 565 134 478 104 417 113 c 1
 417 102 l 2
 417 46 452 11 509 15 c 1
 509 0 l 1
 223 0 l 1
 223 15 l 1
 231 14 l 2
 295 14 318 50 318 108 c 2
 317 113 l 1
 312 112 308 112 303 112 c 0
 164 112 25 187 25 340 c 0
 25 490 175 560 306 560 c 0
 310 560 313 560 317 559 c 1
 317 623 288 651 221 647 c 1
 221 662 l 1
 519 662 l 1
 519 647 l 1
 515 648 510 649 506 649 c 0
 436 649 423 619 417 559 c 1
 421 560 426 560 430 560 c 0
 561 560 715 496 715 346 c 0
609 345 m 0
 609 460 529 529 417 529 c 1
 417 141 l 1
 545 141 609 221 609 345 c 0
317 141 m 1
 317 529 l 1
 200 529 129 466 129 347 c 0
 129 221 184 141 317 141 c 1
EndSplineSet
EndChar
StartChar: Chi
Encoding: 418 935 635
Width: 722
Flags: W
HStem: 0 21G<10 243 407 704> 643 19<22 324>
AnchorPoint: "Bot" 357 0 basechar 0
Fore
704 0 m 1
 407 0 l 1
 407 19 l 1
 432 20 484 16 484 53 c 0
 484 83 364 252 338 288 c 1
 308 253 167 88 167 56 c 0
 167 20 218 20 243 19 c 1
 243 0 l 1
 10 0 l 1
 10 19 l 1
 81 24 115 84 155 133 c 2
 312 326 l 1
 286 364 138 606 74 633 c 0
 57 640 40 642 22 643 c 1
 22 662 l 1
 324 662 l 1
 324 643 l 1
 305 643 l 2
 283 643 248 641 248 611 c 0
 248 572 348 442 375 404 c 1
 389 421 528 575 528 610 c 0
 528 644 481 642 458 643 c 1
 458 662 l 1
 696 662 l 1
 696 643 l 1
 619 637 593 606 547 549 c 2
 401 367 l 1
 593 93 l 2
 625 47 645 24 704 19 c 1
 704 0 l 1
EndSplineSet
Colour: ffff
EndChar
StartChar: Psi
Encoding: 419 936 636
Width: 863
Flags: W
HStem: 0 15<272 572> 196 35<315 372> 642 20G<282 562>
VStem: 372 100<85 198 231 577>
AnchorPoint: "Bot" 422 0 basechar 0
Fore
844 646 m 1
 830 644 815 644 802 640 c 0
 789 636 782 628 777 616 c 0
 713 475 852 293 601 214 c 0
 560 201 515 193 472 198 c 1
 472 85 l 2
 472 36 530 12 572 15 c 1
 572 0 l 1
 272 0 l 1
 272 15 l 1
 312 15 372 37 372 85 c 2
 372 198 l 1
 364 197 355 196 347 196 c 0
 283 196 201 219 150 259 c 0
 68 324 85 423 85 515 c 0
 85 546 84 582 70 611 c 0
 54 645 32 641 0 646 c 1
 0 658 l 1
 22 658 l 2
 46 658 74 658 98 652 c 0
 256 610 87 297 273 242 c 0
 304 233 340 231 372 231 c 1
 372 576 l 2
 372 634 329 640 282 647 c 1
 282 662 l 1
 562 662 l 1
 562 647 l 1
 518 644 472 630 472 577 c 2
 472 231 l 1
 504 231 540 232 571 241 c 0
 755 295 591 602 742 650 c 0
 767 658 796 658 822 658 c 2
 844 658 l 1
 844 646 l 1
EndSplineSet
EndChar
StartChar: upsilondieresistonos
Encoding: 427 944 643
Width: 534
Flags: W
HStem: -10 36<221 354> 425 36<70 148.5> 557 96<153.5 180.5 348.5 375.5>
VStem: 118 85<103.5 187> 119 96<591.5 618.5> 126 84<299 379> 314 96<591.5 618.5> 359 105<240 423.5>
AnchorPoint: "Bot" 264 0 basechar 0
Fore
464 305 m 0xf1
 464 175 438 -10 270 -10 c 0
 172 -10 118 56 118 151 c 0xf1
 118 223 126 296 126 368 c 0
 126 390 120 425 91 425 c 0
 49 425 43 364 43 333 c 1
 19 333 l 1
 19 399 34 461 113 461 c 0
 184 461 210 390 210 330 c 0xe4
 210 268 203 206 203 144 c 0
 203 83 216 26 289 26 c 0
 376 26 420 117 420 193 c 0
 420 272 359 337 359 411 c 0
 359 436 373 461 401 461 c 0
 466 461 464 349 464 305 c 0xf1
410 605 m 0xe2
 410 578 389 557 362 557 c 0
 335 557 314 578 314 605 c 0
 314 632 335 653 362 653 c 0
 389 653 410 632 410 605 c 0xe2
341 725 m 0
 341 697 270 588 252 557 c 1
 228 557 l 1
 267 711 l 2
 273 734 279 752 307 752 c 0
 323 752 341 743 341 725 c 0
215 605 m 0xe8
 215 578 194 557 167 557 c 0
 140 557 119 578 119 605 c 0
 119 632 140 653 167 653 c 0
 194 653 215 632 215 605 c 0xe8
EndSplineSet
Ligature: 0 9 'ccmp' upsilondieresis acutecomb
Ligature: 0 9 'ccmp' upsilon dieresis acutecomb
EndChar
StartChar: alpha
Encoding: 428 945 644
Width: 587
Flags: W
HStem: -10 29<175 302.5> -10 73<469.5 527.5> 432 29<184 300.5>
VStem: 41 92<163.5 280> 378 60<138 271.5>
AnchorPoint: "GreekTop" 300 511 basechar 0
AnchorPoint: "Bot" 248 0 basechar 0
Fore
558 107 m 1x78
 558 69 554 -10 501 -10 c 0x78
 438 -10 428 71 419 118 c 1
 417 118 l 1
 389 45 317 -10 238 -10 c 0xb8
 112 -10 41 106 41 221 c 0
 41 339 120 461 248 461 c 0
 343 461 385 373 397 291 c 1
 399 291 l 1
 431 451 l 1
 515 451 l 1
 501 371 482 291 458 214 c 0
 454 202 438 161 438 151 c 0
 438 125 472 63 501 63 c 0
 525 63 539 85 539 107 c 1
 558 107 l 1x78
378 233 m 0
 378 310 349 432 252 432 c 0
 151 432 133 281 133 206 c 0
 133 131 159 19 253 19 c 0xb8
 352 19 378 157 378 233 c 0
EndSplineSet
EndChar
StartChar: beta
Encoding: 429 946 645
Width: 534
Flags: W
HStem: -224 21G<59 143> -10 24<267.5 357.5> 368 65<211 233.5> 385 29<270.5 325.5> 676 29<185 313>
VStem: 59 84<-224 526> 361 84<513.5 607> 400 92<144 262>
AnchorPoint: "Bot" 297 0 basechar 0
Fore
492 203 m 0xdd
 492 85 419 -10 296 -10 c 0
 239 -10 180 22 171 83 c 1
 200 83 l 1
 202 43 252 14 289 14 c 0
 376 14 400 131 400 199 c 0
 400 267 368 385 283 385 c 0xdd
 258 385 240 368 222 368 c 0
 200 368 190 380 190 402 c 0
 190 420 205 433 222 433 c 0xed
 245 433 266 414 285 414 c 0
 343 414 361 503 361 547 c 0
 361 610 327 676 256 676 c 0
 153 676 143 565 143 487 c 2
 143 -224 l 1
 59 -224 l 1
 59 413 l 2
 59 549 103 705 267 705 c 0
 359 705 445 658 445 556 c 0xde
 445 471 375 428 303 402 c 1
 303 400 l 1
 414 385 492 321 492 203 c 0xdd
EndSplineSet
Substitution: 8 65534 'L040' betasymbolgreek
Substitution: 0 0 'aalt' betasymbolgreek
EndChar
StartChar: gamma
Encoding: 430 947 646
Width: 480
Flags: W
HStem: -224 21G<229 266> 369 92<57.5 144>
VStem: 199 99<-170 -130> 249 24<42.5 90>
AnchorPoint: "Bot" 395 0 basechar 0
Fore
461 411 m 0xd0
 461 340 273 77 273 54 c 0xd0
 273 31 280 8 285 -15 c 0
 294 -60 298 -107 298 -153 c 0
 298 -186 286 -224 246 -224 c 0
 212 -224 199 -184 199 -156 c 0xe0
 199 -108 209 -61 224 -16 c 0
 229 -2 249 47 249 57 c 0
 249 123 157 369 84 369 c 0
 50 369 38 333 38 305 c 1
 19 305 l 1
 19 357 21 461 94 461 c 0
 194 461 245 165 264 88 c 1
 266 88 l 1
 301 164 333 242 349 325 c 0
 354 352 356 381 362 408 c 0
 368 437 388 461 420 461 c 0
 448 461 461 436 461 411 c 0xd0
EndSplineSet
EndChar
StartChar: delta
Encoding: 431 948 647
Width: 534
Flags: W
HStem: -10 29<198.5 333> 396 29<192 313.5> 681 24<198.5 267.5>
VStem: 44 92<155 281.5> 120 48<552.5 643.5> 397 93<162 356.5>
AnchorPoint: "Bot" 267 0 basechar 0
Fore
490 228 m 0xec
 490 96 401 -10 265 -10 c 0
 132 -10 44 90 44 220 c 0xf4
 44 334 135 425 249 425 c 0
 269 425 289 422 309 417 c 1
 311 419 l 1
 247 461 120 507 120 598 c 0
 120 664 166 705 231 705 c 0
 304 705 368 650 391 583 c 1
 365 583 l 1
 344 635 294 681 235 681 c 0
 202 681 168 662 168 625 c 0
 168 543 490 485 490 228 c 0xec
397 208 m 0
 397 294 365 396 262 396 c 0
 171 396 136 322 136 241 c 0
 136 153 165 19 276 19 c 0
 379 19 397 127 397 208 c 0
EndSplineSet
EndChar
StartChar: epsilon
Encoding: 432 949 648
Width: 426
Flags: W
HStem: -10 36<171 277.5> 210 66<272.5 295.5> 228 24<184 226.5> 437 24<180 261>
VStem: 41 92<77 163> 48 92<311.5 384>
AnchorPoint: "GreekTop" 220 511 basechar 0
AnchorPoint: "Bot" 220 0 basechar 0
Fore
399 108 m 1xb8
 367 20 300 -10 211 -10 c 0
 131 -10 41 31 41 123 c 0xb8
 41 187 100 232 159 241 c 1
 159 243 l 1
 109 248 48 283 48 340 c 0
 48 428 143 461 217 461 c 0
 269 461 377 448 377 378 c 0
 377 357 364 341 342 341 c 0
 284 341 300 437 222 437 c 0
 163 437 140 390 140 337 c 0
 140 299 162 252 206 252 c 0xb4
 243 252 261 276 286 276 c 0
 305 276 319 262 319 243 c 0
 319 223 305 210 285 210 c 0xd4
 260 210 239 228 214 228 c 0
 164 228 133 187 133 139 c 0
 133 71 175 26 244 26 c 0
 311 26 348 59 374 119 c 1
 399 108 l 1xb8
EndSplineSet
EndChar
StartChar: zeta
Encoding: 433 950 649
Width: 480
Flags: W
HStem: -173 66<227 307.5> -2 86<184.5 373.5> 511 92<272.5 360.5> 687 24<141.5 181.5>
VStem: 41 67<595 658.5> 70 43<134 279> 422 36<-74.5 19.5>
AnchorPoint: "Bot" 250 -173 basechar 0
Fore
458 -24 m 0xf6
 458 -124 351 -173 264 -173 c 0
 239 -173 197 -169 197 -135 c 0
 197 -113 218 -107 236 -107 c 0
 270 -107 303 -125 338 -125 c 0
 377 -125 422 -96 422 -53 c 0
 422 24 303 -2 253 -2 c 0
 116 -2 70 67 70 201 c 0xf6
 70 319 106 428 180 520 c 1
 129 528 41 564 41 626 c 0
 41 691 115 711 168 711 c 0
 180 711 193 710 205 708 c 1
 205 684 l 1
 196 686 186 687 177 687 c 0
 139 687 108 661 108 622 c 0xfa
 108 579 160 545 199 540 c 1
 243 583 288 603 350 603 c 0
 371 603 405 596 405 569 c 0
 405 523 320 511 286 511 c 0
 259 511 232 511 206 516 c 1
 139 444 113 327 113 231 c 0
 113 67 212 84 334 84 c 0
 413 84 458 63 458 -24 c 0xf6
EndSplineSet
EndChar
StartChar: eta
Encoding: 434 951 650
Width: 534
Flags: W
HStem: -224 21G<391 475> 0 21G<118 203> 420 41<65.5 155.5>
VStem: 118 82<297 371> 391 84<-224 346.5>
AnchorPoint: "GreekTop" 247 511 basechar 0
AnchorPoint: "Bot" 156 0 basechar 0
Fore
475 -224 m 1
 391 -224 l 1
 391 326 l 2
 391 367 381 425 329 425 c 0
 179 425 203 72 203 0 c 1
 118 0 l 1
 118 359 l 2
 118 383 118 420 85 420 c 0
 46 420 43 347 43 320 c 1
 19 320 l 1
 19 381 32 461 110 461 c 0
 201 461 197 362 200 297 c 1
 203 297 l 1
 218 372 259 461 348 461 c 0
 455 461 475 383 475 293 c 2
 475 -224 l 1
EndSplineSet
EndChar
StartChar: theta
Encoding: 435 952 651
Width: 534
Flags: W
HStem: -10 24<175.5 358.5> 334 24<143 391> 648 24<184 350>
VStem: 51 92<270 407.5> 391 92<270 407.5>
AnchorPoint: "Bot" 267 0 basechar 0
Fore
483 341 m 0
 483 199 450 -10 267 -10 c 0
 84 -10 51 199 51 341 c 0
 51 474 101 672 267 672 c 0
 433 672 483 474 483 341 c 0
391 358 m 1
 391 443 389 648 267 648 c 0
 145 648 143 443 143 358 c 1
 391 358 l 1
391 334 m 1
 143 334 l 1
 143 301 l 2
 143 216 144 14 267 14 c 0
 390 14 391 216 391 301 c 2
 391 334 l 1
EndSplineSet
Substitution: 0 0 'salt' thetasymbolgreek
Substitution: 0 0 'aalt' thetasymbolgreek
EndChar
StartChar: iota
Encoding: 436 953 652
Width: 267
Flags: W
HStem: -10 36<122.5 217.5> 431 20G<59 143>
VStem: 59 84<59 451> 241 24<74.5 145>
AnchorPoint: "GreekTop" 103 501 basechar 0
AnchorPoint: "Bot" 162 0 basechar 0
Fore
265 111 m 2
 265 38 241 -10 161 -10 c 0
 84 -10 59 35 59 106 c 2
 59 451 l 1
 143 451 l 1
 143 72 l 2
 143 46 160 26 187 26 c 0
 248 26 241 103 241 145 c 1
 265 145 l 1
 265 111 l 2
EndSplineSet
EndChar
StartChar: kappa
Encoding: 437 954 653
Width: 534
Flags: W
HStem: -10 85<365.5 458> 382 79<79.5 164.5>
VStem: 33 19<305 360> 333 27<158.5 239>
AnchorPoint: "Bot" 267 0 basechar 0
Fore
501 133 m 2
 501 73 498 -10 418 -10 c 0
 313 -10 331 172 333 239 c 1
 285 203 237 167 195 124 c 1
 186 82 171 -10 115 -10 c 0
 87 -10 75 17 75 41 c 0
 75 108 127 153 172 195 c 1
 173 222 174 249 174 276 c 0
 174 319 168 382 111 382 c 0
 68 382 52 342 52 305 c 1
 33 305 l 1
 33 334 l 2
 33 386 46 461 113 461 c 0
 216 461 205 284 201 216 c 1
 243 255 289 291 335 325 c 1
 340 365 360 461 412 461 c 0
 436 461 454 442 454 418 c 0
 454 355 407 300 361 262 c 1
 361 235 360 207 360 180 c 0
 360 137 367 75 423 75 c 0
 465 75 478 115 482 150 c 1
 501 150 l 1
 501 133 l 2
EndSplineSet
Substitution: 0 0 'salt' kappasymbolgreek
Substitution: 0 0 'aalt' kappasymbolgreek
EndChar
StartChar: lambda
Encoding: 438 955 654
Width: 480
Flags: W
HStem: -10 79<366.5 427> 632 73<89.5 154>
VStem: 446 20<73 130>
AnchorPoint: "Bot" 246 0 basechar 0
Fore
466 96 m 2
 466 50 456 -10 398 -10 c 0
 335 -10 318 64 306 112 c 2
 246 350 l 1
 244 350 l 1
 113 0 l 1
 26 0 l 1
 208 472 l 1
 195 519 182 632 113 632 c 0
 82 632 68 603 61 577 c 1
 42 577 l 1
 42 595 l 2
 42 644 60 705 119 705 c 0
 189 705 209 592 223 540 c 2
 323 182 l 2
 333 144 350 69 400 69 c 0
 430 69 445 105 446 130 c 1
 466 130 l 1
 466 96 l 2
EndSplineSet
EndChar
StartChar: mugreek
Encoding: 439 956 655
Width: 534
Flags: W
HStem: -224 21G<78.5 108.5> -10 36<155.5 279.5> 431 20G<59 143 331 416>
VStem: 59 84<105.5 451> 334 82<80.5 155>
AnchorPoint: "Bot" 287 0 basechar 0
Fore
515 132 m 1
 515 70 502 -10 423 -10 c 0
 333 -10 337 91 334 155 c 1
 331 155 l 1
 316 81 274 -10 186 -10 c 0
 125 -10 95 35 80 89 c 1
 78 89 l 1
 78 -15 137 -107 137 -182 c 0
 137 -209 122 -224 95 -224 c 0
 62 -224 59 -196 59 -170 c 2
 59 451 l 1
 143 451 l 1
 143 125 l 2
 143 86 153 26 204 26 c 0
 355 26 331 380 331 451 c 1
 416 451 l 1
 416 92 l 2
 416 69 416 31 448 31 c 0
 488 31 491 104 491 132 c 1
 515 132 l 1
EndSplineSet
EndChar
StartChar: nu
Encoding: 440 957 656
Width: 480
Flags: W
HStem: 0 21G<240 268> 407 54<55 128.5>
VStem: 15 24<331 382> 356 99<388.5 431.5>
AnchorPoint: "Bot" 235 0 basechar 0
Fore
455 417 m 0
 455 371 298 71 268 0 c 1
 240 0 l 1
 105 376 l 2
 99 392 91 407 71 407 c 0
 39 407 39 353 39 331 c 1
 15 331 l 1
 15 351 l 2
 15 413 35 461 105 461 c 0
 152 461 171 435 186 394 c 2
 286 111 l 1
 324 185 360 265 360 350 c 0
 360 365 356 381 356 396 c 0
 356 431 368 461 408 461 c 0
 436 461 455 446 455 417 c 0
EndSplineSet
EndChar
StartChar: xi
Encoding: 441 958 657
Width: 480
Flags: W
HStem: -184 67<193.5 292> 276 85<298 361.5> 523 85<288.5 349> 687 24<111.5 168.5>
VStem: 25 60<610 663.5> 46 36<22.5 212> 88 36<395 452> 420 35<-86 24.5>
AnchorPoint: "Bot" 240 -184 basechar 0
Fore
455 -27 m 0xf7
 455 -145 342 -184 242 -184 c 0
 217 -184 168 -177 168 -144 c 0
 168 -125 185 -117 202 -117 c 0
 240 -117 272 -144 311 -144 c 0
 361 -144 420 -113 420 -57 c 0
 420 79 46 -106 46 151 c 0xf7
 46 221 80 284 140 321 c 1
 110 347 88 374 88 416 c 0
 88 467 118 512 158 542 c 1
 115 548 25 584 25 636 c 0
 25 691 89 711 134 711 c 0
 157 711 181 708 204 704 c 1
 200 684 l 1
 187 685 175 687 162 687 c 0
 127 687 85 674 85 632 c 0xfb
 85 588 147 561 184 558 c 1
 228 589 282 608 336 608 c 0
 362 608 416 603 416 567 c 0
 416 523 339 523 309 523 c 0
 268 523 223 525 184 539 c 1
 151 512 124 474 124 430 c 0
 124 404 151 345 181 345 c 0
 229 345 287 361 348 361 c 0
 375 361 434 360 434 322 c 0
 434 277 359 276 328 276 c 0
 268 276 219 281 163 304 c 1
 119 281 82 238 82 186 c 0
 82 67 208 84 292 84 c 0
 374 84 455 76 455 -27 c 0xf7
EndSplineSet
EndChar
StartChar: omicron
Encoding: 442 959 658
Width: 534
Flags: W
HStem: -10 29<199 331.5> 432 29<200.5 339.5>
VStem: 36 93<158 299> 405 92<150 296.5>
AnchorPoint: "GreekTop" 266 511 basechar 0
AnchorPoint: "Bot" 266 0 basechar 0
Fore
497 224 m 0
 497 94 397 -10 266 -10 c 0
 132 -10 36 92 36 224 c 0
 36 353 135 461 266 461 c 0
 413 461 497 369 497 224 c 0
405 186 m 0
 405 279 380 432 259 432 c 0
 160 432 129 341 129 257 c 0
 129 163 167 19 284 19 c 0
 369 19 405 114 405 186 c 0
EndSplineSet
EndChar
StartChar: pi
Encoding: 443 960 659
Width: 587
Flags: W
HStem: -10 73<69 168.5> -10 36<407 493> 378 73<130 250 150.5 343> 378 66<427 503.5>
VStem: 180 29<336 378> 343 84<95 378>
AnchorPoint: "Bot" 294 0 basechar 0
Fore
552 470 m 1x1c
 550 371 508 378 427 378 c 1
 427 95 l 2
 427 66 431 26 469 26 c 0
 517 26 523 112 523 146 c 1
 547 146 l 1
 547 74 532 -10 442 -10 c 0x5c
 372 -10 343 41 343 105 c 2
 343 378 l 1
 209 378 l 1
 209 294 229 -10 108 -10 c 0
 30 -10 36 65 35 121 c 1
 59 121 l 1
 59 98 70 63 98 63 c 0
 181 63 180 290 180 346 c 2
 180 378 l 1
 130 378 l 2
 99 378 74 362 67 330 c 1
 43 330 l 1
 60 436 100 451 201 451 c 0xac
 299 451 397 444 495 444 c 0
 512 444 531 451 533 470 c 1
 552 470 l 1x1c
EndSplineSet
EndChar
StartChar: rho
Encoding: 444 961 660
Width: 534
Flags: W
HStem: -224 21G<378 397> -10 29<215 330> 432 29<186 333>
VStem: 41 91<143 281.5> 389 92<159 298>
AnchorPoint: "Bot" 261 -180 basechar 0
Fore
481 233 m 0
 481 100 400 -10 260 -10 c 0
 170 -10 93 50 72 137 c 1
 70 137 l 1
 71 108 77 79 84 51 c 0
 155 -230 399 10 397 -224 c 1
 378 -224 l 1
 384 -125 176 -253 89 -63 c 0
 57 6 41 105 41 181 c 0
 41 322 106 461 266 461 c 0
 400 461 481 363 481 233 c 0
389 196 m 0
 389 279 365 432 256 432 c 0
 147 432 132 324 132 239 c 0
 132 155 171 19 275 19 c 0
 368 19 389 122 389 196 c 0
EndSplineSet
Substitution: 0 0 'salt' rhosymbolgreek
Substitution: 0 0 'aalt' rhosymbolgreek
EndChar
StartChar: sigma1
Encoding: 445 962 661
Width: 426
Flags: W
HStem: -187 69<123.5 228.5> 372 72<292.5 351> 378 73<150 233.5>
VStem: 46 29<46.5 268.5> 352 36<-87.5 80.5>
AnchorPoint: "Bot" 225 -187 basechar 0
Fore
404 467 m 1xd8
 393 408 373 372 307 372 c 0xd8
 278 372 248 378 219 378 c 0
 127 378 75 313 75 224 c 0
 75 -27 388 193 388 -32 c 0
 388 -143 276 -187 181 -187 c 0
 155 -187 100 -184 100 -147 c 0
 100 -126 114 -118 133 -118 c 0
 174 -118 209 -147 250 -147 c 0
 301 -147 352 -113 352 -58 c 0
 352 78 46 -120 46 213 c 0
 46 314 89 451 211 451 c 0xb8
 254 451 298 444 341 444 c 0
 361 444 381 447 391 467 c 1
 404 467 l 1xd8
EndSplineSet
Substitution: 0 0 'ss01' sigmalunatesymbolgreek
Substitution: 0 0 'salt' sigmalunatesymbolgreek
EndChar
StartChar: tau
Encoding: 447 964 662
Width: 426
Flags: W
HStem: -10 36<234 315> 378 73<69 156.5>
VStem: 158 85<87 376>
AnchorPoint: "Bot" 260 0 basechar 0
Fore
402 468 m 1
 396 362 327 367 243 374 c 1
 243 94 l 2
 243 62 246 26 287 26 c 0
 343 26 345 105 345 145 c 1
 369 145 l 1
 369 68 358 -10 262 -10 c 0
 206 -10 158 29 158 87 c 2
 158 376 l 1
 134 377 110 378 86 378 c 0
 52 378 35 367 28 333 c 1
 9 333 l 1
 13 410 36 451 119 451 c 0
 194 451 270 444 345 444 c 0
 361 444 380 450 383 468 c 1
 402 468 l 1
EndSplineSet
EndChar
StartChar: upsilon
Encoding: 448 965 663
Width: 534
Flags: W
HStem: -10 36<221 354> 425 36<70 148.5>
VStem: 118 85<103.5 187> 126 84<299 379> 359 105<240 423.5>
AnchorPoint: "GreekTop" 264 511 basechar 0
AnchorPoint: "Bot" 264 0 basechar 0
Fore
464 305 m 0xe8
 464 175 438 -10 270 -10 c 0
 172 -10 118 56 118 151 c 0xe8
 118 223 126 296 126 368 c 0
 126 390 120 425 91 425 c 0
 49 425 43 364 43 333 c 1
 19 333 l 1
 19 399 34 461 113 461 c 0
 184 461 210 390 210 330 c 0xd8
 210 268 203 206 203 144 c 0
 203 83 216 26 289 26 c 0
 376 26 420 117 420 193 c 0
 420 272 359 337 359 411 c 0
 359 436 373 461 401 461 c 0
 466 461 464 349 464 305 c 0xe8
EndSplineSet
EndChar
StartChar: phi
Encoding: 449 966 664
Width: 640
Flags: W
HStem: -224 21G<293 377> 432 29<141 230.5 379.5 513.5>
VStem: 40 92<171.5 292.5> 291 86<110.5 321.5> 571 29<194 310.5>
AnchorPoint: "Bot" 516 0 basechar 0
Fore
600 266 m 0
 600 122 534 -2 377 -10 c 1
 377 -224 l 1
 293 -224 l 1
 293 -10 l 1
 150 -2 40 98 40 245 c 0
 40 340 85 461 197 461 c 0
 248 461 285 432 308 388 c 1
 291 374 l 1
 274 399 247 432 214 432 c 0
 130 432 132 306 132 248 c 0
 132 129 153 28 293 19 c 1
 293 56 291 92 291 129 c 0
 291 245 299 461 460 461 c 0
 567 461 600 355 600 266 c 0
571 267 m 0
 571 331 550 432 468 432 c 0
 387 432 377 353 377 290 c 2
 377 19 l 1
 517 26 571 141 571 267 c 0
EndSplineSet
Substitution: 0 0 'salt' phisymbolgreek
Substitution: 0 0 'aalt' phisymbolgreek
EndChar
StartChar: chi
Encoding: 450 967 665
Width: 480
Flags: W
HStem: -209 78<361.5 427> 376 85<58 120.5>
VStem: 19 24<298 378.5>
AnchorPoint: "Bot" 240 -209 basechar 0
Fore
461 -89 m 0
 461 -139 461 -209 393 -209 c 0
 332 -209 310 -105 295 -60 c 2
 252 71 l 1
 118 -200 l 1
 29 -200 l 1
 213 177 l 1
 168 294 l 2
 154 329 144 376 97 376 c 0
 51 376 44 335 43 298 c 1
 24 298 l 1
 20 317 19 337 19 357 c 0
 19 400 31 461 85 461 c 0
 148 461 170 395 186 346 c 2
 233 206 l 1
 356 451 l 1
 443 451 l 1
 271 108 l 1
 279 85 332 -131 391 -131 c 0
 430 -131 439 -78 442 -48 c 1
 459 -48 l 1
 460 -62 461 -75 461 -89 c 0
EndSplineSet
EndChar
StartChar: psi
Encoding: 451 968 666
Width: 693
Flags: MW
HStem: 420 41<77.5 160.5>
VStem: 27 29<298 363.5> 135 85<109 220> 340 94<-224 -224> 526 111<266 427>
AnchorPoint: "Bot" 546 0 basechar 0
Fore
424 -10 m 1x10
 434 -224 l 1x10
 340 -224 l 1x10
 349 -10 l 1x10
 227 -6 135 62 135 191 c 0
 135 249 139 306 139 364 c 0
 139 387 137 420 106 420 c 0
 49 420 56 336 56 298 c 1
 27 298 l 1
 27 329 l 2
 27 398 46 461 127 461 c 0
 194 461 224 391 224 333 c 0
 224 272 220 212 220 151 c 0
 220 67 267 18 351 14 c 1x10
 374 584 l 1x10
 399 584 l 1x10
 422 14 l 1x10
 517 27 577 117 577 209 c 0
 577 286 526 349 526 416 c 0
 526 438 545 461 568 461 c 0
 634 461 637 387 637 338 c 0
 637 194 593 13 424 -10 c 1x10
EndSplineSet
EndChar
StartChar: omega
Encoding: 452 969 667
Width: 693
Flags: W
HStem: -10 29<159.5 266 426.5 533.5>
VStem: 41 92<177 288> 300 93<305.5 344.5> 323 48<131 191.5> 560 92<177 288>
AnchorPoint: "GreekTop" 346 511 basechar 0
AnchorPoint: "Bot" 346 0 basechar 0
Fore
652 228 m 0xd8
 652 126 593 -10 474 -10 c 0
 394 -10 357 49 348 122 c 1
 345 122 l 1
 336 49 299 -10 219 -10 c 0
 100 -10 41 126 41 228 c 0
 41 348 110 458 240 461 c 1
 240 437 l 1
 130 426 133 313 133 229 c 0
 133 161 134 19 230 19 c 0
 302 19 323 102 323 160 c 0xd8
 323 223 300 287 300 329 c 0
 300 360 312 385 347 385 c 0
 381 385 393 359 393 329 c 0xe8
 393 282 371 221 371 160 c 0
 371 102 390 19 463 19 c 0
 562 19 560 168 560 237 c 0
 560 320 560 426 453 437 c 1
 453 461 l 1
 583 458 652 348 652 228 c 0xd8
EndSplineSet
EndChar
StartChar: iotadieresis
Encoding: 453 970 668
Width: 267
Flags: W
HStem: -10 36<122.5 217.5> 431 20G<59 143> 557 96<9.5 36.5 161.5 188.5>
VStem: -25 96<591.5 618.5> 59 84<59 451> 127 96<591.5 618.5> 241 24<74.5 145>
AnchorPoint: "Bot" 162 0 basechar 0
Fore
265 111 m 2xea
 265 38 241 -10 161 -10 c 0
 84 -10 59 35 59 106 c 2
 59 451 l 1
 143 451 l 1
 143 72 l 2
 143 46 160 26 187 26 c 0
 248 26 241 103 241 145 c 1
 265 145 l 1
 265 111 l 2xea
223 605 m 0xe6
 223 578 202 557 175 557 c 0
 148 557 127 578 127 605 c 0
 127 632 148 653 175 653 c 0
 202 653 223 632 223 605 c 0xe6
71 605 m 0xf2
 71 578 50 557 23 557 c 0
 -4 557 -25 578 -25 605 c 0
 -25 632 -4 653 23 653 c 0
 50 653 71 632 71 605 c 0xf2
EndSplineSet
LCarets: 0 65535 '    ' 1 0 
Ligature: 0 9 'ccmp' iota uni0308
EndChar
StartChar: upsilondieresis
Encoding: 454 971 669
Width: 534
Flags: W
HStem: -10 36<221 354> 425 36<70 148.5> 557 96<158.5 185.5 348.5 375.5>
VStem: 118 85<103.5 187> 124 96<591.5 618.5> 126 84<299 379> 314 96<591.5 618.5> 359 105<240 423.5>
AnchorPoint: "Bot" 264 0 basechar 0
Fore
464 305 m 0xf1
 464 175 438 -10 270 -10 c 0
 172 -10 118 56 118 151 c 0xf1
 118 223 126 296 126 368 c 0
 126 390 120 425 91 425 c 0
 49 425 43 364 43 333 c 1
 19 333 l 1
 19 399 34 461 113 461 c 0
 184 461 210 390 210 330 c 0xe4
 210 268 203 206 203 144 c 0
 203 83 216 26 289 26 c 0
 376 26 420 117 420 193 c 0
 420 272 359 337 359 411 c 0
 359 436 373 461 401 461 c 0
 466 461 464 349 464 305 c 0xf1
410 605 m 0xe2
 410 578 389 557 362 557 c 0
 335 557 314 578 314 605 c 0
 314 632 335 653 362 653 c 0
 389 653 410 632 410 605 c 0xe2
220 605 m 0xe8
 220 578 199 557 172 557 c 0
 145 557 124 578 124 605 c 0
 124 632 145 653 172 653 c 0
 199 653 220 632 220 605 c 0xe8
EndSplineSet
Ligature: 0 9 'ccmp' upsilon uni0308
EndChar
StartChar: betasymbolgreek
Encoding: 458 976 673
Width: 534
Flags: W
HStem: -10 29<187 334> 396 29<211 337> 676 29<298.5 377.5>
VStem: 44 88<157 305.5> 397 93<155 289.5> 410 35<575.5 660.5>
AnchorPoint: "Bot" 267 0 basechar 0
Fore
490 224 m 0xf8
 490 93 401 -10 267 -10 c 0
 107 -10 44 118 44 261 c 0
 44 350 56 442 96 522 c 0
 145 621 241 705 356 705 c 0
 399 705 445 685 445 636 c 0xf4
 445 515 204 494 117 480 c 1
 93 427 80 347 80 289 c 1
 82 289 l 1
 114 371 185 425 274 425 c 0
 400 425 490 355 490 224 c 0xf8
410 635 m 0
 410 667 382 676 355 676 c 0
 261 676 160 597 129 510 c 1
 194 521 410 546 410 635 c 0
397 199 m 0xf8
 397 287 376 396 266 396 c 0
 156 396 132 286 132 197 c 0
 132 117 175 19 268 19 c 0
 374 19 397 111 397 199 c 0xf8
EndSplineSet
EndChar
StartChar: thetasymbolgreek
Encoding: 459 977 674
Width: 587
Flags: W
HStem: -10 24<184.5 372.5> 401 41<59 201.5> 407 24<335 391 480 516> 676 29<254 359.5>
VStem: 153 73<501 610> 391 92<223 407>
AnchorPoint: "Bot" 293 0 basechar 0
Fore
569 322 m 1xbc
 545 322 l 1
 545 365 530 407 480 407 c 1xbc
 482 385 483 363 483 341 c 0
 483 205 463 -10 282 -10 c 0
 87 -10 122 180 122 313 c 0
 122 343 123 401 80 401 c 0
 42 401 41 341 41 315 c 1
 17 315 l 1
 17 375 20 442 98 442 c 0xdc
 305 442 110 14 284 14 c 0
 384 14 391 150 391 223 c 2
 391 407 l 1
 279 407 153 431 153 571 c 0
 153 649 216 705 292 705 c 0
 427 705 466 537 480 431 c 1
 552 431 569 385 569 322 c 1xbc
389 431 m 1
 379 519 l 2
 373 574 374 676 296 676 c 0
 228 676 226 620 226 567 c 0
 226 462 295 431 389 431 c 1
EndSplineSet
EndChar
StartChar: phisymbolgreek
Encoding: 463 981 677
Width: 640
Flags: MW
HStem: 642 20G<305 335>
VStem: 43 85<151.5 298> 285 70 513 84<151.5 297.5>
AnchorPoint: "Bot" 486 0 basechar 0
Fore
597 226 m 0
 597 77 494 -2 352 -10 c 1x20
 355 -224 l 1x20
 285 -224 l 1x20
 288 -10 l 1
 146 -2 43 77 43 226 c 0
 43 370 167 454 300 461 c 1x20
 305 662 l 1x20
 335 662 l 1x20
 341 461 l 1x20
 474 454 597 369 597 226 c 0
513 226 m 0
 513 331 454 422 343 432 c 1x20
 351 19 l 1x20
 455 28 513 130 513 226 c 0
298 432 m 1x20
 187 422 128 332 128 226 c 0
 128 130 185 28 289 19 c 1x20
 298 432 l 1x20
EndSplineSet
EndChar
StartChar: pisymbolgreek
Encoding: 464 982 678
Width: 684
Flags: W
HStem: -10 29<159.5 266.5 426.5 533.5> 437 84<123.5 653>
VStem: 41 92<177 268> 300 93<304.5 344.5> 323 48<131 192> 560 92<177 275>
AnchorPoint: "Bot" 336 0 basechar 0
Fore
653 437 m 1xe4
 544 437 l 1
 619 395 652 311 652 228 c 0
 652 126 593 -10 474 -10 c 0
 394 -10 357 49 348 122 c 1
 345 122 l 1
 336 49 299 -10 219 -10 c 0
 100 -10 41 126 41 228 c 0
 41 308 71 391 143 434 c 1
 93 431 74 420 34 391 c 1
 18 391 l 1
 39 441 93 521 154 521 c 2
 653 521 l 1
 653 437 l 1xe4
560 237 m 0
 560 313 561 437 456 437 c 2
 236 437 l 2
 129 437 133 305 133 229 c 0
 133 161 134 19 230 19 c 0
 303 19 323 102 323 160 c 0xec
 323 224 300 285 300 329 c 0
 300 360 312 385 347 385 c 0
 381 385 393 359 393 329 c 0xf4
 393 280 371 220 371 160 c 0xec
 371 102 390 19 463 19 c 0
 562 19 560 168 560 237 c 0
EndSplineSet
EndChar
StartChar: uni03D8
Encoding: 465 984 679
Width: 556
Flags: W
HStem: 0 21G<262 542> 288 40<226 306> 625 37<220.5 329.5>
VStem: 16 109<404.5 552> 356 102<71 607.5>
AnchorPoint: "Bot" 401 0 basechar 0
Fore
542 0 m 1
 262 0 l 1
 262 19 l 1
 335 21 356 33 356 109 c 2
 356 291 l 1
 334 289 311 288 289 288 c 0
 163 288 16 327 16 482 c 0
 16 622 163 662 278 662 c 2
 542 662 l 1
 542 643 l 1
 471 637 458 624 458 553 c 2
 458 120 l 2
 458 46 461 24 542 19 c 1
 542 0 l 1
356 331 m 1
 356 591 l 2
 356 624 344 625 315 625 c 0
 217 625 125 594 125 480 c 0
 125 370 193 328 296 328 c 0
 316 328 336 329 356 331 c 1
EndSplineSet
EndChar
